<svg xmlns="http://www.w3.org/2000/svg" viewBox="0 0 39.61 39.62"><g id="Layer_2" data-name="Layer 2"><g id="Layer_1-2" data-name="Layer 1" fill="currentColor"><path id="Shape" d="M17.62,39.61a1,1,0,1,1,.23-2.08,1,1,0,0,1,.93,1.15,1,1,0,0,1-1,.94Zm3.3-.93A1.05,1.05,0,0,1,23,38.44a1.06,1.06,0,0,1-.93,1.16H22a1.06,1.06,0,0,1-1-.93Zm-7.65,0a1,1,0,1,1,.35.06,1.07,1.07,0,0,1-.35-.06ZM25.09,38a1.05,1.05,0,1,1,1.34.64,1.12,1.12,0,0,1-.35.06,1.06,1.06,0,0,1-1-.7ZM9.25,36.71a1,1,0,1,1,.56.16,1.13,1.13,0,0,1-.56-.16ZM29,36.33a1.05,1.05,0,0,1,.32-1.45h0a1,1,0,0,1,1.13,1.77h0a1.07,1.07,0,0,1-.56.15,1,1,0,0,1-.89-.48ZM5.76,33.94l0,0,0,0A1,1,0,0,1,7.2,32.41h0l0,0a1,1,0,0,1,0,1.48,1,1,0,0,1-.74.31,1,1,0,0,1-.74-.3Zm26.68-.07a1.06,1.06,0,0,1,0-1.49h0a1,1,0,0,1,1.48,1.48,1,1,0,0,1-.74.31,1,1,0,0,1-.74-.3ZM2.93,30.41h0a1.05,1.05,0,0,1,1.78-1.12,1.06,1.06,0,0,1-.33,1.45,1.06,1.06,0,0,1-1.45-.33Zm32.32.3a1.05,1.05,0,0,1-.33-1.45,1,1,0,0,1,1.44-.33,1,1,0,0,1-.55,1.93A1.12,1.12,0,0,1,35.25,30.71ZM1,26.39a1,1,0,0,1,.64-1.33,1,1,0,1,1,.69,2,1.33,1.33,0,0,1-.34.05,1,1,0,0,1-1-.7ZM37.29,27a1,1,0,1,1,1.33-.65,1,1,0,0,1-1,.7A1,1,0,0,1,37.29,27ZM0,22A1,1,0,1,1,1.17,23H1.05A1,1,0,0,1,0,22Zm.92-3.3a1,1,0,1,1,.24-2.08,1.05,1.05,0,0,1,.92,1.16,1,1,0,0,1-1,.93Zm.71-4.17A1.05,1.05,0,0,1,1,13.23H1a1,1,0,1,1,1,1.39,1,1,0,0,1-.34-.06Zm35-.68a1.06,1.06,0,0,1,.65-1.34,1,1,0,0,1,.69,2,1.07,1.07,0,0,1-.35.06,1.05,1.05,0,0,1-1-.7ZM3.25,10.66a1.06,1.06,0,1,1,.56.16,1.06,1.06,0,0,1-.56-.16Zm31.64-.36a1,1,0,1,1,1.44.33,1.06,1.06,0,0,1-.56.16,1,1,0,0,1-.88-.49ZM5.71,7.22a1.06,1.06,0,0,1,0-1.49,1,1,0,0,1,1.48,0,1.06,1.06,0,0,1,0,1.49,1.06,1.06,0,0,1-1.48,0Zm26.68,0a1,1,0,1,1,1.48,0,1,1,0,0,1-.74.31A1,1,0,0,1,32.39,7.18ZM8.86,4.39a1,1,0,1,1,1.44.33,1,1,0,0,1-.55.16,1,1,0,0,1-.89-.49Zm20.41.31a1.05,1.05,0,0,1-.33-1.45,1,1,0,0,1,1.44-.33,1.05,1.05,0,0,1,.33,1.45,1.06,1.06,0,0,1-.89.49A1,1,0,0,1,29.27,4.7ZM12.56,2.34a1,1,0,0,1,2-.69A1,1,0,0,1,13.9,3a.86.86,0,0,1-.35.06,1.06,1.06,0,0,1-1-.7ZM25.67,3A1.05,1.05,0,1,1,26,3,1.07,1.07,0,0,1,25.67,3Zm-9-1.8a1,1,0,1,1,1.16.93h-.12A1,1,0,0,1,16.63,1.17Zm5.15.92a1,1,0,1,1,.12,0Zm-2,32.11A14.39,14.39,0,1,1,30,30,14.3,14.3,0,0,1,19.8,34.2Zm0-26.68a12.27,12.27,0,1,0,8.7,3.59A12.27,12.27,0,0,0,19.8,7.52Z"/><path id="Shape-2" data-name="Shape" d="M19.8,28.38a8.57,8.57,0,1,1,6.07-2.51A8.51,8.51,0,0,1,19.8,28.38Zm-2.59-6a3.67,3.67,0,0,0,6.26-2.59,3.67,3.67,0,1,0-6.26,2.59Zm21.24.53a1.06,1.06,0,0,1-.93-1.16A1,1,0,0,1,39.6,22h0a1,1,0,0,1-1,.93Zm-.94-5.15a1.05,1.05,0,1,1,1.16.92h-.11A1.07,1.07,0,0,1,37.51,17.78Z"/></g></g></svg>
