<svg xmlns="http://www.w3.org/2000/svg" width="40" height="40" viewBox="0 0 40 40">
    <g fill="none" fill-rule="evenodd">
        <g>
            <path fill="#000" d="M0 0L1367 0 1367 2514 0 2514z" transform="translate(-566 -1069)"/>
            <text fill="#000" font-family=".SFNSDisplay, .SF NS Display" font-size="30" letter-spacing=".232" transform="translate(-566 -1069) translate(92 70)">
                <tspan x="0" y="29">Assets</tspan>
            </text>
        </g>
        <g fill="currentColor" fill-rule="nonzero">
            <path d="M17.622 39.608c-.571-.063-.99-.582-.928-1.153.063-.577.582-.991 1.159-.928.576.063.99.576.928 1.153-.058.54-.514.938-1.044.938-.036 0-.073-.005-.115-.01zM20.92 38.675c-.063-.572.35-1.096.922-1.159.577-.069 1.096.346 1.164.923.063.571-.351 1.09-.923 1.158-.042.006-.084.01-.12.01-.524 0-.98-.398-1.043-.932zM13.27 38.633c-.544-.189-.833-.787-.644-1.338.189-.545.786-.833 1.332-.644.55.189.838.787.65 1.332-.152.435-.556.707-.991.707-.116 0-.23-.021-.346-.057zM25.093 37.957c-.194-.546.094-1.144.64-1.338.544-.193 1.142.095 1.336.64.194.55-.094 1.148-.64 1.342-.115.037-.236.058-.35.058-.431 0-.834-.273-.986-.702zM9.25 36.709c-.493-.31-.64-.954-.336-1.448.31-.487.954-.64 1.447-.33.493.304.64.954.336 1.442-.2.32-.545.493-.891.493-.19 0-.383-.053-.556-.157zM28.998 36.326c-.31-.487-.168-1.138.325-1.447v.005c.488-.314 1.132-.167 1.447.32.31.492.163 1.138-.325 1.447v.005c-.178.11-.372.158-.56.158-.352 0-.688-.168-.887-.488zM5.758 33.936l-.02-.021-.022-.021c-.409-.41-.409-1.076 0-1.484.41-.409 1.075-.409 1.484 0 .005.005.005.01.01.01.011.011.016.021.027.027.409.409.414 1.075.005 1.483-.205.205-.477.31-.744.31-.268 0-.535-.1-.74-.304zM32.437 33.867c-.409-.409-.414-1.075-.005-1.483h.005c.404-.414 1.07-.414 1.479-.006.414.409.414 1.075.005 1.484-.205.205-.471.309-.745.309-.267 0-.534-.104-.739-.304zM2.933 30.407v.006c-.31-.493-.163-1.138.33-1.447.487-.31 1.138-.163 1.447.325.304.493.157 1.137-.33 1.447-.173.11-.367.163-.561.163-.346 0-.687-.174-.886-.494zM35.252 30.706c-.492-.31-.64-.96-.335-1.447.31-.493.954-.64 1.447-.33.493.304.64.954.33 1.441-.2.32-.54.493-.885.493-.195 0-.384-.052-.557-.157zM.998 26.392c-.194-.546.095-1.148.64-1.337.55-.189 1.148.094 1.337.645.194.545-.095 1.142-.645 1.336-.11.037-.23.058-.341.058-.435 0-.844-.272-.99-.702zM37.287 26.995c-.546-.19-.834-.787-.645-1.332.188-.545.787-.84 1.337-.645.545.189.834.786.644 1.332-.152.435-.555.702-.99.702-.116 0-.232-.016-.346-.057zM.007 22.04c-.063-.571.346-1.09.923-1.158.577-.063 1.096.351 1.159.928.068.572-.346 1.09-.923 1.159-.042.005-.079.005-.115.005-.53 0-.986-.394-1.044-.934zM.93 18.743c-.577-.063-.99-.582-.923-1.159.063-.576.582-.99 1.159-.928.571.069.986.582.923 1.159-.058.54-.514.933-1.044.933-.036 0-.073 0-.115-.005zM1.638 14.57c-.545-.189-.839-.786-.645-1.337v.005c.189-.55.786-.839 1.332-.645.55.19.838.787.644 1.332-.146.435-.555.703-.985.703-.116 0-.23-.016-.346-.058zM36.62 13.888c-.193-.545.095-1.142.645-1.336.545-.19 1.143.094 1.332.644.194.546-.095 1.143-.64 1.337-.115.037-.23.058-.346.058-.435 0-.838-.268-.99-.703zM3.252 10.664c-.487-.31-.634-.96-.325-1.447.304-.492.955-.64 1.442-.33.493.31.64.954.33 1.447-.199.315-.54.488-.886.488-.194 0-.388-.053-.56-.158zM34.885 10.297c-.309-.487-.162-1.137.325-1.447.488-.309 1.138-.162 1.447.33.31.488.163 1.138-.324 1.448-.179.11-.373.162-.561.162-.347 0-.688-.173-.887-.493zM5.706 7.215c-.409-.41-.409-1.075 0-1.484.409-.409 1.075-.409 1.484 0 .408.409.408 1.07 0 1.484-.205.204-.472.304-.745.304-.267 0-.535-.1-.74-.304zM32.39 7.183c-.414-.409-.414-1.07-.005-1.483.409-.41 1.075-.41 1.483 0 .409.409.409 1.07 0 1.483-.205.205-.471.31-.739.31-.267-.006-.535-.105-.739-.31zM8.862 4.389c-.31-.488-.168-1.138.325-1.447.487-.304 1.138-.162 1.447.33.31.488.162 1.138-.33 1.447-.173.11-.367.163-.556.163-.346 0-.687-.173-.886-.493zM29.266 4.698c-.488-.309-.64-.954-.33-1.447.309-.487.953-.64 1.446-.33.488.31.64.954.33 1.447-.199.315-.539.493-.89.493-.19 0-.383-.053-.556-.163zM12.563 2.34c-.194-.546.094-1.144.64-1.332.55-.194 1.148.094 1.336.64.194.55-.094 1.147-.64 1.336-.114.042-.235.058-.35.058-.43 0-.834-.268-.986-.703zM25.669 2.974c-.546-.194-.834-.792-.645-1.337.189-.545.787-.834 1.337-.645.545.189.834.786.645 1.337-.152.43-.556.702-.99.702-.116 0-.231-.02-.347-.057zM16.626 1.17c-.063-.571.351-1.09.928-1.158.571-.063 1.09.35 1.158.927.063.572-.35 1.09-.922 1.16-.042.004-.084.004-.12.004-.525 0-.981-.398-1.044-.933zM21.78 2.093c-.577-.063-.992-.582-.929-1.159.063-.576.582-.99 1.159-.928.577.063.99.582.928 1.159-.063.535-.513.933-1.043.933-.037 0-.079 0-.116-.005zM19.803 34.2c-3.845 0-7.46-1.496-10.178-4.215-5.612-5.612-5.612-14.744 0-20.356 5.612-5.611 14.744-5.612 20.356 0 2.718 2.719 4.216 6.333 4.216 10.178 0 3.845-1.498 7.46-4.216 10.178-2.72 2.718-6.333 4.216-10.178 4.216zm0-26.684c-3.15 0-6.298 1.2-8.695 3.596-4.795 4.795-4.795 12.595 0 17.39 2.322 2.323 5.41 3.602 8.695 3.602 3.284 0 6.372-1.279 8.695-3.602 2.323-2.323 3.602-5.41 3.602-8.695s-1.279-6.373-3.602-8.695c-2.397-2.397-5.546-3.596-8.695-3.596z"/>
            <path d="M19.802 28.38c-2.29 0-4.443-.892-6.062-2.511-3.342-3.343-3.342-8.782 0-12.125 3.343-3.342 8.783-3.342 12.125 0 1.62 1.62 2.511 3.772 2.511 6.063 0 2.29-.892 4.443-2.511 6.062-1.62 1.62-3.772 2.511-6.063 2.511zm-2.594-5.978c.693.693 1.615 1.075 2.595 1.075.98 0 1.902-.382 2.595-1.075.693-.693 1.075-1.615 1.075-2.595 0-.98-.382-1.902-1.075-2.595-1.43-1.43-3.759-1.43-5.19 0-1.43 1.43-1.43 3.76 0 5.19zM38.445 22.926c-.577-.063-.99-.582-.928-1.153.063-.577.582-.991 1.159-.928.576.062.99.577.928 1.153v.005c-.063.535-.514.929-1.043.929-.037 0-.074 0-.116-.006zM37.512 17.778c-.063-.571.345-1.095.923-1.158.576-.068 1.095.346 1.163.922.063.577-.35 1.096-.927 1.159-.037.005-.08.01-.116.01-.53 0-.98-.398-1.043-.933z"/>
        </g>
    </g>
</svg>
