<svg xmlns="http://www.w3.org/2000/svg" viewBox="0 0 277.45 103.65"><path d="M264.53,4.29a12.89,12.89,0,1,0,12.92,12.89A12.89,12.89,0,0,0,264.53,4.29Zm0,20.75a7.86,7.86,0,1,1,7.86-7.86h0A7.85,7.85,0,0,1,264.55,25Z"/><path d="M243.34,76H218l3.26-2.51C237.59,60.86,247.5,51.9,247.5,33.78v-.26C247.49,13.47,232.67,0,210.63,0c-16.74,0-26.58,6.53-35.06,16.73h-148L0,92.87H170v10.78h78.47V76Zm-.26,22.5H174.77V82.43L205.5,57.28c11.47-9.48,16-14.49,16-22.13s-5.15-12-12.4-12-12,4-18.86,12.38L176,24.09C185.05,11.71,193.89,5,210.38,5c19.12,0,31.78,11.2,31.78,28.45v.27c0,15.4-7.91,23-24.27,35.69L202.86,81h40.22Z"/><path d="M41.36,56.51v-16h3.11v15.8c0,5.94,3.15,9.28,8.42,9.28,5.08,0,8.3-3.07,8.3-9.08v-16h3.12V56.27c0,8-4.61,12.19-11.49,12.19S41.36,64.29,41.36,56.51" fill="#00c463"/><polygon points="71.66 40.51 74.57 40.51 91.93 62.56 91.93 40.51 94.96 40.51 94.96 68.02 92.48 68.02 74.69 45.46 74.69 68.02 71.66 68.02 71.66 40.51" fill="#00c463"/><path d="M112.31,65.15c7,0,11.41-4.71,11.41-10.8v-.08c0-6.09-4.45-10.89-11.41-10.89h-6.45V65.15Zm-9.56-24.64h9.56C121,40.51,127,46.45,127,54.19v.08C127,62,121,68,112.31,68h-9.56Z" fill="#00c463"/><polygon points="133.52 40.51 153.43 40.51 153.43 43.34 136.63 43.34 136.63 52.73 151.66 52.73 151.66 55.56 136.63 55.56 136.63 65.19 153.63 65.19 153.63 68.02 133.52 68.02 133.52 40.51" fill="#00c463"/><path d="M171.45,54.54c4.13,0,7.08-2.12,7.08-5.66v-.07c0-3.39-2.6-5.43-7-5.43H163V54.54Zm-11.57-14h11.84c3.39,0,6.1,1,7.83,2.75a7.59,7.59,0,0,1,2.13,5.42v.08c0,4.56-3.15,7.23-7.48,8L182.67,68h-3.82l-8-10.69H163V68h-3.11Z" fill="#00c463"/></svg>