<svg id="Climate_group_-_Logo_-_Black" data-name="Climate group - Logo - Black" xmlns="http://www.w3.org/2000/svg" viewBox="0 0 688.35 121.81"><path d="M0,2H37.36c19.78,0,33.9,10.67,33.9,30.61V37.2c0,16.17-9.26,25.74-22.76,29.2l26.06,53.37H48.66L22.6,61.85v57.92H0ZM22.6,21.66V53.21H34.85c8.47,0,13.81-4.55,13.81-15.54v-2c0-10.2-5.34-14-13.81-14Z"/><path d="M80.87,80.84v-40C80.87,13.5,94.84,0,117.76,0s36.89,13.5,36.89,40.81v40c0,27.47-14,41-36.89,41S80.87,108.31,80.87,80.84Zm51,.47V40.5c0-15.39-5.34-20.41-14.13-20.41-8.63,0-14.13,5-14.13,20.41V81.31c0,15.38,5.34,20.4,14.13,20.4S131.89,96.69,131.89,81.31Z"/><path d="M189.54,2V83.19c0,13.82,5,18.52,13.35,18.52s13.34-4.7,13.34-18.52V2H239V82.88c0,26.06-13.66,38.93-36.1,38.93s-36.11-12.87-36.11-38.93V2Z"/><path d="M248.11,2h65V22h-21v97.79H269.3V22H248.11Z"/><path d="M323.56,2h56.35V22H346.16V49.44h30.61v20.1H346.16V99.67h33.75v20.1H323.56Z"/><path d="M454.38,119.77H391.59V95l39.87-73H392.38V2h60.43V26.68l-39.71,73h41.28Z"/><path d="M466.2,2h56.36V22H488.81V49.44h30.61v20.1H488.81V99.67h33.75v20.1H466.2Z"/><path d="M533.7,2h37.36C590.84,2,605,12.71,605,32.65V37.2c0,16.17-9.26,25.74-22.76,29.2l26.06,53.37h-25.9L556.31,61.85v57.92H533.7Zm22.61,19.62V53.21h12.24c8.47,0,13.81-4.55,13.81-15.54v-2c0-10.2-5.34-14-13.81-14Z"/><path d="M614.58,80.84v-40c0-27.31,14-40.81,36.88-40.81s36.89,13.5,36.89,40.81v40c0,27.47-14,41-36.89,41S614.58,108.31,614.58,80.84Zm51,.47V40.5c0-15.39-5.34-20.41-14.13-20.41-8.63,0-14.12,5-14.12,20.41V81.31c0,15.38,5.33,20.4,14.12,20.4S665.59,96.69,665.59,81.31Z"/></svg>