<svg xmlns="http://www.w3.org/2000/svg" viewBox="0 0 162.93 52.64"><polygon points="0 0.88 24.52 0.88 24.52 9.51 9.83 9.51 9.83 21.39 23.15 21.39 23.15 30.07 9.83 30.07 9.83 43.11 24.52 43.11 24.52 51.8 0 51.8 0 0.88"/><path d="M30.14.88h15.5c8.88,0,14.89,5,14.89,14.39v3.06c0,9.71-6,14.93-14.89,14.93H39.91V51.8H30.14Zm9.77,8.49V24.78H45c3.75,0,6-2,6-7.13V16c0-4.82-2.26-6.58-6-6.58Z"/><path d="M76.49.88h9.76V51.8h-9.9V18.6H67.2V10.87h2c5.19,0,7.31-2.11,7.31-7.34V.88Z"/><path d="M96.17,35.64V17c0-11.34,5.74-17,15.16-17s15.23,5.63,15.23,17V35.64c0,11.4-5.74,17-15.23,17S96.17,47,96.17,35.64Zm20.63.2v-19c0-6-2-8-5.47-8s-5.46,2-5.46,8v19c0,6,2,7.95,5.46,7.95S116.8,41.82,116.8,35.84Z"/><path d="M132.54,35.64V17c0-11.34,5.74-17,15.16-17s15.23,5.63,15.23,17V35.64c0,11.4-5.74,17-15.23,17S132.54,47,132.54,35.64Zm20.62.2v-19c0-6-2-8-5.46-8s-5.46,2-5.46,8v19c0,6,2,7.95,5.46,7.95s5.46-2,5.46-7.95Z"/></svg>