<svg xmlns="http://www.w3.org/2000/svg" viewBox="0 0 161.86 52.45"><polygon points="0 0.88 24.32 0.88 24.32 9.46 9.76 9.46 9.76 21.29 22.97 21.29 22.97 29.94 9.76 29.94 9.76 42.92 24.32 42.92 24.32 51.57 0 51.57 0 0.88"/><polygon points="52.45 51.57 37.41 51.57 28.2 0.88 37.82 0.88 44.93 44.13 52.05 0.88 61.73 0.88 52.45 51.57"/><path d="M76.1.88h9.69V51.57H76v-33H66.89v-7.7h2c5.15,0,7.25-2.1,7.25-7.3V.88Z"/><path d="M95.62,35.48V16.9c0-11.29,5.7-16.9,15-16.9s15.11,5.61,15.11,16.9V35.48c0,11.36-5.7,17-15.11,17S95.62,46.84,95.62,35.48Zm20.47.21V16.76c0-5.94-2-8-5.42-8s-5.42,2-5.42,8V35.69c0,6,2,7.9,5.42,7.9S116.09,41.64,116.09,35.69Z"/><path d="M131.71,35.48V16.9c0-11.29,5.69-16.9,15-16.9s15.11,5.61,15.11,16.9V35.48c0,11.36-5.69,17-15.11,17S131.71,46.84,131.71,35.48Zm20.46.21V16.76c0-5.94-2-8-5.42-8s-5.42,2-5.42,8V35.69c0,6,2,7.9,5.42,7.9S152.17,41.64,152.17,35.69Z"/></svg>