<svg xmlns="http://www.w3.org/2000/svg" viewBox="0 0 470 70.08"><polyline points="350.92 13.08 343.77 49.93 337.15 13.08 325.31 13.08 318.82 49.74 311.34 13.08 301 13.08 313.17 69.08 323.42 69.08 331.15 27.77 338.25 69.08 348.03 69.08 360 13.08 350.92 13.08" fill-rule="evenodd"/><polyline points="454.83 35.22 468.73 13.08 458.46 13.08 444.58 34.93 444.58 13.08 434 13.08 434 69.08 444.58 69.08 444.58 49.32 447.94 44.17 459.03 69.08 470 69.08 454.83 35.22" fill-rule="evenodd"/><polyline points="365 13.08 392 13.08 392 22.56 375.83 22.56 375.83 35.63 390.5 35.63 390.5 45.19 375.83 45.19 375.83 59.52 392 59.52 392 69.08 365 69.08 365 13.08" fill-rule="evenodd"/><polyline points="400 13.08 427 13.08 427 22.56 410.83 22.56 410.83 35.63 425.5 35.63 425.5 45.19 410.83 45.19 410.83 59.52 427 59.52 427 69.08 400 69.08 400 13.08" fill-rule="evenodd"/><path d="M12.5,6A6.5,6.5,0,1,0,19,12.5,6.5,6.5,0,0,0,12.5,6Zm0,19A12.5,12.5,0,1,1,25,12.5,12.5,12.5,0,0,1,12.5,25Z" fill="#ff2d19" fill-rule="evenodd"/><path d="M66,46.31v4.26c0,13-6.63,19.51-17.5,19.51S31,63.58,31,50.57V31.51c0-13,6.63-19.43,17.5-19.43S66,18.51,66,31.51V35.1H55.2V31.36c0-7.32-2.53-9.72-6.7-9.72s-6.7,2.4-6.7,9.72V50.79c0,7.33,2.53,9.72,6.7,9.72s6.7-2.39,6.7-9.72V46.31H66" fill-rule="evenodd"/><polyline points="100 69.08 72 69.08 72 13.08 83.15 13.08 83.15 59.52 100 59.52 100 69.08" fill-rule="evenodd"/><polygon points="105 69.08 116 69.08 116 13.08 105 13.08 105 69.08" fill-rule="evenodd"/><polyline points="161.98 20.47 153.14 69.08 141.34 69.08 132.5 20.1 132.5 69.08 123 69.08 123 13.08 140.37 13.08 147.5 55.79 154.41 13.08 172 13.08 172 69.08 161.98 69.08 161.98 20.47" fill-rule="evenodd"/><path d="M201,48l-4.5-27L192,48ZM188.16,13h16.6L215,69H204.31l-1.87-11.42h-12L188.61,69H178Z" fill-rule="evenodd"/><polyline points="213 13.08 245 13.08 245 22.56 234.64 22.56 234.64 69.08 223.44 69.08 223.44 22.56 213 22.56 213 13.08" fill-rule="evenodd"/><polyline points="250 13.08 277 13.08 277 22.56 260.83 22.56 260.83 35.63 275.5 35.63 275.5 45.19 260.83 45.19 260.83 59.52 277 59.52 277 69.08 250 69.08 250 13.08" fill-rule="evenodd"/></svg>
