<svg xmlns="http://www.w3.org/2000/svg" viewBox="0 0 16 16"><path d="M14,16H2a2,2,0,0,1-2-2V2A2,2,0,0,1,2,0H14a2,2,0,0,1,2,2V14A2,2,0,0,1,14,16ZM2,14l.84-3.08a6,6,0,1,1,2.31,2.25Zm3.3-1.9a5,5,0,1,0-1.36-1.34l-.5,1.83ZM11,9.36c0-.06-.13-.09-.28-.17l-1-.48c-.12-.05-.23-.08-.33.07s-.39.49-.47.58a.24.24,0,0,1-.33,0h0A4,4,0,0,1,7.4,8.62a4.7,4.7,0,0,1-.83-1c-.08-.14,0-.22.07-.3a2.75,2.75,0,0,0,.22-.26A.72.72,0,0,0,7,6.82a.3.3,0,0,0,0-.26c0-.07-.34-.8-.46-1.1s-.24-.25-.33-.26H5.89a.56.56,0,0,0-.4.19A1.66,1.66,0,0,0,5,6.63a2.86,2.86,0,0,0,.61,1.53,6.8,6.8,0,0,0,2.54,2.25,8.64,8.64,0,0,0,.85.31,2.09,2.09,0,0,0,.93.06,1.52,1.52,0,0,0,1-.71A1.23,1.23,0,0,0,11,9.36Z" fill="#fff" fill-rule="evenodd"/></svg>
