<svg xmlns="http://www.w3.org/2000/svg" viewBox="0 0 1090.84 127.48"><path d="M424.65,5h.87V127h-.87Z" fill="#010101"/><path d="M768.61,5h.87V127h-.87Z" fill="#010101"/><path d="M0,9.4H36.83c19.5,0,33.43,10.53,33.43,30.18v4.49c0,15.94-9.13,25.38-22.44,28.78l25.69,52.62H48L22.28,68.34v57.11H0ZM22.28,28.75v31.1H34.36C42.71,59.85,48,55.37,48,44.53v-2c0-10.06-5.26-13.77-13.61-13.77Z" fill="#010101"/><path d="M83.63,9.4h55.56V29.06H105.9V56.14h30.18V76H105.9v29.71h33.28v19.81H83.63Z" fill="#010101"/><path d="M174,9.4h22.13V125.47H173.71V49.79H153V32.15h4.49c11.76,0,16.56-4.79,16.56-16.71Z" fill="#010101"/><path d="M217.43,88.64V46.08c0-25.84,13-38.69,34.35-38.69,21.51,0,34.51,12.85,34.51,38.69V88.64c0,26-13,38.84-34.51,38.84C230.43,127.48,217.43,114.64,217.43,88.64Zm46.73.46V45.77c0-13.62-4.64-18.26-12.38-18.26-7.58,0-12.38,4.64-12.38,18.26V89.1c0,13.62,4.65,18.11,12.38,18.11S264.16,102.72,264.16,89.1Z" fill="#010101"/><path d="M298.58,88.64V46.08c0-25.84,13-38.69,34.35-38.69,21.52,0,34.51,12.85,34.51,38.69V88.64c0,26-13,38.84-34.51,38.84C311.58,127.48,298.58,114.64,298.58,88.64Zm46.73.46V45.77c0-13.62-4.64-18.26-12.38-18.26-7.58,0-12.38,4.64-12.38,18.26V89.1c0,13.62,4.65,18.11,12.38,18.11S345.31,102.72,345.31,89.1Z" fill="#010101"/><path d="M983.9,111.56V65.79h-4V54.62c.31,0,.61-.09.91-.09,9,0,18.09-.15,27.13.06,8.07.19,15.26,2.92,21,8.79,6.08,6.25,8.37,13.87,7.62,22.45-1.21,13.81-11.83,23.94-25.93,25.46a57.11,57.11,0,0,1-5.85.25H985.52Zm12.63-11.29c4,0,7.89.2,11.75,0A15.8,15.8,0,0,0,1022.74,89a21.08,21.08,0,0,0,.82-7.41,16.12,16.12,0,0,0-12.4-15.28,20.43,20.43,0,0,0-4.41-.58c-3.39-.09-6.79,0-10.25,0Z" fill="#010101"/><path d="M1045.6,65.73h-4.12V54.61a8.44,8.44,0,0,1,1-.09h27.6a22.46,22.46,0,0,1,12.56,3.6c6,4,8.32,9.74,8.2,16.67-.2,11.58-8.17,17.63-17.23,19-4.15.62-8.42.41-12.64.57h-2.85v17.08H1045.6ZM1058,66V82.27c0,.49-.13,1.09.68,1.07,4-.08,7.93.13,11.84-.29a8.2,8.2,0,0,0,7.56-8.65c0-4.75-2.74-8-7.7-8.39-4-.34-8.11-.06-12.38-.06Z" fill="#010101"/><path d="M967.9,71.34c-1.44-1.08-2.73-2.15-4.13-3.07a17.92,17.92,0,0,0-15.11-2.66,17.13,17.13,0,0,0-12.09,15.3,21,21,0,0,0,1.5,10c4.57,10.41,15.43,12.17,23.53,8.25A23.39,23.39,0,0,0,965.07,97c1.08-.77,2.08-1.66,3-2.43l8,7.85c-.28.3-.55.61-.84.91-6.69,7-15,9.82-24.53,9.11-11.72-.88-20.26-6.62-24.94-17.42-5.92-13.68-1.12-31.17,13.71-38.43,5.88-2.89,12.1-3.48,18.52-2.8a28.48,28.48,0,0,1,16.62,7.43l1.14,1C973.11,65.34,970.5,68.34,967.9,71.34Z" fill="#010101"/><path d="M850.24,39.13v65.79q-18.66-18.69-37.3-37.39h37.18L822,39.39l.21-.26Z" fill="#010101"/><path d="M897.75,114.6l-46.9-47h46.9Z" fill="#010101"/><path d="M851.05,20.12h46.71V66.91Z" fill="#010101"/><path d="M916.84,86c-6.2-6.2-12.29-12.31-18.37-18.4h18.37Z" fill="#010101"/><path d="M527.69,38.84v3.62c0,11-5.65,16.58-14.92,16.58S497.9,53.51,497.9,42.46V26.27c0-11,5.65-16.51,14.92-16.51s14.92,5.46,14.92,16.51v3h-9.21V26.14c0-6.22-2.16-8.25-5.71-8.25s-5.72,2-5.72,8.25V42.65c0,6.23,2.16,8.26,5.72,8.26s5.71-2,5.71-8.26V38.84Z" fill="#010101"/><path d="M556.18,58.21H533.07V10.58h9.21v39.5h13.9Z" fill="#010101"/><path d="M560.42,58.21V10.58h9.2V58.21Z" fill="#010101"/><path d="M609,16.87l-7.55,41.34h-10.1l-7.56-41.66V58.21h-8.12V10.58h14.86l6.09,36.33,5.91-36.33h15V58.21H609Z" fill="#010101"/><path d="M630.42,10.58h14.1l8.7,47.63h-9.08l-1.59-9.72H632.39l-1.59,9.72h-9Zm10.8,30-3.75-23-3.75,23Z" fill="#010101"/><path d="M652.07,10.58h26.29v8.07H669.9V58.21h-9.21V18.65h-8.57Z" fill="#010101"/><path d="M682.59,10.58h22.8v8.07H691.74V29.76h12.38v8.13H691.74V50.08h13.65v8.13h-22.8Z" fill="#010101"/><path d="M482.67,21.16a10.58,10.58,0,1,1,10.57-10.59h0A10.6,10.6,0,0,1,482.67,21.16Zm0-16.19a5.62,5.62,0,1,0,5.61,5.63h0A5.63,5.63,0,0,0,482.67,5Z" fill="#010101"/><path d="M527.69,93.52v25.41h-7.37v-5a9.88,9.88,0,0,1-9.46,5.78c-8.06,0-13-5.52-13-16.57V86.94c0-11,5.65-16.51,14.92-16.51s14.92,5.46,14.92,16.51V89.1h-9.21V86.82c0-6.23-2.16-8.26-5.71-8.26s-5.72,2-5.72,8.26v16.52c0,6.22,2.16,8.25,5.72,8.25s5.71-2.09,5.71-7.81v-2.54H512V93.49Z" fill="#010101"/><path d="M533.58,71.34H548.7c8,0,13.71,4.32,13.71,12.38v1.84c0,6.54-3.74,10.42-9.21,11.81L563.75,119H553.27L542.73,95.53V119h-9.15Zm9.15,7.94V92h4.95c3.43,0,5.59-1.84,5.59-6.29v-.82c0-4.13-2.16-5.65-5.59-5.65Z" fill="#010101"/><path d="M566.81,103.18V87c0-11,5.65-16.51,14.93-16.51S596.66,75.93,596.66,87v16.2c0,11.11-5.65,16.57-14.92,16.57S566.81,114.34,566.81,103.18Zm20.64.19V86.86c0-6.23-2.16-8.26-5.71-8.26s-5.72,2-5.72,8.26v16.48c0,6.22,2.16,8.25,5.72,8.25s5.71-2,5.71-8.25Z" fill="#010101"/><path d="M610.9,71.34v32.83c0,5.59,2,7.49,5.4,7.49s5.4-1.9,5.4-7.49V71.34h9.2V104c0,10.54-5.53,15.75-14.61,15.75s-14.6-5.21-14.6-15.75V71.34Z" fill="#010101"/><path d="M636.75,71.34h14.41C659.42,71.34,665,76,665,84.8v2.86c0,9.08-5.58,14-13.84,14h-5.33V119h-9.08Zm9.08,7.94V93.69h4.76c3.49,0,5.59-1.9,5.59-6.67V85.44c0-4.51-2.1-6.16-5.59-6.16Z" fill="#010101"/></svg>
