<svg xmlns="http://www.w3.org/2000/svg" viewBox="0 0 19.94 19.98"><path d="M17.45,0a2.51,2.51,0,0,1,2.49,2.49v15A2.51,2.51,0,0,1,17.45,20h-15A2.5,2.5,0,0,1,0,17.45v-15A2.5,2.5,0,0,1,2.49,0ZM12.37,4.9A2.56,2.56,0,0,0,9.81,7.46,2.48,2.48,0,0,0,9.87,8,7.22,7.22,0,0,1,4.61,5.37,2.56,2.56,0,0,0,5.4,8.79a2.76,2.76,0,0,1-1.16-.32h0A2.55,2.55,0,0,0,6.29,11a2.63,2.63,0,0,1-1.15.05,2.57,2.57,0,0,0,2.39,1.77,5.18,5.18,0,0,1-3.18,1.1H3.74A7.28,7.28,0,0,0,14.93,7.76V7.43A5.14,5.14,0,0,0,16.2,6.11a5.34,5.34,0,0,1-1.47.4,2.57,2.57,0,0,0,1.13-1.42,5,5,0,0,1-1.63.62A2.52,2.52,0,0,0,12.37,4.9Z" fill="#fff" fill-rule="evenodd"/></svg>
