<svg viewBox="0 0 454.13 50.78" xmlns="http://www.w3.org/2000/svg"><path d="m257.5 9.11-5.24 26.97-4.85-26.97h-8.67l-4.76 26.83-5.47-26.83h-7.58l8.92 40.98h7.51l5.66-30.23 5.2 30.23h7.16l8.77-40.98z"/><path d="m334.16 25.35 10.3-16.16h-7.61l-10.29 15.95v-15.95h-7.85v40.89h7.85v-14.43l2.49-3.76 8.22 18.19h8.14z"/><path d="m267.94 9.14h19.63v6.94h-11.76v9.57h10.67v7h-10.67v10.5h11.76v7h-19.63z"/><path d="m293 9.14h19.63v6.94h-11.75v9.57h10.66v7h-10.66v10.5h11.76v7h-19.64z"/><path d="m9.1 18.2a9.1 9.1 0 1 1 9.1-9.1 9.09 9.09 0 0 1 -9.1 9.1zm0-13.92a4.83 4.83 0 1 0 4.83 4.83 4.82 4.82 0 0 0 -4.82-4.83z" fill="#ff001e"/><path d="m47.83 33.41v3.11c0 9.48-4.83 14.26-12.83 14.26s-12.84-4.78-12.84-14.26v-13.92c0-9.51 4.84-14.21 12.84-14.21s12.84 4.7 12.84 14.21v2.62h-7.93v-2.73c0-5.36-1.86-7.1-4.92-7.1s-4.91 1.74-4.91 7.1v14.2c0 5.35 1.86 7.1 4.91 7.1s4.92-1.78 4.92-7.1v-3.28z"/><path d="m72.33 50.07h-19.88v-41h7.92v34h12z"/><path d="m76 50.07v-41h7.91v41z"/><path d="m117.73 14.51-6.5 35.56h-8.68l-6.55-35.83v35.83h-7v-41h12.78l5.22 31.25 5.08-31.25h12.94v41h-7.37z"/><path d="m136.18 9.1h12.13l7.48 41h-7.79l-1.36-8.36h-8.74l-1.37 8.36h-7.75zm9.29 25.78-3.22-19.77-3.25 19.77z"/><path d="m154.8 9.1h22.61v6.9h-7.32v34h-7.92v-34h-7.37z"/><path d="m181 9.1h19.61v6.9h-11.7v9.56h10.65v7h-10.64v10.52h11.74v7h-19.66z"/><path d="m366.71 50.04v-40.9h8.47l10.77 24.25h.12v-24.25h7.07v40.9h-7.41l-11.84-26.4h-.11v26.4z"/><path d="m412.53 25.62 6.57-16.48h8.25l-11.05 24.36v16.54h-7.75v-16.54l-11.05-24.36h8.25z"/><path d="m454.13 33.3v3c0 9.17-4.69 13.76-12.39 13.76s-12.39-4.59-12.39-13.76v-13.44c0-9.17 4.69-13.7 12.39-13.7s12.39 4.53 12.39 13.7v2.53h-7.65v-2.63c0-5.17-1.79-6.86-4.74-6.86s-4.74 1.69-4.74 6.86v13.71c0 5.16 1.8 6.85 4.75 6.85s4.74-1.69 4.74-6.85v-3.17z"/></svg>