<svg xmlns="http://www.w3.org/2000/svg" viewBox="0 0 256.18 47.91"><defs><style>.cls-1{fill:#fff;}</style></defs><g id="Layer_2" data-name="Layer 2"><g id="Layer_1-2" data-name="Layer 1"><path class="cls-1" d="M13,0c7,0,12.59,4,12.59,12.35v3.27H17V12.53C17,9.14,15.5,7.6,13,7.6,10.74,7.6,9.14,9,9.14,11.67c0,3.09,1.85,4.69,4.69,6.79l5.31,3.89c3.95,3,7.1,6.67,7.1,12.66,0,8.58-5.93,12.9-13.15,12.9S0,43.47,0,35.5V31.68H8.64v3.39c0,3.27,1.8,5.25,4.45,5.25s4.45-1.61,4.45-4.26c0-3.34-2-5.19-4.94-7.41L7.53,24.88c-4.07-3-7-6.6-7-12.78C.49,3.46,6.11,0,13,0"/><polygon class="cls-1" points="29.03 0.8 54.59 0.8 54.59 8.64 46.32 8.64 46.32 47.11 37.37 47.11 37.37 8.64 29.03 8.64 29.03 0.8"/><polygon class="cls-1" points="58.77 0.8 80.94 0.8 80.94 8.64 67.67 8.64 67.67 19.45 79.7 19.45 79.7 27.35 67.67 27.35 67.67 39.21 80.94 39.21 80.94 47.11 58.77 47.11 58.77 0.8"/><polygon class="cls-1" points="85.78 0.8 107.95 0.8 107.95 8.64 94.67 8.64 94.67 19.45 106.71 19.45 106.71 27.35 94.67 27.35 94.67 39.21 107.95 39.21 107.95 47.11 85.78 47.11 85.78 0.8"/><polygon class="cls-1" points="135.26 47.11 112.79 47.11 112.79 0.8 121.74 0.8 121.74 39.21 135.26 39.21 135.26 47.11"/><polygon class="cls-1" points="163.17 47.11 138.47 47.11 138.47 37.35 154.16 8.64 138.78 8.64 138.78 0.8 162.55 0.8 162.55 10.5 146.93 39.21 163.17 39.21 163.17 47.11"/><polygon class="cls-1" points="167.49 0.8 189.66 0.8 189.66 8.64 176.38 8.64 176.38 19.45 188.42 19.45 188.42 27.35 176.38 27.35 176.38 39.21 189.66 39.21 189.66 47.11 167.49 47.11 167.49 0.8"/><path class="cls-1" d="M194.5.8h14.7c7.78,0,13.33,4.2,13.33,12v1.79c0,6.36-3.64,10.13-8.95,11.49l10.25,21H213.64L203.39,24.33V47.11H194.5Zm8.89,7.72V20.93h4.82c3.33,0,5.43-1.79,5.43-6.11V14c0-4-2.1-5.5-5.43-5.5Z"/><path class="cls-1" d="M227.16,31.8V16.05c0-10.74,5.5-16,14.51-16s14.51,5.31,14.51,16.05V31.8c0,10.8-5.49,16.11-14.51,16.11S227.16,42.6,227.16,31.8m20.07.18v-16c0-6-2.1-8-5.56-8s-5.55,2-5.55,8V32c0,6.06,2.09,8,5.55,8s5.56-2,5.56-8"/></g></g></svg>