<svg xmlns="http://www.w3.org/2000/svg" viewBox="0 0 636.74 238.19"><defs><style>.cls-1{fill:#fff;}</style></defs><g id="Layer_2" data-name="Layer 2"><g id="Climate_group_-_Logo_-_Black" data-name="Climate group - Logo - Black"><path class="cls-1" d="M607.1,9.83a29.64,29.64,0,1,0,29.64,29.63A29.64,29.64,0,0,0,607.1,9.83Zm0,47.69a18.06,18.06,0,1,1,18.05-18.06A18.06,18.06,0,0,1,607.14,57.52Z"/><path class="cls-1" d="M257.75,99.69H242.94v50h14.81c16,0,26.19-10.83,26.19-24.83v-.18C283.94,110.7,273.73,99.69,257.75,99.69Zm0,0H242.94v50h14.81c16,0,26.19-10.83,26.19-24.83v-.18C283.94,110.7,273.73,99.69,257.75,99.69Zm242.54,74.95,7.48-5.77c37.47-29,60.22-49.63,60.22-91.24V77C568,31,534,0,483.4,0c-38.41,0-61,15-80.47,38.45H63.32L0,213.43H390v24.76H570.11V174.64ZM147.59,129.3c0,18.42-10.57,28-26.38,28-15.62,0-26.27-9.58-26.27-27.45V93.09h7.13v36.3c0,13.64,7.23,21.31,19.33,21.31,11.65,0,19-7,19-20.85V93.09h7.14Zm70.34,27h-5.69l-40.82-51.84v51.84h-6.95V93.09h6.68L211,143.75V93.09h7v63.22Zm73.42-31.61c0,17.79-13.73,31.61-33.6,31.61H235.81V93.09h21.94c19.87,0,33.6,13.64,33.6,31.43Zm61.22,31.61H306.42V93.09h45.7v6.5H313.56v21.59h34.5v6.5h-34.5V149.8h39Zm21.49-24.56v24.56h-7.13V93.09h27.18c7.77,0,14,2.35,18,6.32A17.48,17.48,0,0,1,417,111.88v.18c0,10.47-7.22,16.61-17.16,18.42l19.41,25.83h-8.75l-18.34-24.56Zm183.82,94.6H401.09V189.43l70.52-57.82c26.34-21.79,36.63-33.29,36.63-50.85,0-17.85-11.81-27.54-28.45-27.54-16.35,0-27.55,9.08-43.29,28.45L403.81,55.34c20.89-28.46,41.17-43.9,79-43.9,43.88,0,72.94,25.74,72.94,65.39v.61c0,35.41-18.16,53-55.69,82L465.56,186.1h92.32v40.25Zm-148.14-114v-.18c0-7.77-6-12.46-16.17-12.46H374.06v25.64h19.42C403,125.33,409.74,120.45,409.74,112.33Zm-152-12.64H242.94v50h14.81c16,0,26.19-10.83,26.19-24.83v-.18C283.94,110.7,273.73,99.69,257.75,99.69Zm0,0H242.94v50h14.81c16,0,26.19-10.83,26.19-24.83v-.18C283.94,110.7,273.73,99.69,257.75,99.69Zm0,0H242.94v50h14.81c16,0,26.19-10.83,26.19-24.83v-.18C283.94,110.7,273.73,99.69,257.75,99.69Z"/></g></g></svg>