<svg xmlns="http://www.w3.org/2000/svg" viewBox="0 0 186 197.44"><defs><style>.a{fill:#fff;}.b{fill:#ff2d19;}</style></defs><path class="a" d="M186,129.89V142c0,37-18.9,55.44-49.91,55.44S86.14,179,86.14,142V87.84c0-37,18.9-55.22,49.91-55.22S186,50.89,186,87.84V98H155.2V87.42c0-20.81-7.22-27.61-19.12-27.61-11.68,0-19.12,6.8-19.12,27.61v55.22c0,20.81,7.22,27.61,19.12,27.61s19.12-6.8,19.12-27.61V129.89Z"/><path class="b" d="M35.37,70.74A35.37,35.37,0,1,1,70.74,35.37h0A35.4,35.4,0,0,1,35.37,70.74Zm0-54.14A18.77,18.77,0,1,0,54.14,35.37h0A18.79,18.79,0,0,0,35.37,16.6Z"/></svg>