<svg enable-background="new 0 0 1090.8 127.5" viewBox="0 0 1090.8 127.5" xmlns="http://www.w3.org/2000/svg"><path d="m424.6 5h.9v122h-.9z" fill="#fff"/><path d="m768.6 5h.9v122h-.9z" fill="#fff"/><path d="m0 9.4h36.8c19.5 0 33.4 10.5 33.4 30.2v4.5c0 15.9-9.1 25.4-22.4 28.8l25.7 52.6h-25.5l-25.7-57.1v57.1h-22.3zm22.3 19.3v31.1h12.1c8.3 0 13.6-4.5 13.6-15.3v-2c0-10.1-5.3-13.8-13.6-13.8z" fill="#70cb5d"/><path d="m83.6 9.4h55.6v19.6h-33.3v27.1h30.2v19.8h-30.2v29.7h33.3v19.8h-55.6z" fill="#70cb5d"/><path d="m174 9.4h22.1v116.1h-22.4v-75.7h-20.7v-17.7h4.5c11.8 0 16.6-4.8 16.6-16.7z" fill="#70cb5d"/><path d="m217.4 88.6v-42.5c0-25.8 13-38.7 34.4-38.7 21.5 0 34.5 12.9 34.5 38.7v42.6c0 26-13 38.8-34.5 38.8-21.4 0-34.4-12.9-34.4-38.9zm46.8.5v-43.3c0-13.6-4.6-18.3-12.4-18.3-7.6 0-12.4 4.6-12.4 18.3v43.3c0 13.6 4.6 18.1 12.4 18.1s12.4-4.5 12.4-18.1z" fill="#70cb5d"/><path d="m298.6 88.6v-42.5c0-25.8 13-38.7 34.4-38.7 21.5 0 34.5 12.9 34.5 38.7v42.6c0 26-13 38.8-34.5 38.8-21.4 0-34.4-12.9-34.4-38.9zm46.7.5v-43.3c0-13.6-4.6-18.3-12.4-18.3-7.6 0-12.4 4.6-12.4 18.3v43.3c0 13.6 4.6 18.1 12.4 18.1s12.4-4.5 12.4-18.1z" fill="#70cb5d"/><g fill="#fff"><path d="m983.9 111.6v-45.8h-4v-11.2c.3 0 .6-.1.9-.1 9 0 18.1-.2 27.1.1 8.1.2 15.3 2.9 21 8.8 6.1 6.2 8.4 13.9 7.6 22.5-1.2 13.8-11.8 23.9-25.9 25.5-1.9.2-3.9.3-5.8.2-6.4 0-12.8 0-19.3 0zm12.6-11.3c4 0 7.9.2 11.8-.1 6.7-.3 12.5-4.8 14.5-11.2.7-2.4 1-4.9.8-7.4-.2-7.3-5.3-13.6-12.4-15.3-1.4-.3-2.9-.5-4.4-.6-3.4-.1-6.8 0-10.2 0z"/><path d="m1045.6 65.7h-4.1v-11.1c.3 0 .7-.1 1-.1h27.6c4.4-.1 8.8 1.2 12.6 3.6 6 4 8.3 9.7 8.2 16.7-.2 11.6-8.2 17.6-17.2 19-4.2.6-8.4.4-12.6.6-.9 0-1.8 0-2.8 0v17.1h-12.5v-45.8zm12.4.3v5.3 11c0 .5-.1 1.1.7 1.1 4-.1 7.9.1 11.8-.3 4.5-.3 7.8-4.2 7.6-8.7 0-4.8-2.7-8-7.7-8.4-4-.3-8.1 0-12.4 0z"/><path d="m967.9 71.4c-1.4-1.1-2.7-2.2-4.1-3.1-4.4-3.1-9.9-4.1-15.1-2.7-6.8 2.1-11.6 8.2-12.1 15.3-.3 3.4.2 6.8 1.5 10 4.6 10.4 15.4 12.2 23.5 8.2 1.2-.6 2.4-1.4 3.4-2.2 1.1-.8 2.1-1.7 3-2.4l8 7.8c-.3.3-.5.6-.8.9-6.7 7-15 9.8-24.5 9.1-11.7-.9-20.3-6.6-24.9-17.4-5.9-13.7-1.1-31.2 13.7-38.4 5.9-2.9 12.1-3.5 18.5-2.8 6.2.6 12 3.2 16.6 7.4l1.1 1z"/><path d="m850.2 39.1v65.8l-37.3-37.4h37.2l-28.1-28.1.2-.3z"/><path d="m897.8 114.6-46.9-47h46.9z"/><path d="m851 20.1h46.7v46.8z"/><path d="m916.8 86c-6.2-6.2-12.3-12.3-18.4-18.4h18.4z"/><path d="m527.7 38.8v3.6c0 11-5.7 16.6-14.9 16.6s-14.9-5.5-14.9-16.6v-16.1c0-11 5.7-16.5 14.9-16.5 9.3 0 14.9 5.5 14.9 16.5v3h-9.2v-3.1c0-6.2-2.2-8.2-5.7-8.2s-5.7 2-5.7 8.2v16.5c0 6.2 2.2 8.3 5.7 8.3s5.7-2 5.7-8.3v-3.8h9.2z"/><path d="m556.2 58.2h-23.1v-47.6h9.2v39.5h13.9z"/><path d="m560.4 58.2v-47.6h9.2v47.6z"/><path d="m609 16.9-7.6 41.3h-10.1l-7.6-41.7v41.7h-8.1v-47.6h14.9l6.1 36.3 5.9-36.3h15v47.6h-8.5z"/><path d="m630.4 10.6h14.1l8.7 47.6h-9.1l-1.6-9.7h-10.2l-1.6 9.7h-9zm10.8 30-3.8-23-3.8 23z"/><path d="m652.1 10.6h26.3v8.1h-8.5v39.6h-9.2v-39.7h-8.6z"/><path d="m682.6 10.6h22.8v8.1h-13.7v11.1h12.4v8.1h-12.4v12.2h13.7v8.1h-22.8z"/></g><path d="m482.7 21.1c-5.8 0-10.6-4.7-10.6-10.6s4.7-10.5 10.6-10.5 10.6 4.7 10.6 10.6c-.1 5.8-4.8 10.5-10.6 10.5zm0-16.1c-3.1 0-5.6 2.5-5.6 5.6s2.5 5.6 5.6 5.6 5.6-2.5 5.6-5.6c0-3.1-2.5-5.6-5.6-5.6z" fill="#fc341e"/><path d="m527.7 93.5v25.4h-7.4v-5c-1.7 3.7-5.4 6-9.5 5.8-8.1 0-13-5.5-13-16.6v-16.1c0-11 5.7-16.5 14.9-16.5s14.9 5.4 14.9 16.5v2.2h-9.2v-2.3c0-6.2-2.2-8.3-5.7-8.3s-5.7 2-5.7 8.3v16.5c0 6.2 2.2 8.2 5.7 8.2s5.7-2.1 5.7-7.8v-2.5h-6.4v-7.7h15.7z" fill="#fff"/><path d="m533.6 71.3h15.1c8 0 13.7 4.3 13.7 12.4v1.8c0 6.6-3.7 10.4-9.2 11.8l10.5 21.6h-10.5l-10.5-23.4v23.4h-9.2zm9.1 7.9v12.8h5c3.4 0 5.6-1.8 5.6-6.3v-.8c0-4.1-2.2-5.7-5.6-5.7z" fill="#fff"/><path d="m566.8 103.2v-16.2c0-11 5.7-16.5 14.9-16.5s14.9 5.4 14.9 16.5v16.2c0 11.1-5.7 16.6-14.9 16.6s-14.9-5.5-14.9-16.6zm20.7.2v-16.6c0-6.2-2.2-8.3-5.7-8.3s-5.7 2-5.7 8.3v16.5c0 6.2 2.2 8.2 5.7 8.2s5.7-1.9 5.7-8.1z" fill="#fff"/><path d="m610.9 71.3v32.8c0 5.6 2 7.5 5.4 7.5s5.4-1.9 5.4-7.5v-32.8h9.2v32.7c0 10.5-5.5 15.8-14.6 15.8s-14.6-5.2-14.6-15.8v-32.7z" fill="#fff"/><path d="m636.8 71.3h14.4c8.3 0 13.8 4.6 13.8 13.5v2.9c0 9.1-5.6 14-13.8 14h-5.3v17.3h-9.1zm9 7.9v14.4h4.8c3.5 0 5.6-1.9 5.6-6.7v-1.6c0-4.5-2.1-6.2-5.6-6.2z" fill="#fff"/></svg>