<svg xmlns="http://www.w3.org/2000/svg" viewBox="0 0 806.98 113.88"><defs><style>.a{fill:#fff;}.b{fill:#ff2d19;}</style></defs><path class="a" d="M107.2,74.88v7c0,21.3-10.9,32-28.77,32s-28.77-10.72-28.77-32V50.64c0-21.3,10.9-31.83,28.77-31.83S107.2,29.34,107.2,50.64v5.88H89.45V50.4c0-12-4.16-15.92-11-15.92s-11,3.92-11,15.92V82.23c0,12,4.16,15.92,11,15.92s11-3.92,11-15.92V74.88Z"/><path class="a" d="M162.13,112.22H117.56V20.39h17.75V96.54h26.81v15.68Z"/><path class="a" d="M170.3,112.22V20.39h17.75v91.83Z"/><path class="a" d="M263.9,32.51l-14.57,79.7H229.86L215.29,31.89v80.32H199.62V20.39h28.65l11.75,70,11.39-70h29v91.83H263.9Z"/><path class="a" d="M305.26,20.39h27.18l16.77,91.83H331.7l-3.06-18.73H309.05L306,112.22H288.61Zm20.82,57.79-7.22-44.32-7.22,44.32Z"/><path class="a" d="M347,20.39h50.69V35.94h-16.4v76.28H363.54V35.94H347Z"/><path class="a" d="M405.85,20.39H449.8V35.94H423.48V57.37h23.87V73H423.48V96.55H449.8v15.67H405.85Z"/><path class="a" d="M542.24,63.25v49H528V102.7c-3.67,7.47-10,11.14-18.24,11.14-15.55,0-25.1-10.65-25.1-31.95V50.64c0-21.3,10.9-31.83,28.77-31.83S542.2,29.34,542.2,50.64V54.8H524.49V50.39c0-12-4.16-15.92-11-15.92s-11,3.92-11,15.92V82.22c0,12,4.16,15.92,11,15.92s11-4,11-15.06v-4.9H512V63.24h30.24Z"/><path class="a" d="M553.6,20.39h29.14c15.43,0,26.45,8.33,26.45,23.87v3.55c0,12.61-7.22,20.08-17.75,22.77l20.32,41.63h-20.2L571.24,67v45.18H553.6ZM571.23,35.7V60.31h9.55c6.61,0,10.77-3.55,10.77-12.12V46.6c0-8-4.16-10.9-10.77-10.9Z"/><path class="a" d="M617.66,81.85V50.63c0-21.3,10.9-31.83,28.77-31.83S675.2,29.33,675.2,50.63V81.85c0,21.43-10.9,32-28.77,32S617.66,103.28,617.66,81.85Zm39.79.37V50.39c0-12-4.16-15.92-11-15.92s-11,3.92-11,15.92V82.22c0,12,4.16,15.92,11,15.92s11-3.92,11-15.92Z"/><path class="a" d="M702.63,20.39v63.3c0,10.77,3.92,14.45,10.41,14.45s10.41-3.67,10.41-14.45V20.39H741.2V83.44c0,20.32-10.65,30.36-28.16,30.36s-28.16-10-28.16-30.36v-63Z"/><path class="a" d="M752.5,20.39h27.79c15.92,0,26.69,8.94,26.69,26V51.9c0,17.51-10.77,26.93-26.69,26.93H770v33.42H752.5ZM770,35.7V63.49h9.18c6.73,0,10.77-3.67,10.77-12.85V47.58c0-8.69-4-11.88-10.77-11.88Z"/><path class="b" d="M20.39,40.78A20.39,20.39,0,1,1,40.78,20.39h0A20.43,20.43,0,0,1,20.39,40.78Zm0-31.21A10.82,10.82,0,1,0,31.21,20.39h0A10.84,10.84,0,0,0,20.39,9.57Z"/></svg>