<svg width="514" height="234" viewBox="0 0 514 234" fill="none" xmlns="http://www.w3.org/2000/svg">
<g clip-path="url(#clip0)">
<path d="M40.7151 70.2001V75.1661C40.7151 90.2895 32.992 97.8136 20.395 97.8136C7.72312 97.8136 0 90.2895 0 75.1661V52.9699C0 37.8464 7.72312 30.3976 20.395 30.3976C33.067 30.3976 40.7901 37.8464 40.7901 52.9699V57.1082H28.1931V52.7442C28.1931 44.2419 25.2689 41.458 20.395 41.458C15.5962 41.458 12.5969 44.2419 12.5969 52.7442V75.3165C12.5969 83.8188 15.5212 86.6027 20.395 86.6027C25.2689 86.6027 28.1931 83.8188 28.1931 75.3165V70.1249H40.7151V70.2001Z" fill="white"/>
<path d="M79.5557 96.685H47.9884V31.4509H60.5853V85.5493H79.5557V96.685Z" fill="white"/>
<path d="M98.0762 31.4509H85.4792V96.685H98.0762V31.4509Z" fill="white"/>
<path d="M151.913 40.1036L141.565 96.685H127.844L117.496 39.6522V96.685H106.399V31.4509H126.719L135.042 81.1853L143.065 31.4509H163.61V96.685H151.913V40.1036Z" fill="white"/>
<path d="M181.381 31.4509H200.651L212.498 96.685H200.126L197.952 83.3673H184.08L181.906 96.685H169.609L181.381 31.4509ZM196.077 72.5326L190.979 41.0818L185.88 72.5326H196.077Z" fill="white"/>
<path d="M210.999 31.4509H246.84V42.5114H235.293V96.685H222.696V42.5114H210.999V31.4509Z" fill="white"/>
<path d="M252.764 31.4509H283.881V42.5114H265.211V57.7101H282.081V68.8458H265.211V85.5493H283.881V96.685H252.764V31.4509Z" fill="white"/>
<path d="M154.687 174.71H137.067L130.768 120.311L124.695 174.71H106.849L98.9759 109.551H110.898L116.222 163.424L122.37 109.551H139.016L145.39 163.198L150.713 109.551H162.71L154.687 174.71Z" fill="white"/>
<path d="M168.259 109.551H199.376V120.536H180.706V135.81H197.652V146.871H180.706V163.574H199.376V174.71H168.259V109.551Z" fill="white"/>
<path d="M205.975 109.551H237.092V120.536H218.497V135.81H235.368V146.871H218.497V163.574H237.092V174.71H205.975V109.551Z" fill="white"/>
<path d="M256.213 143.259V174.71H243.691V109.551H256.213V140.851L269.709 109.551H283.056L268.135 140.325L283.881 174.71H269.559L256.213 143.259Z" fill="white"/>
<path d="M38.1657 220.08V222.563C38.1657 230.163 34.2667 234 27.8932 234C21.5198 234 17.6207 230.163 17.6207 222.563V211.428C17.6207 203.828 21.5198 200.066 27.8932 200.066C34.2667 200.066 38.1657 203.828 38.1657 211.428V213.534H31.8673V211.352C31.8673 207.064 30.3676 205.634 27.9682 205.634C25.5688 205.634 24.0692 207.064 24.0692 211.352V222.714C24.0692 227.003 25.5688 228.432 27.9682 228.432C30.4426 228.432 31.8673 227.003 31.8673 222.714V220.08H38.1657Z" fill="white"/>
<path d="M57.736 233.398H41.8398V200.668H48.1383V227.83H57.736V233.398Z" fill="white"/>
<path d="M66.9588 200.668H60.6603V233.473H66.9588V200.668Z" fill="white"/>
<path d="M93.952 204.957L88.7783 233.398H81.805L76.6312 204.731V233.398H71.0826V200.668H81.2801L85.4791 225.648L89.5281 200.668H99.8006V233.398H93.952V204.957Z" fill="white"/>
<path d="M108.649 200.668H118.321L124.32 233.473H118.096L116.972 226.777H109.998L108.873 233.473H102.725L108.649 200.668ZM116.072 221.284L113.522 205.484L110.973 221.284H116.072Z" fill="white"/>
<path d="M123.495 200.668H141.566V206.161H135.717V233.398H129.419V206.161H123.495V200.668Z" fill="white"/>
<path d="M144.49 200.668H160.161V206.161H150.788V213.835H159.261V219.403H150.788V227.83H160.161V233.398H144.49V200.668Z" fill="white"/>
<path d="M193.003 215.942V233.473H187.979V230.088C186.705 232.721 184.38 234.075 181.456 234.075C175.907 234.075 172.533 230.238 172.533 222.639V211.428C172.533 203.828 176.432 200.066 182.806 200.066C189.179 200.066 193.078 203.828 193.078 211.428V212.933H186.705V211.352C186.705 207.064 185.205 205.634 182.806 205.634C180.406 205.634 178.907 207.064 178.907 211.352V222.714C178.907 227.003 180.406 228.432 182.806 228.432C185.205 228.432 186.705 227.003 186.705 223.015V221.284H182.281V215.942H193.003Z" fill="white"/>
<path d="M197.052 200.668H207.399C212.873 200.668 216.847 203.678 216.847 209.17V210.45C216.847 214.964 214.298 217.597 210.549 218.576L217.822 233.473H210.624L203.425 217.297V233.473H197.127V200.668H197.052ZM203.35 206.086V214.889H206.725C209.049 214.889 210.549 213.61 210.549 210.525V209.923C210.549 207.064 209.049 206.01 206.725 206.01H203.35V206.086Z" fill="white"/>
<path d="M219.847 222.563V211.428C219.847 203.828 223.746 200.066 230.119 200.066C236.493 200.066 240.392 203.828 240.392 211.428V222.563C240.392 230.238 236.493 234 230.119 234C223.746 234 219.847 230.238 219.847 222.563ZM234.018 222.714V211.352C234.018 207.064 232.518 205.634 230.119 205.634C227.72 205.634 226.22 207.064 226.22 211.352V222.714C226.22 227.003 227.72 228.432 230.119 228.432C232.518 228.432 234.018 227.003 234.018 222.714Z" fill="white"/>
<path d="M250.139 200.668V223.316C250.139 227.153 251.564 228.507 253.813 228.507C256.138 228.507 257.487 227.228 257.487 223.316V200.668H263.786V223.165C263.786 230.389 259.962 234 253.738 234C247.515 234 243.691 230.389 243.691 223.165V200.668H250.139Z" fill="white"/>
<path d="M267.91 200.668H277.807C283.506 200.668 287.33 203.828 287.33 209.923V211.879C287.33 218.124 283.506 221.51 277.807 221.51H274.133V233.473H267.91V200.668ZM274.133 206.086V216.017H277.433C279.832 216.017 281.257 214.738 281.257 211.428V210.299C281.257 207.214 279.832 206.086 277.433 206.086H274.133Z" fill="white"/>
<path d="M7.27323 207.892C3.2992 207.892 0 204.656 0 200.593C0 196.605 3.22422 193.295 7.27323 193.295C11.2473 193.295 14.5465 196.53 14.5465 200.593C14.5465 204.656 11.2473 207.892 7.27323 207.892ZM7.27323 196.756C5.17374 196.756 3.44916 198.486 3.44916 200.593C3.44916 202.7 5.17374 204.43 7.27323 204.43C9.37272 204.43 11.0973 202.7 11.0973 200.593C11.0973 198.486 9.37272 196.756 7.27323 196.756Z" fill="#FF001E"/>
<path d="M437.669 43.1132C425.821 43.1132 416.149 33.4071 416.149 21.519C416.149 9.63093 425.821 -0.0751801 437.669 -0.0751801C449.516 -0.0751801 459.188 9.63093 459.188 21.519C459.188 33.4824 449.516 43.1132 437.669 43.1132ZM437.669 10.1576C431.37 10.1576 426.271 15.274 426.271 21.5943C426.271 27.9145 431.37 33.0309 437.669 33.0309C443.967 33.0309 449.066 27.9145 449.066 21.5943C449.141 15.274 443.967 10.1576 437.669 10.1576Z" fill="#FF001E"/>
<path d="M514 131.522H487.382V153.041C487.307 155.373 487.157 157.405 486.782 159.06C486.707 159.436 486.557 159.888 486.407 160.264C484.982 164.553 481.008 167.487 476.509 167.487H476.359C476.284 167.487 476.209 167.487 476.134 167.487C476.059 167.487 475.984 167.487 475.909 167.487H475.759C471.26 167.487 467.286 164.553 465.862 160.264C465.712 159.888 465.637 159.511 465.487 159.06C465.112 157.329 464.962 155.373 464.887 153.041V131.522V104.585V83.0664C464.962 80.7339 465.112 78.7024 465.487 77.0471C465.562 76.6709 465.712 76.2194 465.862 75.8432C467.286 71.5545 471.26 68.62 475.759 68.62C475.834 68.62 475.834 68.62 475.909 68.62C475.984 68.62 476.059 68.62 476.134 68.62C476.209 68.62 476.284 68.62 476.359 68.62C476.434 68.62 476.434 68.62 476.509 68.62C481.008 68.62 484.982 71.5545 486.407 75.8432C486.557 76.2194 486.632 76.5956 486.782 77.0471C487.157 78.7776 487.307 80.7339 487.382 83.0664V104.585H514V89.7628C514 78.7024 512.425 69.5982 509.201 62.6008C507.102 57.8606 504.402 54.249 500.953 51.6908C498.779 49.9602 496.304 48.5307 493.53 47.402C490.006 45.9725 485.957 45.1448 481.458 44.8438C480.033 44.6934 478.609 44.6934 477.109 44.6934C476.959 44.6934 476.884 44.6934 476.734 44.6934C476.584 44.6934 476.434 44.6934 476.359 44.6934C476.284 44.6934 476.209 44.6934 476.134 44.6934C476.059 44.6934 475.984 44.6934 475.909 44.6934C475.759 44.6934 475.684 44.6934 475.534 44.6934C475.384 44.6934 475.309 44.6934 475.159 44.6934C473.66 44.6934 472.235 44.7686 470.811 44.8438C466.312 45.1448 462.263 45.9725 458.738 47.402C455.964 48.4554 453.49 49.885 451.315 51.6908C447.866 54.249 445.092 57.8606 443.067 62.6008C442.992 62.7512 442.917 62.9017 442.842 63.0522H423.272L409.325 113.088L395.379 63.0522H380.307V31.4509H354.439V95.5564L331.869 31.4509H310.125V174.785H335.543V109.25L358.863 174.785H380.382V101.35L396.654 158.608V206.989H422.072L422.147 158.533L438.343 101.576V142.206V146.344C438.343 157.405 439.918 166.509 443.142 173.506C445.242 178.246 447.941 181.858 451.39 184.416C453.565 186.147 456.039 187.576 458.813 188.705C462.188 189.834 465.862 190.661 469.986 191.037C472.01 191.263 474.11 191.414 476.209 191.414C478.384 191.414 480.408 191.263 482.433 191.037C486.482 190.586 490.231 189.834 493.605 188.705C496.379 187.652 498.854 186.222 501.028 184.416C504.477 181.858 507.252 178.246 509.276 173.506C512.5 166.509 514.075 157.405 514.075 146.344V142.206V140.626V135.961V131.522H514Z" fill="white"/>
</g>
<defs>
<clipPath id="clip0">
<rect width="514" height="234" fill="white"/>
</clipPath>
</defs>
</svg>
