<svg xmlns="http://www.w3.org/2000/svg" width="16" height="16" viewBox="0 0 16 16">
    <path fill="#fff" fill-rule="evenodd" d="M8.94 0c1.34.004 1.647.016 2.358.048.852.039 1.433.174 1.942.372.526.204.973.478 1.417.923.445.444.719.89.923 1.417.198.509.333 1.09.372 1.942C15.99 5.555 16 5.827 16 8s-.01 2.445-.048 3.298c-.039.852-.174 1.433-.372 1.942-.204.526-.478.973-.923 1.417-.444.445-.89.719-1.417.923-.509.198-1.09.333-1.942.372C10.445 15.99 10.173 16 8 16s-2.445-.01-3.298-.048c-.852-.039-1.433-.174-1.942-.372-.526-.204-.973-.478-1.417-.923-.445-.444-.719-.89-.923-1.417-.198-.509-.333-1.09-.372-1.942-.032-.71-.044-1.018-.047-2.359V7.061C.004 5.72.016 5.413.048 4.7.087 3.852.222 3.27.42 2.76c.204-.526.478-.973.923-1.417.444-.445.89-.719 1.417-.923C3.269.222 3.85.087 4.702.048 5.412.016 5.72.004 7.06.001zm-.222 1.442H7.282c-1.49.002-1.777.012-2.515.046-.78.036-1.203.166-1.485.276-.374.145-.64.318-.92.598-.28.28-.453.546-.598.92-.11.282-.24.705-.276 1.485-.034.738-.044 1.024-.046 2.515v1.436c.002 1.49.012 1.777.046 2.515.036.78.166 1.203.276 1.485.145.374.318.64.598.92.28.28.546.453.92.598.282.11.705.24 1.485.276.738.034 1.024.044 2.515.046h1.436c1.49-.002 1.777-.012 2.515-.046.78-.036 1.203-.166 1.485-.276.374-.145.64-.318.92-.598.28-.28.453-.546.598-.92.11-.282.24-.705.276-1.485.034-.738.044-1.024.046-2.515V7.282c-.002-1.49-.012-1.777-.046-2.515-.036-.78-.166-1.203-.276-1.485-.145-.374-.318-.64-.598-.92-.28-.28-.546-.453-.92-.598-.282-.11-.705-.24-1.485-.276-.738-.034-1.024-.044-2.515-.046zM8 3.892c2.269 0 4.108 1.84 4.108 4.108 0 2.269-1.84 4.108-4.108 4.108-2.269 0-4.108-1.84-4.108-4.108 0-2.269 1.84-4.108 4.108-4.108zm0 1.441c1.473 0 2.667 1.194 2.667 2.667 0 1.473-1.194 2.667-2.667 2.667-1.473 0-2.667-1.194-2.667-2.667 0-1.473 1.194-2.667 2.667-2.667zm4.27-2.563c.53 0 .96.43.96.96s-.43.96-.96.96-.96-.43-.96-.96.43-.96.96-.96z"/>
</svg>
