<svg xmlns="http://www.w3.org/2000/svg" viewBox="0 0 1000 1000"><path d="M783.57,95.62l3.44-5c-3.18-2.24-6.3-4.56-9.53-6.72l-3.43,5c3.22,2.15,6.34,4.48,9.52,6.71M602.48,16.84l1.21-6q-5.7-1.2-11.43-2.26l-1.21,6c3.82.71,7.64,1.45,11.43,2.25M554.38,9.2,555,3.07c-3.86-.42-7.73-.78-11.6-1.11l-.61,6.12q5.82.49,11.6,1.12M750.31,677.54l17.36,11.9q3.35-4.79,6.53-9.65l-17.41-11.93q-3.15,4.9-6.48,9.68m71.63-552,3.9-4.64c-2.94-2.53-5.83-5.16-8.82-7.62l-3.91,4.64c3,2.46,5.88,5.08,8.83,7.62M713.72,720.8l14.83,14.83c.73-.72,1.5-1.4,2.23-2.13,2-2,3.94-4.14,5.91-6.21l-14.83-14.83c-2.67,2.83-5.36,5.62-8.14,8.34M819.67,411.88l18.26-5.31c-1.06-3.74-2.16-7.46-3.33-11.17l-18.29,5.33q1.79,5.53,3.36,11.15M570.23,177.93,574,159q-5.68-1.22-11.43-2.23l-3.8,18.92c3.84.68,7.65,1.41,11.45,2.23m64.2,20.84L642,181.05c-3.55-1.57-7.12-3.12-10.72-4.57l-7.57,17.74c3.6,1.44,7.17,3,10.73,4.55M731.7,701.53l16.06,13.52q3.81-4.42,7.45-9L739.12,692.5q-3.63,4.57-7.42,9M827,443.81l18.65-3.48c-.68-3.83-1.4-7.65-2.2-11.45l-18.69,3.49q1.23,5.69,2.24,11.44M321.7,39.31l-2.29-5.69c-3.63,1.4-7.29,2.71-10.88,4.2l2.29,5.69c3.59-1.49,7.25-2.8,10.88-4.2m279.87,147,5.63-18.45c-3.7-1.18-7.42-2.28-11.17-3.34L590.4,183c3.74,1,7.47,2.15,11.16,3.34m229.58,290L850,474.67q-.45-5.82-1.07-11.61L830,464.68q.66,5.79,1.1,11.6M663.43,213.36l9.26-16.87c-3.38-1.92-6.77-3.81-10.21-5.61l-9.27,16.89c3.44,1.79,6.84,3.68,10.22,5.59M791.47,594l20.15,6.15c1.15-3.71,2.2-7.45,3.22-11.2l-20.17-6.16c-1,3.76-2,7.51-3.2,11.21M698.87,47.8l2.41-5.63c-3.56-1.57-7.08-3.21-10.67-4.69l-2.41,5.65c3.59,1.47,7.12,3.11,10.67,4.67M735,267.8c.73.73,1.41,1.51,2.14,2.25l13.56-13.56c-.79-.81-1.53-1.65-2.33-2.45-2-2-4-3.8-6-5.71L728.75,261.9c2.06,2,4.17,3.88,6.19,5.9M415.44,13.46l-1.13-6c-3.83.66-7.68,1.24-11.48,2l1.13,6c3.8-.74,7.65-1.33,11.48-2m234.1,15.72,1.79-5.87c-3.7-1.17-7.42-2.31-11.15-3.39l-1.8,5.88c3.74,1.08,7.45,2.21,11.16,3.38M803.63,534.79l21,2.07c.4-3.86.67-7.74.94-11.62l-21-2.08c-.25,3.89-.51,7.78-.91,11.63M463.71,7.61l-.52-6.13c-3.88.27-7.77.48-11.63.85l.53,6.13c3.86-.37,7.75-.57,11.62-.85M799,564.67l20.64,4.13c.78-3.79,1.44-7.62,2.08-11.46l-20.66-4.14c-.63,3.84-1.28,7.68-2.06,11.47m10.2-183.75,17.68-7.11q-2.13-5.42-4.43-10.77l-17.7,7.11q2.32,5.34,4.46,10.77m-50.49-86.63,14.81-12.14c-2.43-3-5-6-7.5-8.91L751.2,285.39c2.56,2.94,5.09,5.89,7.52,8.9M778,320.63,793.91,310c-2.13-3.25-4.35-6.43-6.6-9.61L771.39,311c2.25,3.17,4.48,6.35,6.61,9.59M367.89,24.07l-1.71-5.9c-3.75,1-7.52,2-11.24,3.1l1.72,5.9c3.71-1.12,7.49-2.07,11.23-3.1M742.38,69.58l2.94-5.35c-3.38-1.91-6.72-3.91-10.15-5.73l-2.94,5.36c3.42,1.82,6.76,3.81,10.15,5.72m89.89,433.13v2h18.9c0-.79.06-1.57.06-2.35,0-3.12-.15-6.2-.23-9.3H832c.09,3.22.24,6.44.24,9.68m-141.34-272,10.87-15.86c-3.18-2.24-6.37-4.46-9.61-6.59L681.27,224.2c3.25,2.13,6.45,4.34,9.63,6.58m75.56,421L785,662q2.85-5.09,5.52-10.26L772,641.53c-1.77,3.46-3.59,6.9-5.49,10.28m-50-401,12.37-14.69c-3-2.54-5.9-5.06-8.92-7.49l-12.39,14.7c3,2.43,6,4.94,8.94,7.48M826.14,493H805c.11,3.35.26,6.69.26,10.07v1.58h21.09v-2c0-3.24-.14-6.46-.23-9.68M794.55,348.72l16.85-9c-1.8-3.44-3.7-6.83-5.61-10.21l-16.87,9c1.92,3.38,3.83,6.76,5.63,10.2M500,6.16c2,0,3.89.12,5.85.14V.14C503.89.12,502,0,500,0s-3.87.12-5.81.14V6.3c1.94,0,3.87-.14,5.81-.14M780,624.68,799.4,633c1.55-3.56,3-7.16,4.46-10.77l-19.44-8.3c-1.41,3.63-2.87,7.23-4.42,10.79M897.74,389.16l12-3.48c-1-3.74-2.09-7.48-3.24-11.19l-12,3.49c1.16,3.7,2.21,7.44,3.26,11.18M691,741l13.29,16.21c3-2.43,6-5,8.92-7.5l-13.28-16.2C697,736.06,694,738.57,691,741M894.4,625.38,906.09,629c1.16-3.71,2.23-7.44,3.29-11.18l-11.71-3.58c-1,3.75-2.12,7.48-3.27,11.19M448,965.06l-.75,7.54q5.79.63,11.6,1.13l.74-7.54q-5.8-.5-11.59-1.13m52,3c-1.94,0-3.87-.11-5.81-.14v7.57c1.94,0,3.87.15,5.81.15s3.89-.12,5.85-.15v-7.57c-2,0-3.89.14-5.85.14M904.64,585.82l12,2.41c.78-3.8,1.47-7.63,2.15-11.45l-12-2.42c-.68,3.83-1.35,7.66-2.13,11.46m6.26-40.41,12.24,1.21c.41-3.86.7-7.73,1-11.61L911.9,533.8c-.3,3.88-.58,7.75-1,11.61M402.19,957.71l-1.49,7.43c3.8.81,7.6,1.57,11.43,2.28l1.49-7.43c-3.83-.71-7.63-1.48-11.43-2.28m-44.77-11.86-2.22,7.26c3.71,1.18,7.41,2.33,11.15,3.42l2.21-7.26c-3.73-1.09-7.44-2.24-11.14-3.42M911.9,469.35l12.32-1.05c-.29-3.88-.56-7.76-1-11.62l-12.35,1.07c.4,3.85.69,7.73,1,11.6m-5.1-40.42,12.2-2.28c-.67-3.83-1.32-7.66-2.1-11.46l-12.23,2.28c.79,3.8,1.46,7.63,2.13,11.46m-22-78.37,11.58-4.65c-1.41-3.62-2.83-7.23-4.34-10.81l-11.61,4.66c1.52,3.58,3,7.19,4.37,10.8M272.58,299.74l-16.46-13.85c-2.58,2.9-5.13,5.84-7.61,8.82L265,308.55c2.48-3,5-5.92,7.63-8.81M23.41,631.51,18,633.09c1,3.74,2,7.52,3.1,11.23l5.44-1.58c-1.11-3.72-2.08-7.49-3.1-11.23M253.77,322.94,236,310.77c-2.29,3.14-4.54,6.31-6.72,9.53L247,332.44c2.18-3.23,4.46-6.37,6.76-9.5m-16.51,25L218.4,337.57c-2,3.35-3.9,6.72-5.75,10.14L231.46,358c1.85-3.42,3.82-6.77,5.8-10.11m53.38-66.68L275.43,266c-2.07,2-4.18,3.89-6.21,5.91-.73.74-1.4,1.5-2.13,2.24l15.21,15.21c2.72-2.77,5.52-5.47,8.34-8.14m-230.37,445-4.94,2.62c1.78,3.45,3.57,6.9,5.43,10.31l4.93-2.62c-1.86-3.41-3.64-6.86-5.42-10.31m-21.64-48.3L33.41,680c1.39,3.62,2.71,7.28,4.19,10.87l5.22-2.1c-1.48-3.59-2.8-7.24-4.19-10.87m274.65-416L299.6,245.17c-3.05,2.39-6.09,4.81-9.07,7.32l13.65,16.65c3-2.49,6-4.9,9.1-7.29m221,704.79.65,7.54c3.87-.28,7.76-.47,11.62-.85l-.65-7.54c-3.86.37-7.75.57-11.62.85m379-465.09c0,1.05-.07,2.08-.08,3.13H925.5c0-1.18.09-2.34.09-3.52,0-2.72-.15-5.42-.2-8.13H913c.06,2.84.21,5.67.21,8.52M169.61,831.17c-1.69-1.7-3.28-3.48-4.94-5.2l-5.44,5.43c1.61,1.65,3.13,3.37,4.76,5,1.13,1.12,2.31,2.17,3.44,3.28l5.43-5.42c-1.07-1-2.19-2-3.25-3.09M586.35,97.38l2.5-12.47c-3.8-.81-7.61-1.55-11.43-2.25l-2.5,12.48q5.75,1,11.44,2.24M193.78,853.53l-4.94,5.86c2.94,2.55,5.84,5.15,8.83,7.62l4.93-5.86c-3-2.48-5.89-5.07-8.82-7.62M546.28,90.94l1.26-12.66c-3.86-.43-7.72-.79-11.6-1.11l-1.26,12.67q5.82.48,11.6,1.1m79.27,16.78,3.72-12.16q-5.57-1.75-11.16-3.36l-3.71,12.16q5.6,1.61,11.15,3.36M430.49,94.21,428.16,81.7c-3.83.65-7.68,1.23-11.48,2L419,96.2c3.81-.76,7.65-1.34,11.48-2M500,88.3c2,0,3.89.12,5.85.14V75.71c-2,0-3.89-.14-5.85-.14s-3.87.12-5.81.14V88.44c1.94,0,3.87-.14,5.81-.14m-29.27,1.14-1.08-12.68c-3.88.27-7.77.48-11.63.85l1.09,12.68c3.86-.38,7.75-.58,11.63-.85m195.91,33.85,5-11.68c-3.56-1.57-7.1-3.16-10.7-4.63l-5,11.69c3.6,1.47,7.15,3,10.7,4.62m-532.54,668-6,4.89c2.43,3,4.87,6.06,7.37,9l6-4.88c-2.5-3-4.93-6-7.35-9M702.9,141.47l6.1-11.11c-3.39-1.91-6.75-3.86-10.18-5.68l-6.11,11.13c3.43,1.82,6.8,3.75,10.18,5.66M822,242.5l9.72-8c-2.43-3-5-6-7.47-8.94l-9.74,8c2.53,3,5,5.91,7.49,8.93M310.52,928l-3,7c3.55,1.58,7.07,3.23,10.66,4.72l3-7c-3.59-1.49-7.11-3.15-10.65-4.72m535.4-652.63,10.45-7c-2.13-3.24-4.34-6.44-6.57-9.63l-10.45,7c2.22,3.18,4.44,6.37,6.57,9.62m20.6,35.05,11.05-5.88c-1.79-3.45-3.67-6.85-5.56-10.24l-11,5.9c1.9,3.39,3.78,6.79,5.58,10.23M792.22,209.34c.92.93,1.79,1.91,2.7,2.84l8.92-8.91c-1-1-1.91-2.05-2.9-3-1.77-1.77-3.61-3.41-5.4-5.15L786.62,204c1.86,1.79,3.77,3.5,5.6,5.33m-55-46.14,7.16-10.44c-3.18-2.24-6.33-4.51-9.56-6.66l-7.17,10.46c3.23,2.14,6.39,4.4,9.57,6.64m-507.11,719-4.32,6.3c3.17,2.25,6.3,4.55,9.52,6.72l4.33-6.3c-3.22-2.17-6.36-4.46-9.53-6.72m39.07,24.94-3.67,6.68c3.38,1.93,6.72,3.92,10.14,5.75l3.67-6.68c-3.42-1.83-6.76-3.82-10.14-5.75m500-718.94,8.14-9.66c-3-2.54-5.87-5.12-8.87-7.57l-8.15,9.68c3,2.45,5.94,5,8.88,7.55M223.28,374.4,203.54,366c-1.63,3.53-3.23,7.07-4.73,10.65L218.5,385c1.51-3.59,3.14-7.12,4.78-10.63m180.86,418.5-6.09,20c3.69,1.21,7.39,2.37,11.13,3.45l6.09-20q-5.61-1.62-11.13-3.45m-253.62-642c1.64-1.64,3.36-3.17,5-4.78l-4.28-4.28c-1.58,1.55-3.24,3-4.81,4.59-1.18,1.18-2.28,2.43-3.45,3.62l4.26,4.27c1.11-1.13,2.15-2.31,3.26-3.42M433.57,801l-4.09,20.39q5.68,1.25,11.43,2.29L445,803.32c-3.83-.71-7.64-1.47-11.42-2.31M500,808.38c-1.95,0-3.87-.12-5.81-.15v20.71c1.94,0,3.87.15,5.81.15s3.9-.11,5.85-.15V808.23c-2,0-3.89.15-5.85.15m-36.28-2.24-2.05,20.64q5.79.68,11.6,1.14l2.05-20.63q-5.83-.46-11.6-1.15M320.75,750l-11.86,17.3c3.15,2.28,6.31,4.55,9.52,6.71l11.86-17.29c-3.22-2.17-6.38-4.44-9.52-6.72M70.22,256.2,65,253.33c-1.92,3.38-3.91,6.72-5.75,10.14l5.23,2.87c1.84-3.42,3.82-6.76,5.74-10.14M346.3,766.69l-10.1,18.39c3.36,1.95,6.72,3.91,10.14,5.75l10.11-18.41c-3.43-1.84-6.8-3.77-10.15-5.73M96.47,215.08l-4.94-3.39c-2.25,3.17-4.55,6.31-6.72,9.53l4.94,3.39c2.17-3.22,4.47-6.36,6.72-9.53M373.36,780.76,365.13,800c3.54,1.61,7.08,3.21,10.68,4.68L384,785.43c-3.6-1.48-7.14-3.06-10.67-4.67M126.58,176.81,122,172.94c-2.55,2.93-5.14,5.83-7.61,8.81l4.6,3.88c2.47-3,5.07-5.88,7.62-8.82M640,774.26l9.84,18.5c3.45-1.78,6.86-3.65,10.24-5.56l-9.84-18.5q-5.07,2.88-10.24,5.56m26.32-15.35L678,776.37c3.25-2.12,6.45-4.33,9.63-6.57L676,752.35q-4.76,3.38-9.64,6.56M520.66,807.6l1.77,20.64c3.89-.27,7.77-.54,11.62-.93l-1.77-20.65c-3.85.4-7.73.68-11.62.94M273.59,60.93l-2.88-5.4c-3.44,1.78-6.88,3.59-10.29,5.45l2.87,5.39c3.41-1.86,6.85-3.66,10.3-5.44M231.51,85.38l-3.38-5.07c-3.25,2.12-6.49,4.26-9.7,6.46l3.38,5.06c3.21-2.19,6.45-4.33,9.7-6.45M551,804l3.81,20.41c3.84-.65,7.67-1.31,11.46-2.09l-3.8-20.42c-3.79.79-7.63,1.45-11.47,2.1M192,113.92l-3.85-4.69c-3,2.42-6,4.87-9,7.38l3.84,4.68q4.47-3.75,9-7.37M609.83,787.86l7.79,19.38c3.62-1.4,7.23-2.84,10.8-4.37l-7.79-19.39c-3.56,1.54-7.17,3-10.8,4.38m-29,9.57,5.82,20c3.75-1,7.49-2.08,11.19-3.24l-5.82-20c-3.69,1.17-7.44,2.22-11.19,3.26M194.73,503.1c0-3.38.14-6.72.25-10.07H173.86c-.09,3.22-.23,6.44-.23,9.68,0,.66,0,1.31.05,2h21.09v-1.58M9,444.36l-5.8-.58c-.42,3.86-.83,7.72-1.17,11.6L7.8,456c.35-3.88.76-7.74,1.2-11.59m-3.25,56c0-2.47.15-4.91.18-7.36H.17c0,2.32-.17,4.63-.17,7,0,1.57.1,3.11.11,4.68H5.88c0-1.43-.11-2.86-.11-4.29m7.1,83.36-5.6,1c.65,3.83,1.25,7.68,2,11.48l5.6-1c-.74-3.81-1.34-7.66-2-11.49M198.21,549.2l-20.7,3.86q.88,5.76,2,11.48l20.76-3.87c-.73-3.81-1.45-7.62-2-11.47m-3.06-30-21,1.8q.31,5.84.85,11.62l21-1.8c-.35-3.86-.68-7.72-.89-11.62m7.7-85.76L182,429.22c-.87,3.78-1.72,7.57-2.45,11.4l20.84,4.17c.74-3.83,1.58-7.62,2.47-11.39M197.44,463l-21.08-2.09c-.49,3.85-1,7.71-1.31,11.58l21,2.09c.36-3.88.83-7.74,1.34-11.58m13.7-58.47-20.44-6.24c-1.24,3.68-2.46,7.36-3.57,11.09l20.43,6.24c1.12-3.73,2.33-7.42,3.58-11.09M7.12,535.3l-5.72.49c.28,3.88.49,7.76.86,11.62L8,546.92c-.35-3.86-.58-7.74-.85-11.62M29.39,349.05l-5.64-1.72c-1.18,3.7-2.36,7.4-3.45,11.13l5.62,1.71c1.1-3.73,2.28-7.42,3.47-11.12M297,730.88l-13.5,16c2.91,2.59,5.84,5.15,8.83,7.62l13.48-16c-3-2.47-5.9-5-8.81-7.63m-18.89-18.4L263.29,727.3c2,2.06,3.87,4.16,5.89,6.19.74.73,1.51,1.41,2.25,2.14l14.82-14.82c-2.77-2.72-5.47-5.52-8.14-8.34m-19.75-23.1L242.1,702.7c2.39,3.06,4.8,6.1,7.3,9.09l16.23-13.31c-2.49-3-4.89-6-7.27-9.11M48.23,299.68l-5.45-2.33c-1.58,3.55-3.23,7.07-4.73,10.66l5.45,2.32c1.5-3.58,3.15-7.1,4.73-10.65m165,308.1-19.55,7.86c1.34,3.65,2.72,7.28,4.19,10.87l19.64-7.88c-1.48-3.59-2.94-7.19-4.28-10.85M16.84,396.15,11.1,395c-.81,3.8-1.59,7.6-2.31,11.42l5.72,1.15c.72-3.83,1.52-7.62,2.33-11.42M204.25,578.87,184,584.76q1.45,5.64,3.11,11.23l20.29-5.9c-1.11-3.72-2.2-7.45-3.17-11.22m22,59.08-18.62,9.91c1.73,3.47,3.48,6.94,5.34,10.36l18.6-9.9c-1.85-3.41-3.6-6.89-5.32-10.37M241,664.43l-17.53,11.68c2.07,3.29,4.16,6.56,6.35,9.77l17.5-11.66c-2.18-3.21-4.26-6.49-6.32-9.79M986.6,414.05l5.74-1.07c-.67-3.83-1.24-7.69-2-11.49l-5.75,1.08c.76,3.8,1.34,7.65,2,11.48M857.27,540.1l16.59,1.64c.4-3.85.69-7.74,1-11.61l-16.61-1.65c-.27,3.88-.55,7.76-1,11.62m-40,61.72,18,5.49c1.15-3.71,2.2-7.45,3.23-11.19l-18-5.5q-1.5,5.63-3.22,11.2m-27.15,63,16.42,9c1.9-3.39,3.76-6.8,5.55-10.25l-16.44-9q-2.65,5.17-5.53,10.26m14.67-29.53L822,642.64q2.32-5.34,4.49-10.76l-17.28-7.38q-2.13,5.43-4.46,10.77m26.61-109.45c-.27,3.88-.54,7.76-.94,11.62l18.77,1.86c.4-3.86.68-7.74.95-11.62l-18.78-1.86M619.81,812.71l6.92,17.22c3.63-1.4,7.24-2.83,10.82-4.35l-6.93-17.23c-3.57,1.53-7.18,3-10.81,4.36M772.53,692.78l15.41,10.56c2.23-3.18,4.44-6.38,6.56-9.63l-15.44-10.58c-2.11,3.25-4.3,6.46-6.53,9.65M652.58,798l8.73,16.4q5.16-2.68,10.24-5.56l-8.73-16.4c-3.38,1.91-6.79,3.78-10.24,5.56m28.62-16.69,10.3,15.46c3.25-2.12,6.45-4.32,9.64-6.56L690.83,774.7c-3.19,2.25-6.38,4.45-9.63,6.58m71.07-62.43,14.27,12c2.53-3,5.05-5.91,7.48-8.94l-14.3-12c-2.42,3-4.92,6-7.45,9M708,761.78l11.79,14.39c3-2.43,6-4.95,8.93-7.49l-11.8-14.4c-2.94,2.55-5.9,5.07-8.92,7.5m27-24.12c-.73.73-1.5,1.41-2.24,2.13L745.89,753c.8-.78,1.64-1.52,2.43-2.31,2-2,3.81-4,5.72-6l-13.18-13.18c-2,2.07-3.89,4.18-5.91,6.2M825.46,570l18.46,3.7c.78-3.8,1.44-7.63,2.1-11.46l-18.48-3.7c-.65,3.83-1.31,7.66-2.08,11.46M754,248.29c.79.8,1.54,1.64,2.33,2.45l12-12c-.86-.87-1.65-1.79-2.52-2.65-1.89-1.89-3.87-3.67-5.8-5.52l-12,12c2,1.91,4,3.75,6,5.71m46.6,57.25,14.09-9.38c-2.13-3.25-4.35-6.44-6.58-9.62L794,295.94c2.24,3.18,4.47,6.36,6.6,9.6M734.08,229.9l10.95-13c-2.95-2.54-5.89-5.08-8.9-7.52l-11,13c3,2.43,6,5,8.92,7.5M779.82,277l13.11-10.75c-2.43-3-5-6-7.49-8.92l-13.13,10.76c2.54,2.94,5.07,5.89,7.51,8.91m-73.48-68.78,9.66-14c-3.18-2.24-6.36-4.48-9.6-6.61l-9.64,14.06c3.24,2.14,6.42,4.36,9.6,6.6M676.58,189.4l8.22-15c-3.39-1.92-6.77-3.83-10.2-5.64l-8.22,15c3.43,1.8,6.82,3.7,10.2,5.61m182.68,313c0,.78,0,1.56-.06,2.35h16.72c0-.92.06-1.82.06-2.74,0-3-.15-5.94-.22-8.91H859c.07,3.1.22,6.18.22,9.3m-5.66-63.48,16.5-3.08c-.68-3.83-1.37-7.65-2.17-11.45L851.4,427.4c.8,3.8,1.52,7.62,2.2,11.45M858.06,474l16.68-1.43c-.3-3.88-.61-7.75-1-11.6L857,462.37c.42,3.85.76,7.73,1.06,11.6M845.7,404.31l16.15-4.7c-1.05-3.74-2.13-7.47-3.3-11.18l-16.18,4.71c1.17,3.7,2.27,7.43,3.33,11.17M818.54,336l14.92-8c-1.8-3.45-3.69-6.84-5.6-10.23l-14.93,8c1.91,3.38,3.81,6.78,5.61,10.21m15.88,34.85,15.65-6.29c-1.42-3.62-2.88-7.22-4.41-10.78L830,360q2.31,5.36,4.43,10.78M461.09,832.65l-1.82,18.43q5.78.67,11.6,1.14l1.82-18.43q-5.82-.48-11.6-1.14m470-90.42,4.89,2.68c1.91-3.39,3.89-6.73,5.72-10.16l-4.91-2.69c-1.82,3.42-3.79,6.78-5.7,10.17M871.7,396.73l14-4.08c-1-3.74-2.11-7.48-3.27-11.19l-14.08,4.1c1.17,3.7,2.25,7.43,3.3,11.17m8.49,37.16,14.34-2.68c-.67-3.83-1.35-7.66-2.13-11.46L878,422.43c.79,3.8,1.49,7.63,2.17,11.46M279.75,751.42l-12,14.24c2.92,2.58,5.84,5.15,8.82,7.62l12-14.24c-3-2.47-5.91-5-8.82-7.62M886.26,501.94c0,.92-.06,1.82-.07,2.74h14.52c0-1.05.07-2.08.07-3.13,0-2.85-.14-5.68-.2-8.52H886c.07,3,.22,5.93.22,8.91M885,471.66l14.5-1.24c-.29-3.88-.59-7.75-1-11.61L884,460.06c.41,3.85.72,7.73,1,11.6M305.56,772.15,295,787.48c3.16,2.28,6.31,4.56,9.52,6.72L315,778.87c-3.22-2.17-6.37-4.44-9.52-6.72m647.36-73.64,5.16,2.2c1.56-3.56,3.19-7.09,4.66-10.68l-5.18-2.22c-1.47,3.6-3.08,7.14-4.64,10.7M823.29,290.45l12.26-8.17c-2.12-3.24-4.34-6.43-6.57-9.62l-12.28,8.18c2.23,3.19,4.46,6.37,6.59,9.61m36.32,70.23,13.61-5.47c-1.42-3.62-2.85-7.22-4.37-10.8l-13.64,5.48q2.29,5.36,4.4,10.79M588.32,823.08l5.18,17.8q5.63-1.5,11.2-3.23l-5.19-17.81c-3.7,1.16-7.44,2.21-11.19,3.24M265.05,737.66c-2-2-3.93-4.12-5.89-6.18L246,744.66c1.9,2,3.75,4,5.7,6,.8.8,1.65,1.54,2.45,2.33l13.17-13.17c-.74-.73-1.51-1.41-2.25-2.15M842.54,323.19l13-6.92c-1.79-3.44-3.68-6.84-5.58-10.23L837,313c1.91,3.39,3.8,6.78,5.6,10.23M645.17,173.61l6.71-15.71c-3.56-1.57-7.11-3.13-10.71-4.59L634.46,169c3.6,1.45,7.16,3,10.71,4.57M500,835c-1.94,0-3.87-.11-5.81-.14v18.52c1.94,0,3.87.14,5.81.14s3.89-.11,5.85-.14V834.84c-2,0-3.89.14-5.85.14m55.88-4.75,3.4,18.22c3.83-.65,7.66-1.3,11.46-2.07l-3.39-18.23c-3.8.77-7.63,1.44-11.47,2.08m-222.52-40-8.94,16.29c3.37,2,6.72,3.92,10.14,5.75L343.5,796c-3.42-1.83-6.78-3.79-10.14-5.75m95,36.94-3.64,18.17q5.68,1.25,11.42,2.3l3.64-18.17q-5.75-1.05-11.42-2.3M523,834.12l1.58,18.45c3.88-.27,7.76-.52,11.62-.91l-1.59-18.46c-3.85.39-7.73.66-11.61.92m382-50.5,4.57,3.13c2.23-3.18,4.56-6.31,6.71-9.53l-4.58-3.14c-2.16,3.22-4.47,6.35-6.7,9.54M884.09,542.75l14.41,1.43c.4-3.85.7-7.73,1-11.61l-14.43-1.43c-.29,3.88-.57,7.76-1,11.61M538.18,172.69l1.9-19.2q-5.77-.65-11.59-1.11l-1.91,19.2c3.88.31,7.75.67,11.6,1.11M396.32,818.46,390.9,836.2c3.7,1.21,7.41,2.37,11.14,3.45l5.42-17.74c-3.74-1.08-7.45-2.24-11.14-3.45m-33.5-13-7.28,17.07c3.54,1.6,7.07,3.21,10.66,4.69l7.29-17.07c-3.59-1.48-7.13-3.09-10.67-4.69M143.58,457.69,126.89,456c-.46,3.85-.92,7.71-1.27,11.59l16.67,1.65c.35-3.88.82-7.73,1.29-11.58M458.47,859.13l-1.61,16.26q5.79.65,11.6,1.13l1.61-16.25c-3.88-.31-7.75-.7-11.6-1.14m102.29-2.73,3,16.06c3.84-.65,7.67-1.29,11.47-2.06l-3-16.07c-3.8.77-7.64,1.42-11.47,2.07M388.54,843.94l-4.77,15.64c3.69,1.2,7.4,2.36,11.13,3.44l4.78-15.64c-3.74-1.08-7.44-2.24-11.14-3.44M500,861.59c-1.94,0-3.87-.11-5.81-.14v16.33c1.94,0,3.87.14,5.81.14s3.89-.11,5.85-.14V861.44c-2,0-3.89.15-5.85.15M352.36,830l-6.43,15c3.55,1.6,7.08,3.22,10.67,4.7l6.4-15.05c-3.6-1.48-7.13-3.1-10.67-4.7m172.85,30.67,1.4,16.27c3.87-.27,7.76-.51,11.62-.9l-1.4-16.28c-3.86.39-7.74.64-11.62.91M423.1,853.29l-3.21,16q5.69,1.23,11.42,2.29l3.21-16q-5.73-1.05-11.42-2.29m-226.83-159-13.74,9.16c2.08,3.27,4.19,6.54,6.38,9.75l13.73-9.2c-2.2-3.21-4.29-6.48-6.37-9.76M246,756.36c-2-2-3.8-4-5.71-6L228.63,762c1.85,1.92,3.62,3.89,5.52,5.79.86.86,1.77,1.66,2.64,2.52l11.63-11.62c-.81-.8-1.65-1.54-2.45-2.34m-29.08-33-12.75,10.44c2.4,3,4.82,6.09,7.32,9.07l12.74-10.43c-2.5-3-4.92-6-7.31-9.08M609.56,160.09l5-16.35c-3.7-1.18-7.42-2.29-11.16-3.36l-5,16.36q5.61,1.59,11.16,3.35m-347,611.75L252,784.4c2.92,2.58,5.83,5.15,8.82,7.62l10.58-12.56c-3-2.47-5.91-5-8.82-7.62m58,41.78L312.64,828c3.37,1.94,6.72,3.92,10.14,5.75l7.89-14.36c-3.42-1.84-6.78-3.8-10.14-5.75m452.19-77.56,12.59,10.61c2.54-3,5.07-5.9,7.51-8.92L780.2,727.13c-2.43,3-5,6-7.48,8.93m21.89-28.14,13.6,9.32c2.24-3.18,4.46-6.37,6.59-9.62l-13.63-9.34c-2.12,3.25-4.33,6.45-6.56,9.64m19-30.22,14.49,8c1.91-3.39,3.79-6.79,5.58-10.23l-14.51-8c-1.79,3.45-3.65,6.85-5.56,10.24m29.36-68,15.88,4.85c1.16-3.7,2.22-7.44,3.26-11.19l-15.9-4.85c-1,3.75-2.08,7.49-3.24,11.19m-13.5,36.14,15.23,6.51c1.56-3.57,3.08-7.14,4.52-10.75L834,635.05q-2.16,5.43-4.49,10.76M629.75,837.43l6.09,15.19c3.63-1.41,7.25-2.82,10.83-4.33l-6.11-15.2c-3.58,1.52-7.19,2.94-10.81,4.34m35.36-15.92L672.8,836c3.45-1.79,6.86-3.65,10.25-5.55L675.35,816c-3.39,1.9-6.8,3.76-10.24,5.55m-69.35,27.14,4.57,15.69q5.63-1.5,11.2-3.2L607,845.43c-3.71,1.15-7.45,2.19-11.2,3.22M696,803.48l9.09,13.64c3.25-2.12,6.45-4.33,9.64-6.56l-9.1-13.65c-3.18,2.24-6.38,4.44-9.63,6.57m29-21.05,10.41,12.69c3-2.43,6-5,8.93-7.48l-10.41-12.71c-3,2.54-5.91,5.06-8.93,7.5m29-26.07c-.8.8-1.63,1.53-2.44,2.32l11.63,11.63c.86-.85,1.77-1.65,2.63-2.51,1.9-1.9,3.68-3.88,5.53-5.81l-11.63-11.63c-1.91,2-3.76,4-5.72,6M290.47,794.15l-9.28,13.53c3.16,2.27,6.31,4.55,9.53,6.72L300,800.87c-3.22-2.17-6.37-4.44-9.52-6.72m47.37-612.48-8-15.08c-3.47,1.76-6.92,3.55-10.32,5.42l8,15.07c3.41-1.87,6.86-3.66,10.33-5.41m-30.55,17.44-9.46-14.2c-3.26,2.1-6.52,4.22-9.73,6.42l9.45,14.18c3.21-2.2,6.47-4.32,9.74-6.4m65.41-32.83-6.37-15.85c-3.63,1.38-7.28,2.72-10.87,4.22l6.37,15.85c3.59-1.49,7.23-2.84,10.87-4.22M278.56,219.5l-10.8-13.17c-3,2.4-6.07,4.83-9.05,7.33l10.78,13.16c3-2.5,6-4.92,9.07-7.32M246,248.29c2-2,4-3.81,6-5.72l-12-12c-1.93,1.85-3.91,3.63-5.8,5.53-.87.86-1.66,1.77-2.51,2.63l12,12c.79-.8,1.52-1.63,2.32-2.43m160.17-92.8-4.77-16.42c-3.75,1-7.52,2-11.23,3.12L395,158.62c3.71-1.13,7.47-2.12,11.22-3.12m134.74-10.05,1.69-17c-3.86-.43-7.72-.79-11.6-1.11l-1.69,17c3.88.32,7.75.68,11.6,1.11M440.53,148l-3.13-16.82c-3.84.64-7.68,1.24-11.48,2L429.05,150c3.8-.76,7.65-1.37,11.48-2M230.78,264.54l-13-10.92c-2.57,2.91-5.14,5.83-7.61,8.82l13,10.93c2.47-3,5-5.91,7.62-8.83M575.6,151.08l3.4-16.77c-3.79-.81-7.61-1.54-11.44-2.24l-3.36,16.78c3.83.69,7.65,1.42,11.44,2.23M178.7,663.23,164.09,671c1.75,3.47,3.51,6.94,5.37,10.35l14.6-7.76c-1.86-3.42-3.61-6.89-5.36-10.36M500,143.07c2,0,3.89.11,5.85.14V126.1c-2,0-3.89-.14-5.85-.14s-3.87.11-5.81.14v17.11c1.94,0,3.87-.14,5.81-.14m-24.58.92L474,127c-3.87.27-7.76.49-11.62.87l1.46,17c3.86-.39,7.75-.62,11.63-.88m-330.23,415-16.37,3c.61,3.84,1.25,7.68,2,11.49l16.38-3c-.73-3.81-1.38-7.65-2-11.49m-3.8-35.3-16.63,1.43c.24,3.88.5,7.76.85,11.62l16.63-1.43q-.53-5.79-.85-11.62M163.28,627.8l-15.4,6.2c1.36,3.64,2.72,7.28,4.19,10.88l15.39-6.19c-1.47-3.59-2.84-7.23-4.19-10.87m-10.73-33.93-16,4.65c1,3.76,2,7.51,3.1,11.23l16-4.64c-1.11-3.73-2.12-7.48-3.1-11.24M208.71,292l-14-9.58c-2.28,3.15-4.55,6.31-6.72,9.53l14,9.58c2.17-3.22,4.44-6.38,6.72-9.53m-68,210.29c0-3.12.15-6.2.23-9.3h-16.7c-.07,3-.21,5.93-.21,8.91,0,.92.06,1.82.06,2.74H140.8c0-.79-.06-1.57-.06-2.35M800.88,259.76l11.42-9.36c-2.43-3-4.95-6-7.48-8.93l-11.44,9.37c2.54,2.95,5.07,5.9,7.5,8.92M173.13,353l-15.52-6.63c-1.61,3.54-3.23,7.07-4.73,10.66l15.53,6.63c1.5-3.59,3.1-7.12,4.72-10.66m16.27-31.35-14.82-8.14c-2,3.36-3.91,6.72-5.75,10.14l14.82,8.14c1.85-3.41,3.79-6.78,5.75-10.14m-30.28,67L143,383.75c-1.22,3.68-2.44,7.37-3.54,11.09l16.1,4.92c1.1-3.73,2.32-7.41,3.55-11.1m-9.47,34.09-16.48-3.31c-.85,3.79-1.69,7.58-2.41,11.41l16.46,3.29c.73-3.82,1.57-7.61,2.42-11.39m728.6,157.78,14.17,2.84c.79-3.8,1.46-7.62,2.14-11.45l-14.19-2.84c-.66,3.83-1.33,7.66-2.12,11.45M380.76,869.42,376.63,883c3.69,1.19,7.4,2.35,11.13,3.43l4.14-13.54c-3.74-1.09-7.44-2.25-11.14-3.44M854.53,805l5.89,5c2.54-3,5.14-5.84,7.6-8.84l-5.91-5c-2.45,3-5.05,5.9-7.58,8.84M417.87,879.39l-2.78,13.88c3.8.82,7.6,1.59,11.43,2.29l2.78-13.88q-5.74-1-11.43-2.29M889.6,758.92c-2.15,3.23-4.44,6.37-6.68,9.56l6.39,4.37c2.23-3.18,4.53-6.32,6.69-9.55l-6.4-4.38M455.85,885.62l-1.4,14.07c3.86.44,7.72.81,11.6,1.14l1.39-14.08q-5.81-.48-11.59-1.13m-114-31.16-5.57,13c3.55,1.59,7.07,3.22,10.66,4.7l5.57-13c-3.59-1.48-7.12-3.11-10.66-4.7m185.58,32.66,1.21,14.09c3.88-.27,7.77-.49,11.63-.87l-1.21-14.1c-3.86.38-7.74.61-11.63.88M792.63,865l4.85,5.91c3-2.43,6-4.93,9-7.45l-4.86-5.92c-3,2.51-5.93,5-9,7.46m-227,17.56,2.59,13.91c3.83-.66,7.67-1.27,11.48-2l-2.6-13.92c-3.8.77-7.64,1.39-11.47,2M307.69,837l-6.83,12.44c3.37,1.94,6.72,3.92,10.14,5.75l6.83-12.44c-3.42-1.84-6.77-3.81-10.14-5.75M500,888.19c-1.94,0-3.87-.11-5.81-.13V902.2c1.94,0,3.87.14,5.81.14s3.89-.12,5.85-.14V888.05c-2,0-3.89.14-5.85.14m330.39-57c-1.06,1-2.17,2-3.23,3.07l5.43,5.43c1.13-1.11,2.31-2.15,3.43-3.27,1.63-1.64,3.16-3.35,4.77-5L835.35,826c-1.67,1.73-3.26,3.51-5,5.22m-585-38.91-9.17,10.89c2.93,2.57,5.84,5.15,8.83,7.62l9.16-10.89c-3-2.47-5.9-5-8.82-7.62M174,709.1,162.05,717c2.1,3.27,4.2,6.53,6.39,9.75l11.91-7.94c-2.19-3.21-4.29-6.48-6.38-9.75M960.35,320.21l5.49-2.2c-1.42-3.62-2.77-7.26-4.26-10.85l-5.51,2.21c1.5,3.59,2.87,7.22,4.28,10.84m-695.3-52.44c2-2,4.14-3.95,6.21-5.92l-13.57-13.56c-2,1.91-4,3.75-6,5.72-.79.79-1.53,1.63-2.32,2.43L262.92,270c.73-.73,1.4-1.5,2.13-2.23M155,675.84l-12.68,6.74c1.76,3.46,3.52,6.93,5.38,10.34l12.66-6.74c-1.86-3.41-3.61-6.88-5.36-10.34m-16.68-38L125,643.23c1.38,3.64,2.72,7.28,4.2,10.87l13.35-5.36c-1.47-3.59-2.83-7.24-4.19-10.87M226.9,775.06c-1.89-1.89-3.67-3.86-5.52-5.79L211.3,779.36c1.79,1.85,3.5,3.76,5.33,5.59.93.93,1.9,1.79,2.84,2.71l10.08-10.08c-.87-.85-1.79-1.65-2.65-2.52m95.56-553.21-10.67-16c-3.27,2.09-6.53,4.21-9.74,6.41l10.67,16c3.21-2.2,6.47-4.31,9.74-6.39M275.4,816.17l-8,11.73c3.16,2.26,6.31,4.55,9.53,6.71l8-11.72c-3.21-2.16-6.36-4.45-9.52-6.72m663.14-544,5.25-2.79c-1.8-3.45-3.64-6.86-5.52-10.27L933,261.86c1.88,3.4,3.74,6.81,5.54,10.25m-642.65-31.5L283.7,225.75c-3.05,2.4-6.08,4.82-9.06,7.32l12.17,14.85c3-2.5,6-4.92,9.08-7.31M603.2,874.21l4,13.59c3.75-1,7.5-2,11.21-3.18l-4-13.61c-3.71,1.15-7.46,2.17-11.21,3.2m-407-133.84-11.06,9.06c2.41,3,4.83,6.08,7.33,9.06l11-9c-2.5-3-4.91-6-7.31-9.07m186.7-548.7-7.19-17.88c-3.63,1.37-7.27,2.73-10.86,4.22L372,195.9c3.58-1.49,7.22-2.86,10.86-4.23m30.9-9.9-5.39-18.52c-3.76,1-7.52,2-11.23,3.13l5.39,18.52c3.71-1.13,7.47-2.13,11.22-3.13M913.86,230.1l5-3.31c-2.13-3.25-4.32-6.45-6.52-9.66l-5,3.33c2.21,3.19,4.4,6.4,6.53,9.64M350.68,205.81l-9.05-17c-3.46,1.75-6.91,3.53-10.32,5.41l9.05,17c3.41-1.88,6.86-3.66,10.32-5.41M580.27,961l1.39,7.45c3.83-.66,7.68-1.23,11.48-2L591.76,959c-3.81.75-7.66,1.33-11.49,2M854.16,656.35,867.38,662c1.55-3.57,3.09-7.13,4.54-10.74l-13.24-5.65c-1.45,3.6-3,7.18-4.52,10.74m17.78-50c-1,3.74-2.1,7.48-3.26,11.19l13.79,4.2c1.16-3.7,2.22-7.44,3.27-11.18l-13.8-4.21M500,170.45c2,0,3.89.11,5.85.14v-19.3c-2,0-3.89-.14-5.85-.14s-3.87.11-5.81.14v19.3c1.94,0,3.87-.14,5.81-.14m349.47-19.53c1.13,1.12,2.17,2.3,3.28,3.44l4.27-4.27c-1.18-1.2-2.28-2.45-3.47-3.64-1.57-1.57-3.21-3-4.8-4.57l-4.28,4.27c1.66,1.61,3.37,3.13,5,4.77m35.67,39.78,4.64-3.81c-2.43-3-4.93-6-7.44-9l-4.66,3.82c2.51,3,5,5.94,7.46,9M477.76,171.27l-1.65-19.22c-3.88.26-7.77.5-11.63.88l1.66,19.23c3.85-.38,7.73-.63,11.62-.89M445.55,175,442,156c-3.83.64-7.67,1.25-11.48,2l3.54,19c3.8-.75,7.64-1.38,11.48-2M677.63,845l6.67,12.53q5.16-2.68,10.25-5.54l-6.67-12.53c-3.39,1.89-6.8,3.75-10.25,5.54m33.15-19.37,7.88,11.83c3.25-2.13,6.45-4.33,9.64-6.55l-7.88-11.83c-3.19,2.22-6.39,4.43-9.64,6.55m4.42,90,3.58,6.72q5.18-2.69,10.27-5.51l-3.58-6.73c-3.41,1.88-6.82,3.73-10.27,5.52m-75.53-53.49L645,875.31c3.62-1.41,7.25-2.8,10.83-4.31l-5.29-13.17c-3.58,1.52-7.2,2.92-10.83,4.33M741.9,803.07l9,11c3-2.43,6-5,8.94-7.48l-9-11c-3,2.54-5.92,5-8.94,7.49m13.3,89.2,4.23,6.35c3.25-2.13,6.46-4.31,9.66-6.52l-4.24-6.36c-3.2,2.21-6.41,4.4-9.65,6.53m82-201.66,12.57,6.9c1.91-3.39,3.81-6.78,5.61-10.22l-12.59-6.91c-1.8,3.44-3.68,6.84-5.59,10.23m-20.42,32.44,11.8,8.09c2.23-3.18,4.47-6.36,6.6-9.6l-11.81-8.1c-2.13,3.24-4.36,6.43-6.59,9.61M625.52,950.91l2.13,7.28c3.74-1,7.51-2,11.22-3.12l-2.12-7.3c-3.71,1.13-7.48,2.1-11.23,3.14M793.17,753.29l10.92,9.19c2.54-3,5.08-5.89,7.53-8.9l-10.94-9.2c-2.44,3-5,6-7.51,8.91m-123.7,183,2.83,7c3.62-1.41,7.27-2.75,10.85-4.25L680.31,932c-3.58,1.49-7.22,2.85-10.84,4.26M773.13,775.06c-.86.86-1.77,1.66-2.64,2.51l10.08,10.08c.93-.92,1.9-1.77,2.83-2.7,1.83-1.83,3.55-3.74,5.34-5.61l-10.08-10.08c-1.86,1.93-3.64,3.91-5.53,5.8M209.93,247l-11.3-9.52c-2.56,2.92-5.14,5.83-7.61,8.82l11.3,9.52c2.47-3,5-5.9,7.61-8.82M473.08,116.71l-1.28-14.86c-3.88.27-7.77.48-11.62.86l1.27,14.86c3.86-.38,7.75-.59,11.63-.86m26.92-1c2,0,3.89.11,5.85.15v-15c-2,0-3.89-.14-5.85-.14s-3.87.11-5.81.14v14.91c1.94,0,3.87-.14,5.81-.14M171.71,554.13l-18.52,3.46c.6,3.84,1.25,7.68,2,11.49l18.53-3.46q-1.09-5.72-2-11.49m-4-51.42c0-3.24.14-6.46.23-9.68h-18.9c-.08,3.1-.23,6.18-.23,9.3,0,.78.06,1.56.06,2.35h18.9v-2m816.08,99,5.57,1.11c.79-3.8,1.51-7.62,2.21-11.44L986,590.23c-.7,3.83-1.4,7.65-2.19,11.45M178.36,586.41l-18.06,5.25c1,3.76,2,7.51,3.1,11.24l18.06-5.26q-1.65-5.58-3.1-11.23M435.52,121.12l-2.74-14.66c-3.83.65-7.68,1.24-11.49,2L424,123.11c3.8-.76,7.65-1.35,11.49-2M991.36,553.38l5.7.56c.41-3.86.74-7.73,1.06-11.6l-5.71-.57c-.32,3.88-.64,7.75-1,11.61M325,157.52l-7-13.14c-3.46,1.77-6.9,3.56-10.31,5.43l7,13.12c3.41-1.87,6.85-3.65,10.31-5.41m37.52-16.64L357,127.06c-3.63,1.39-7.27,2.73-10.86,4.22l5.55,13.82c3.59-1.49,7.23-2.83,10.87-4.22M168.3,521.47l-18.81,1.61q.33,5.83.85,11.62l18.81-1.61q-.53-5.79-.85-11.62M398.49,129.2l-4.16-14.31c-3.75,1-7.52,2-11.23,3.11l4.16,14.31c3.72-1.12,7.48-2.1,11.23-3.11m145.09-11,1.47-14.84c-3.85-.43-7.72-.79-11.6-1.11L532,117.08c3.88.32,7.75.68,11.6,1.11m-325,561.19L203,689.76c2.07,3.28,4.16,6.54,6.36,9.76l15.55-10.37c-2.19-3.21-4.28-6.48-6.35-9.77M721.79,185.72l8.39-12.24c-3.18-2.24-6.34-4.49-9.57-6.64L712.2,179.1c3.24,2.14,6.41,4.39,9.59,6.62M971.54,648.93l5.4,1.65q1.74-5.55,3.35-11.16l-5.42-1.65c-1.08,3.73-2.17,7.46-3.33,11.16M751.65,209l9.54-11.34c-2.94-2.54-5.87-5.09-8.88-7.54l-9.56,11.35c3,2.44,6,5,8.9,7.53m21.48,19.78c.86.87,1.66,1.78,2.52,2.65L786.11,221c-.92-.94-1.78-1.92-2.71-2.85-1.83-1.83-3.74-3.54-5.6-5.33L767.33,223.3c1.93,1.84,3.9,3.62,5.8,5.51M581,124.23l2.93-14.62c-3.8-.81-7.61-1.54-11.44-2.24l-3,14.63c3.83.7,7.64,1.43,11.44,2.24m36.57,9.67,4.36-14.25c-3.7-1.18-7.42-2.29-11.16-3.36l-4.35,14.26q5.6,1.59,11.15,3.35M188.19,617.84l-17.42,7c1.35,3.64,2.72,7.28,4.19,10.87l17.43-7c-1.48-3.59-2.85-7.23-4.2-10.87M689.75,165.43l7.15-13c-3.38-1.91-6.76-3.84-10.19-5.65l-7.16,13.05c3.43,1.81,6.81,3.72,10.2,5.63M202.39,650.63l-16.54,8.8c1.73,3.48,3.49,6.94,5.34,10.36l16.54-8.8c-1.86-3.42-3.61-6.89-5.34-10.36m49.23-368.54L237,269.75c-2.58,2.91-5.14,5.84-7.61,8.82L244,290.91c2.47-3,5-5.91,7.61-8.82M655.92,148.45l5.84-13.7c-3.55-1.57-7.11-3.14-10.7-4.6l-5.85,13.7c3.6,1.46,7.15,3,10.71,4.6M133.17,380.74l-14-4.28c-1.21,3.69-2.42,7.38-3.52,11.11l14,4.27c1.11-3.73,2.32-7.41,3.54-11.1m80.07-46-16.75-9.2c-2,3.36-3.91,6.73-5.75,10.14l16.75,9.2c1.84-3.42,3.77-6.79,5.75-10.14M107.08,753.67l-6.45,4.3c2.11,3.26,4.24,6.51,6.43,9.72l6.44-4.29c-2.2-3.22-4.31-6.47-6.42-9.73M116.67,455l-14.51-1.44c-.46,3.86-.9,7.71-1.25,11.59l14.48,1.43c.35-3.87.81-7.73,1.28-11.58m6.41-37.59-14.33-2.87c-.83,3.79-1.66,7.58-2.39,11.4l14.31,2.87c.73-3.82,1.57-7.61,2.41-11.4m75-53.78-17.54-7.48c-1.62,3.53-3.23,7.07-4.73,10.65l17.54,7.49c1.51-3.59,3.1-7.13,4.73-10.66M113.75,501.94c0-3,.15-5.94.21-8.91H99.43c-.06,2.84-.21,5.67-.21,8.52,0,1.05.07,2.08.08,3.13h14.51c0-.92-.06-1.82-.06-2.74m13,99.5-13.85,4c1,3.76,2,7.51,3.1,11.23l13.85-4c-1.11-3.72-2.11-7.47-3.1-11.23m849.1-235,5.64-1.64c-1-3.74-2-7.51-3.14-11.23l-5.66,1.65c1.14,3.71,2.12,7.48,3.16,11.22M118.77,564l-14.22,2.65c.62,3.84,1.25,7.67,2,11.48l14.21-2.65c-.73-3.81-1.37-7.64-2-11.48M231.15,307.43l-15.77-10.82c-2.29,3.15-4.55,6.32-6.72,9.53L224.44,317c2.17-3.21,4.42-6.38,6.71-9.53M114.57,526.08l-14.44,1.24c.25,3.88.5,7.76.85,11.62l14.45-1.24c-.36-3.86-.62-7.74-.86-11.62m879.66-25.69c0,1.43-.09,2.86-.1,4.29h5.76c0-1.57.11-3.11.11-4.68,0-2.34-.14-4.65-.17-7h-5.78c0,2.45.18,4.89.18,7.36m-823.74-40-18.87-1.87c-.47,3.85-.94,7.71-1.29,11.58l18.85,1.87c.36-3.88.83-7.73,1.31-11.58m67.09,246.09-14.44,11.84c2.39,3.06,4.81,6.1,7.31,9.08l14.43-11.83c-2.5-3-4.91-6-7.3-9.09M148.15,342.33l-13.51-5.77c-1.6,3.54-3.23,7.07-4.72,10.66l13.5,5.76c1.5-3.58,3.12-7.12,4.73-10.65m113.1-143.95-9.41-11.47q-4.56,3.6-9.05,7.34l9.4,11.46c3-2.5,6-4.92,9.06-7.33m30.88-22L283.89,164c-3.26,2.1-6.51,4.22-9.72,6.43l8.23,12.35c3.21-2.2,6.46-4.32,9.73-6.41m-65.25,52.45c1.9-1.89,3.88-3.67,5.81-5.53l-10.47-10.47c-1.87,1.79-3.78,3.51-5.61,5.34-.93.93-1.78,1.9-2.7,2.83l10.46,10.47c.86-.87,1.65-1.77,2.51-2.64M176.21,428.06l-18.64-3.73c-.85,3.79-1.69,7.58-2.42,11.4l18.61,3.73c.73-3.83,1.58-7.61,2.45-11.4m8.85-31.47L166.85,391c-1.23,3.68-2.45,7.37-3.55,11.09l18.19,5.56c1.11-3.73,2.33-7.41,3.57-11.09m-19.49-88-12.91-7.08c-1.94,3.36-3.9,6.72-5.75,10.14l12.9,7.08c1.85-3.41,3.8-6.78,5.76-10.14m20.69-31.9-12.16-8.34c-2.28,3.15-4.55,6.31-6.72,9.52l12.16,8.34c2.17-3.21,4.44-6.37,6.72-9.52m806.4,185.78,5.77-.5c-.29-3.88-.47-7.77-.85-11.62l-5.8.5c.38,3.85.58,7.74.88,11.62m-72.55,170.8,9.6,2.93c1.16-3.7,2.24-7.43,3.31-11.17l-9.62-2.94c-1.06,3.74-2.13,7.47-3.29,11.18M468.39,62.16l-.9-10.49c-3.87.27-7.76.48-11.62.85l.9,10.49c3.86-.37,7.75-.57,11.62-.85M500,60.92c2,0,3.89.12,5.85.14V50.52c-2,0-3.89-.14-5.85-.14s-3.87.12-5.81.14V61.06c1.94,0,3.87-.14,5.81-.14M864.07,208l6.35-5.19c-2.44-3-4.95-6-7.46-9l-6.35,5.2c2.52,3,5,5.94,7.46,9M549,63.69l1-10.48c-3.86-.42-7.72-.78-11.6-1.11l-1,10.48c3.88.33,7.75.69,11.6,1.11m342.24,181.5,6.8-4.53c-2.13-3.24-4.32-6.45-6.54-9.64l-6.81,4.53c2.22,3.2,4.42,6.4,6.55,9.64M425.48,67.29l-1.93-10.35c-3.83.65-7.68,1.24-11.49,2L414,69.28c3.81-.75,7.66-1.34,11.49-2M342.1,90.1l-3.92-9.76c-3.63,1.4-7.28,2.72-10.87,4.21l3.91,9.75c3.59-1.48,7.25-2.81,10.88-4.2m41.09-13.47-2.94-10.1c-3.74,1-7.52,2-11.23,3.1l3,10.11c3.72-1.13,7.48-2.08,11.23-3.11m531.3,208.25,7.18-3.82c-1.8-3.45-3.66-6.85-5.54-10.26l-7.2,3.83c1.89,3.4,3.76,6.81,5.56,10.25M716.06,117.51l5.05-9.19c-3.38-1.91-6.74-3.87-10.17-5.69l-5.06,9.2c3.43,1.82,6.8,3.77,10.18,5.68m36.62,23.17L758.6,132c-3.18-2.23-6.33-4.53-9.55-6.68L743.12,134c3.23,2.14,6.38,4.43,9.56,6.67m15.44-22.53,4.68-6.82c-3.17-2.24-6.3-4.56-9.53-6.71l-4.69,6.84c3.23,2.15,6.37,4.45,9.54,6.69m36.25,28.27,5.31-6.31c-2.94-2.54-5.83-5.16-8.83-7.61l-5.32,6.32c3,2.46,5.89,5.06,8.84,7.6M591.73,70.53l2.07-10.32c-3.8-.8-7.61-1.54-11.44-2.25l-2.07,10.33q5.75,1,11.44,2.24m85.66,27.59,4.13-9.66c-3.56-1.56-7.1-3.17-10.69-4.64l-4.13,9.67c3.6,1.47,7.13,3.07,10.69,4.63m153,72.27c1.06,1.05,2,2.17,3.09,3.24l5.81-5.81c-1.11-1.14-2.15-2.32-3.27-3.45-1.64-1.63-3.35-3.15-5-4.76l-5.83,5.83c1.72,1.67,3.5,3.25,5.19,4.95M633.54,81.54l3.08-10.06q-5.55-1.76-11.16-3.37l-3.07,10.06q5.6,1.62,11.15,3.37M299.29,109.23,294.35,100c-3.45,1.77-6.89,3.57-10.3,5.44L289,114.7c3.41-1.87,6.85-3.66,10.31-5.43m487.5,58.06,6.73-8c-2.95-2.54-5.85-5.13-8.85-7.59l-6.74,8c3,2.46,5.92,5,8.86,7.58m179,297.44,8-.68c-.29-3.87-.51-7.76-.89-11.62l-8,.69c.39,3.85.62,7.74.92,11.61M81.28,364.9l-9.82-3c-1.2,3.7-2.4,7.39-3.49,11.12l9.81,3c1.1-3.73,2.3-7.42,3.5-11.11m36.62-82.52-9.07-5c-1.93,3.37-3.91,6.72-5.75,10.14l9.07,5c1.84-3.42,3.81-6.77,5.75-10.14M62.84,449.69l-10.15-1c-.44,3.86-.87,7.72-1.21,11.6l10.13,1c.35-3.88.79-7.74,1.23-11.59m78.53-203.83L132.81,240c-2.26,3.16-4.55,6.31-6.72,9.53l8.56,5.86c2.17-3.21,4.45-6.36,6.72-9.53M967.24,500.77c0,1.31-.09,2.61-.1,3.91h8c0-1.43.1-2.86.1-4.29,0-2.47-.14-4.91-.18-7.36h-8c0,2.58.19,5.15.19,7.74M70,406.79l-10-2c-.82,3.79-1.63,7.59-2.36,11.41l10,2c.73-3.82,1.55-7.62,2.38-11.41M98.19,321l-9.48-4c-1.59,3.5-3.23,7-4.71,10.61l9.48,4.05c1.49-3.58,3.13-7.11,4.72-10.66M261.83,130.87,256,122.15c-3.25,2.11-6.5,4.25-9.71,6.44l5.81,8.72c3.21-2.2,6.45-4.33,9.72-6.44M935.17,330.33l7.51-3c-1.41-3.62-2.79-7.25-4.29-10.83l-7.53,3c1.5,3.58,2.89,7.21,4.31,10.83M960,419l7.89-1.48c-.67-3.82-1.27-7.67-2-11.47l-7.9,1.47c.77,3.81,1.38,7.65,2,11.48M226.63,156.15,220,148.07c-3,2.42-6.05,4.86-9,7.36l6.62,8.07c3-2.5,6-4.93,9-7.35M949.79,374l7.74-2.25c-1-3.74-2-7.5-3.17-11.21l-7.76,2.26c1.14,3.71,2.14,7.46,3.19,11.2M168.26,211.9l-8-6.69c-2.55,2.93-5.14,5.83-7.62,8.82l8,6.7c2.48-3,5.06-5.9,7.62-8.83m95,437.68-19.2,12.8c2.06,3.29,4.15,6.58,6.33,9.79l19.19-12.79c-2.18-3.21-4.27-6.49-6.32-9.8m30-332.39-17.9-15.07c-2.59,2.9-5.15,5.82-7.63,8.81l18,15.07c2.47-3,5-5.93,7.62-8.82M261.09,361l-20.58-11.29c-2,3.34-3.95,6.69-5.8,10.11l20.57,11.29c1.86-3.42,3.81-6.77,5.81-10.11m8.41-13.25c2.15-3.21,4.4-6.34,6.68-9.45L256.82,325c-2.3,3.13-4.58,6.28-6.76,9.5l19.39,13.29.05-.07M248.25,385l-21.56-9.21c-1.65,3.52-3.27,7-4.78,10.63l21.55,9.2c1.52-3.58,3.14-7.11,4.79-10.62M964.54,550.72l7.87.78c.41-3.85.73-7.73,1.05-11.61l-7.89-.77c-.31,3.87-.62,7.75-1,11.6m-61,126.71,9.19,3.92c1.56-3.56,3.14-7.11,4.6-10.71l-9.21-3.93c-1.46,3.6-3,7.16-4.58,10.72m-666.45-265-22.4-6.84c-1.26,3.67-2.47,7.36-3.59,11.09l22.38,6.84c1.12-3.74,2.34-7.42,3.61-11.09m72.68-112.1-16.51-16.51c-2.82,2.66-5.62,5.36-8.34,8.14l16.52,16.52q4.08-4.17,8.33-8.15M466.05,34.89l-.71-8.32c-3.88.28-7.76.48-11.62.85l.71,8.32c3.86-.37,7.75-.58,11.62-.85M224.74,544.25l-22.88,4.26c.58,3.86,1.3,7.67,2,11.48l22.82-4.25c-.73-3.81-1.41-7.63-2-11.49m13.45,53.51-21.52,8.64c1.33,3.66,2.79,7.26,4.26,10.85l21.47-8.63c-1.47-3.59-2.89-7.2-4.21-10.86m-8.07-26.42-22.3,6.49c1,3.78,2.05,7.5,3.16,11.22l22.26-6.48c-1.11-3.71-2.17-7.45-3.12-11.23M854,563.79c-.66,3.83-1.32,7.66-2.1,11.46l16.31,3.27c.79-3.8,1.46-7.63,2.12-11.46L854,563.79M249.88,625.36l-20.39,10.85c1.72,3.49,3.46,7,5.32,10.37l20.39-10.86c-1.85-3.4-3.6-6.87-5.32-10.36M222.06,516.85l-23.22,2c.21,3.89.54,7.76.89,11.62l23.17-2c-.34-3.86-.66-7.73-.84-11.63m2.3-51.16-23.23-2.3c-.51,3.84-1,7.69-1.34,11.58l23.2,2.29c.37-3.88.84-7.73,1.37-11.57m-2.64,37.81c0-3.52.14-7,.27-10.47h-23.3c-.11,3.35-.26,6.69-.26,10.07v1.58h23.28v-1.18m7.69-64.78-22.93-4.59c-.88,3.77-1.73,7.56-2.47,11.39l22.91,4.58c.74-3.82,1.59-7.61,2.49-11.38M910,340.45l9.55-3.84c-1.42-3.62-2.81-7.24-4.32-10.82l-9.57,3.84c1.51,3.58,2.92,7.2,4.34,10.82M811.3,189.87c1,1,1.92,2,2.9,3l7.37-7.37c-1.05-1.06-2-2.18-3.09-3.24-1.7-1.7-3.48-3.28-5.2-5l-7.38,7.37c1.79,1.73,3.64,3.38,5.4,5.15M500,33.54c2,0,3.89.12,5.85.14V25.33c-2,0-3.89-.14-5.85-.14s-3.87.12-5.81.14v8.35c1.94,0,3.87-.14,5.81-.14M641.54,55.36l2.43-8q-5.55-1.76-11.15-3.38l-2.43,8q5.6,1.62,11.15,3.37M688.13,73l3.27-7.64c-3.56-1.57-7.09-3.19-10.68-4.67l-3.27,7.66c3.59,1.47,7.13,3.09,10.68,4.65M923.77,381.59l9.84-2.87c-1-3.74-2.06-7.49-3.2-11.2l-9.87,2.87c1.14,3.71,2.18,7.46,3.23,11.2m-55.2-121.31,8.63-5.75c-2.13-3.24-4.34-6.44-6.55-9.63L862,250.65c2.22,3.19,4.44,6.39,6.56,9.63M729.22,93.55l4-7.28c-3.38-1.91-6.73-3.89-10.15-5.71l-4,7.28c3.42,1.83,6.78,3.8,10.16,5.71M843,225.23l8-6.59c-2.43-3-4.94-6-7.46-8.95l-8,6.6c2.52,3,5,5.92,7.48,8.94m47.52,72.42,9.12-4.85c-1.8-3.45-3.66-6.85-5.55-10.25L885,287.41c1.9,3.4,3.77,6.8,5.57,10.24m47.19,250.41,10.06,1c.41-3.85.72-7.73,1-11.61l-10.08-1c-.31,3.87-.6,7.75-1,11.6m-386-511.61.82-8.31c-3.85-.42-7.72-.78-11.6-1.11l-.82,8.31c3.88.32,7.74.68,11.6,1.11M931,591.11l9.87,2c.79-3.8,1.49-7.62,2.17-11.45l-9.89-2c-.68,3.83-1.36,7.65-2.15,11.46M933.41,424l10-1.88c-.67-3.83-1.29-7.67-2.06-11.47l-10.07,1.88c.77,3.8,1.41,7.64,2.09,11.47m6.83,77.19c0,1.18-.07,2.34-.08,3.52H950.3c0-1.3.09-2.6.09-3.91,0-2.59-.14-5.16-.18-7.74H940.05c0,2.71.19,5.41.19,8.13M597.11,43.68l1.63-8.17q-5.68-1.2-11.43-2.25l-1.64,8.18q5.75,1.05,11.44,2.24M938.82,467l10.14-.86c-.3-3.88-.54-7.77-.93-11.62l-10.16.87c.39,3.86.65,7.74,1,11.61M188.7,189.87c1.77-1.77,3.62-3.43,5.42-5.16l-7.38-7.37c-1.72,1.67-3.51,3.26-5.21,5-1.06,1.06-2,2.17-3.08,3.23l7.37,7.36c1-1,1.89-2,2.88-3m527.87,139L734.69,314c-2.44-3-5-6-7.51-8.91L709.08,320c2.55,2.92,5.06,5.89,7.49,8.93m-18-20.34L715.09,292c-2.71-2.77-5.51-5.47-8.33-8.14l-16.51,16.51q4.25,4,8.32,8.16m-17.14-16.11,15-17.84q-4.41-3.81-9-7.44l-15,17.84q4.58,3.61,9,7.44M660.09,275.7l13.17-19.2c-3.18-2.24-6.39-4.41-9.66-6.53l-13.16,19.2q4.89,3.16,9.65,6.53m98.63,125.51,21.74-8.73c-1.44-3.62-2.92-7.21-4.49-10.76l-21.77,8.75q2.37,5.31,4.52,10.74m-28.26-53.52c.72,1.06,1.39,2.15,2.09,3.22l19.55-13c-2.14-3.25-4.35-6.44-6.6-9.6l-19.5,13c1.51,2.12,3,4.23,4.5,6.39m-93.3-86.56,11.2-20.4q-5.07-2.86-10.24-5.55L627,255.57q5.19,2.69,10.25,5.56M746.39,374.35l20.71-11q-2.73-5.16-5.64-10.2l-20.73,11c1.95,3.35,3.85,6.75,5.66,10.19M811.3,812.46c-1,1-2,1.91-3,2.89l7,7c1.06-1,2.17-2,3.23-3.07,1.7-1.7,3.29-3.48,5-5.21l-7-7c-1.73,1.79-3.38,3.63-5.15,5.4M532.82,226.81l2.3-23.16c-3.85-.45-7.72-.81-11.6-1.11l-2.3,23.15c3.89.3,7.76.66,11.6,1.12m328,526.52L869,759c2.24-3.18,4.52-6.34,6.67-9.57l-8.21-5.62c-2.14,3.23-4.41,6.39-6.64,9.57m-26.77,34.4,7.56,6.37c2.54-3,5.13-5.86,7.58-8.86l-7.59-6.38c-2.44,3-5,5.92-7.55,8.87M767.53,427.06,790,420.52c-1.07-3.74-2.19-7.46-3.4-11.14l-22.49,6.54q1.83,5.52,3.43,11.14M613,248.89l9.14-21.4q-5.32-2.37-10.74-4.52l-9.14,21.39c3.62,1.44,7.2,2.94,10.74,4.53m-27.38-10.54,6.8-22.26c-3.69-1.19-7.42-2.28-11.17-3.33L574.5,235c3.75,1.05,7.48,2.15,11.16,3.35m304.1,467.87c-1.82,3.43-3.74,6.81-5.65,10.2l8.73,4.79c1.91-3.39,3.85-6.76,5.67-10.19l-8.75-4.8M559.54,231.28l4.57-22.82c-3.79-.82-7.6-1.54-11.44-2.23l-4.57,22.82c3.84.67,7.66,1.4,11.44,2.23M59.76,501.16c0-2.72.15-5.42.2-8.13H49.8c0,2.58-.19,5.15-.19,7.74,0,1.31.09,2.61.1,3.91H59.85c0-1.18-.09-2.34-.09-3.52m714-47.42,23-4.28q-1-5.76-2.27-11.43l-23,4.28c.86,3.78,1.62,7.59,2.32,11.43M500,224.81c2,0,3.89.1,5.85.14V201.68c-2,0-3.89-.14-5.85-.14s-3.87.11-5.81.14V225c1.94,0,3.86-.14,5.81-.14m-370.62,514-8.28,5.52c2.11,3.26,4.23,6.51,6.42,9.72l8.26-5.5c-2.19-3.22-4.3-6.47-6.4-9.74m59.32,73.65c-1.76-1.76-3.41-3.61-5.13-5.39l-7,7c1.67,1.72,3.25,3.5,5,5.2,1.06,1.06,2.18,2,3.25,3.09l7-7c-1-1-2.05-1.9-3.05-2.9m164-545.27-12.9-19.37c-3.29,2.07-6.56,4.18-9.76,6.37L343,273.63c3.19-2.21,6.45-4.32,9.74-6.39M211,833.11l-6.34,7.53c2.93,2.56,5.83,5.15,8.82,7.62l6.35-7.53c-3-2.48-5.9-5.06-8.83-7.62M907.61,729.32l6.81,3.74c1.91-3.39,3.87-6.75,5.69-10.17l-6.82-3.75c-1.82,3.43-3.77,6.79-5.68,10.18M282,883.73l-4.72,8.6c3.37,1.93,6.71,3.92,10.13,5.75l4.73-8.6c-3.42-1.83-6.77-3.82-10.14-5.75m48.37-601-14.78-18c-3.07,2.38-6.11,4.79-9.09,7.28l14.79,18c3-2.5,6-4.92,9.08-7.3M245.21,860.16l-5.56,8.11c3.17,2.25,6.31,4.55,9.52,6.71l5.56-8.1c-3.22-2.17-6.36-4.46-9.52-6.72M154.8,774.3l-7.66,6.28c2.42,3,4.85,6.06,7.36,9l7.65-6.27c-2.5-3-4.93-6-7.35-9M928.23,688l7.18,3.06c1.55-3.56,3.15-7.1,4.62-10.7l-7.19-3.07c-1.47,3.6-3.05,7.15-4.61,10.71M775.7,844.36l6.24,7.6c3-2.43,6-4.93,9-7.45l-6.25-7.62c-3,2.52-5.93,5-9,7.47M65.82,573.88l-9.91,1.85c.64,3.83,1.25,7.68,2,11.48l9.92-1.85c-.73-3.8-1.35-7.65-2-11.48m-5-43.19-10.08.87c.26,3.87.49,7.76.85,11.62l10.08-.87c-.35-3.86-.59-7.74-.85-11.62m896.58,65.7,7.72,1.55c.78-3.8,1.49-7.62,2.18-11.45l-7.73-1.55c-.7,3.83-1.39,7.65-2.17,11.45M945.8,641.08l7.5,2.29c1.16-3.7,2.26-7.43,3.33-11.16l-7.51-2.3c-1.07,3.74-2.16,7.47-3.32,11.17M107.64,701l-8.81,4.69c1.77,3.46,3.55,6.91,5.41,10.33l8.8-4.69c-1.87-3.41-3.63-6.87-5.4-10.33M88.49,657.89l-9.3,3.74c1.39,3.62,2.72,7.28,4.2,10.87l9.29-3.73c-1.48-3.6-2.81-7.25-4.19-10.88M75.06,616.47l-9.65,2.81c1,3.75,2,7.52,3.11,11.23l9.64-2.8c-1.1-3.73-2.09-7.49-3.1-11.24M455.52,228.4l-4.27-22.87c-3.84.63-7.68,1.29-11.47,2.06L444,230.45c3.79-.77,7.63-1.43,11.48-2m162.6,696.89,2.73,9.39c3.75-1,7.52-2,11.23-3.14l-2.74-9.4c-3.71,1.13-7.47,2.12-11.22,3.15m-42.69,9.55,1.79,9.6c3.83-.66,7.68-1.24,11.48-2l-1.78-9.61c-3.81.76-7.66,1.35-11.49,2m84.15-23.29,3.65,9.08c3.62-1.4,7.26-2.77,10.84-4.27l-3.65-9.09c-3.59,1.5-7.22,2.87-10.84,4.28M429,234l-6.5-22.33c-3.76,1-7.5,2-11.21,3.19l6.5,22.32C421.49,236,425.23,235,429,234M702.68,892.12l4.61,8.65c3.44-1.79,6.86-3.64,10.26-5.52l-4.61-8.66c-3.4,1.88-6.81,3.73-10.26,5.53m37.68-22,5.45,8.18c3.25-2.13,6.46-4.32,9.66-6.53L750,863.53c-3.19,2.22-6.4,4.42-9.65,6.54m-258-644.65-2-23.18c-3.89.25-7.78.51-11.62.91l2,23.2c3.84-.41,7.72-.69,11.61-.93m-79.21,16.77-8.67-21.58c-3.64,1.37-7.26,2.78-10.84,4.29l8.67,21.57c3.57-1.51,7.2-2.92,10.84-4.28M532,940.13l.84,9.73c3.88-.28,7.77-.48,11.62-.85l-.83-9.73c-3.86.38-7.75.58-11.63.85M407.42,931.6l-1.92,9.59q5.69,1.2,11.42,2.27l1.92-9.57q-5.73-1.07-11.42-2.29M365.2,920.37l-2.85,9.36c3.7,1.18,7.4,2.34,11.14,3.42l2.85-9.35q-5.59-1.63-11.14-3.43m11.08-666.45-10.93-20.54c-3.47,1.74-6.93,3.52-10.33,5.38l11,20.56c3.4-1.88,6.85-3.67,10.33-5.4M500,941.41c-1.94,0-3.87-.12-5.81-.14V951c1.94,0,3.87.14,5.81.14s3.89-.12,5.85-.14v-9.76c-2,0-3.89.14-5.85.14m-179-37.9-3.85,9c3.55,1.58,7.07,3.23,10.66,4.71l3.84-9c-3.59-1.48-7.11-3.13-10.65-4.71m129.62,35.1-1,9.72q5.79.65,11.6,1.13l1-9.72q-5.82-.5-11.6-1.13m134.55,48.63,1,5.29c3.83-.66,7.67-1.23,11.48-2l-1-5.3c-3.81.75-7.66,1.33-11.49,2m64.46-100.33L654.07,898c3.63-1.41,7.26-2.79,10.84-4.29l-4.47-11.14c-3.58,1.51-7.21,2.9-10.83,4.31m76-39,6.66,10c3.25-2.12,6.46-4.32,9.65-6.54l-6.66-10c-3.2,2.22-6.4,4.42-9.65,6.54M690.2,868.59l5.63,10.59c3.45-1.79,6.86-3.64,10.26-5.52L700.41,863c-3.4,1.89-6.81,3.75-10.25,5.54M286.44,85.08l-3.9-7.34c-3.46,1.78-6.9,3.58-10.31,5.45l3.9,7.33c3.41-1.87,6.85-3.67,10.31-5.44m45.45-20.37L328.79,57c-3.62,1.4-7.28,2.72-10.87,4.2L321,68.9c3.59-1.48,7.25-2.8,10.87-4.19M838.77,738.2l10,6.85c2.23-3.19,4.49-6.35,6.64-9.59l-10-6.86c-2.13,3.24-4.38,6.41-6.61,9.6M373,894.89l-3.5,11.46q5.55,1.78,11.14,3.43l3.5-11.45c-3.73-1.08-7.44-2.25-11.14-3.44m385.8-71.18,7.63,9.31c3-2.44,6-4.94,9-7.47l-7.63-9.31c-3,2.52-5.93,5-8.94,7.47m33.43-29.94c-.93.92-1.91,1.78-2.84,2.69L798,805c1-1,2-1.9,3-2.89,1.76-1.77,3.42-3.62,5.15-5.41l-8.53-8.53c-1.8,1.86-3.51,3.77-5.34,5.61M375.55,50.35l-2.34-8c-3.74,1-7.51,2-11.23,3.1l2.33,8c3.72-1.12,7.49-2.07,11.24-3.1M453.22,912.1,452,924q5.79.64,11.6,1.13l1.18-11.9q-5.82-.48-11.6-1.13M610.6,899.78l3.4,11.49c3.75-1,7.51-2,11.22-3.17l-3.34-11.5c-3.72,1.14-7.47,2.14-11.22,3.18M500,914.8c-1.94,0-3.87-.11-5.81-.14v12c1.94,0,3.87.15,5.81.15s3.89-.12,5.85-.15v-12c-2,0-3.89.14-5.85.14m-87.36-9.3-2.35,11.73c3.8.81,7.61,1.58,11.43,2.28l2.35-11.73c-3.83-.7-7.63-1.47-11.43-2.28m-243-735.11c1.71-1.71,3.49-3.3,5.22-5L169,159.6c-1.65,1.61-3.37,3.14-5,4.77-1.12,1.13-2.15,2.3-3.26,3.43l5.81,5.81c1-1.06,2-2.17,3.07-3.22m77.06-62.26-4.6-6.9c-3.25,2.12-6.49,4.25-9.7,6.45l4.58,6.89c3.22-2.2,6.46-4.33,9.72-6.44M209.32,135l-5.24-6.39q-4.54,3.63-9,7.37l5.23,6.38c3-2.5,6-4.94,9-7.36m361.2,773.72,2.19,11.76c3.84-.66,7.68-1.25,11.49-2L582,906.7c-3.8.76-7.64,1.37-11.48,2m-40.75,4.91,1,11.91c3.88-.28,7.77-.48,11.63-.86l-1-11.92c-3.85.38-7.74.59-11.62.87m283.85-143.1,9.24,7.78c2.53-2.95,5.1-5.87,7.55-8.88l-9.26-7.79c-2.45,3-5,5.94-7.53,8.89M500,197.83c2,0,3.89.11,5.85.15v-21.5c-2,0-3.89-.14-5.85-.14s-3.87.11-5.81.14V198c1.94,0,3.86-.15,5.81-.15m-49.43,4.06-3.94-21.15c-3.84.63-7.68,1.26-11.48,2l4,21.18c3.8-.77,7.63-1.42,11.47-2.05m29.53-3.34-1.84-21.41c-3.88.25-7.76.51-11.62.89l1.84,21.43c3.84-.4,7.73-.66,11.62-.91M535.48,200l2.12-21.41q-5.77-.65-11.6-1.1l-2.12,21.4c3.89.31,7.76.66,11.6,1.11m-385,649.91c-1.63-1.64-3.15-3.35-4.75-5l-3.89,3.89c1.54,1.58,3,3.23,4.57,4.8,1.19,1.19,2.44,2.29,3.64,3.46l3.88-3.87c-1.13-1.12-2.32-2.16-3.44-3.28m443-637.32,6.3-20.64c-3.69-1.19-7.42-2.29-11.16-3.34l-6.3,20.64c3.74,1,7.47,2.15,11.16,3.34M215,904.17l-3,4.49c3.17,2.25,6.31,4.55,9.53,6.72l3.08-4.5c-3.22-2.17-6.36-4.47-9.53-6.71M420.46,40.38l-1.53-8.2c-3.83.65-7.68,1.24-11.48,2l1.52,8.2c3.81-.75,7.66-1.34,11.49-2M176.58,874l-3.52,4.19c2.94,2.54,5.84,5.14,8.82,7.62l3.53-4.19c-3-2.47-5.89-5.07-8.83-7.62M564.84,204.83l4.23-21.13c-3.8-.81-7.61-1.54-11.44-2.22L553.4,202.6c3.84.68,7.65,1.41,11.44,2.23M337.7,244.74l-12-18c-3.28,2.08-6.53,4.2-9.74,6.4l12,18c3.21-2.19,6.48-4.3,9.77-6.37m25.91-14.63L353.45,211c-3.47,1.75-6.91,3.53-10.32,5.4l10.15,19.08c3.4-1.88,6.86-3.64,10.33-5.39m260-6,8.49-19.89c-3.55-1.57-7.12-3.1-10.73-4.55l-8.5,19.92q5.43,2.16,10.74,4.52M113.42,808.23l-4.28,3.5c2.43,3,4.88,6,7.38,9l4.26-3.49c-2.5-3-4.94-6-7.37-9m747.2-104.72,10.65,5.85c1.91-3.39,3.83-6.77,5.64-10.2l-10.67-5.86c-1.81,3.44-3.71,6.82-5.62,10.21m-775.83,65-4.63,3.09c2.11,3.25,4.25,6.49,6.45,9.7l4.61-3.07c-2.19-3.22-4.32-6.46-6.43-9.72m336.68-560.4-6-20.69c-3.75,1-7.51,2-11.22,3.14l6,20.74c3.71-1.14,7.45-2.19,11.21-3.19m-28.32,9-8-20c-3.64,1.37-7.28,2.74-10.86,4.24l8.06,20.08c3.58-1.5,7.2-2.92,10.84-4.29m490.26,439c-1.46,3.6-3,7.17-4.55,10.73l11.2,4.78c1.56-3.56,3.12-7.12,4.58-10.72l-11.23-4.79M123.17,331.67l-11.5-4.91c-1.59,3.54-3.23,7.07-4.72,10.65l11.5,4.91c1.49-3.58,3.12-7.11,4.72-10.65m18.56-36.21-11-6c-1.94,3.37-3.91,6.73-5.76,10.14l11,6c1.84-3.42,3.81-6.78,5.75-10.15m5.68-101.1-6.27-5.29c-2.56,2.93-5.15,5.84-7.62,8.82l6.28,5.29c2.47-3,5.06-5.89,7.61-8.82M34,533l-7.9.67c.26,3.88.49,7.76.85,11.62l7.9-.67c-.36-3.86-.59-7.75-.85-11.62m-1.22-32.23c0-2.59.14-5.16.18-7.74H25c0,2.45-.18,4.89-.18,7.36,0,1.43.09,2.86.1,4.29h8c0-1.3-.09-2.6-.09-3.91m74.45-127.95-12-3.64c-1.2,3.69-2.4,7.38-3.5,11.11l11.91,3.64c1.1-3.73,2.31-7.42,3.51-11.11m56.59-111.56-10.36-7.11c-2.26,3.16-4.55,6.31-6.72,9.53l10.37,7.1c2.17-3.21,4.44-6.37,6.71-9.52M89.75,452.35l-12.32-1.22c-.45,3.86-.89,7.71-1.24,11.59l12.31,1.22c.35-3.88.8-7.73,1.25-11.59m6.78-40.24-12.19-2.44c-.83,3.79-1.65,7.58-2.37,11.41l12.16,2.43c.73-3.82,1.56-7.61,2.4-11.4M49.24,624l-7.55,2.2c1,3.74,2,7.51,3.1,11.23l7.55-2.2c-1.11-3.72-2.09-7.48-3.1-11.23m262.9-490.62-6-11.2c-3.46,1.77-6.91,3.56-10.31,5.43l5.95,11.2c3.41-1.87,6.86-3.66,10.31-5.43m-123,96.09-9.63-8.12c-2.57,2.93-5.15,5.84-7.62,8.82l9.63,8.11c2.48-3,5.05-5.89,7.62-8.81m163.19-114-4.73-11.79c-3.63,1.39-7.28,2.72-10.87,4.22l4.74,11.78c3.59-1.49,7.24-2.82,10.86-4.21M277,153.62l-7-10.55c-3.26,2.11-6.51,4.23-9.72,6.43l7,10.54c3.21-2.2,6.46-4.32,9.73-6.42m-193,560-6.88,3.66c1.78,3.45,3.56,6.9,5.42,10.31L89.36,724c-1.86-3.41-3.63-6.87-5.4-10.32m-20.4-45.74-7.26,2.91c1.39,3.63,2.71,7.28,4.19,10.87l7.26-2.91c-1.48-3.59-2.81-7.25-4.19-10.87M86.75,501.55c0-2.85.15-5.68.21-8.52H74.61c0,2.71-.19,5.41-.19,8.13,0,1.18.07,2.34.08,3.52H86.83c0-1.05-.08-2.08-.08-3.13m121-292.21c1.83-1.83,3.75-3.55,5.61-5.34l-8.92-8.93c-1.8,1.74-3.64,3.39-5.41,5.16-1,1-1.91,2-2.89,3l8.92,8.92c.91-.93,1.77-1.9,2.69-2.83m36.15-32.07-8-9.78c-3,2.41-6.06,4.85-9,7.35l8,9.77c3-2.5,6-4.93,9-7.34M39.35,578.82l-7.76,1.44c.64,3.84,1.25,7.68,2,11.49l7.77-1.45c-.74-3.8-1.35-7.65-2-11.48M73.21,310.34l-7.46-3.19c-1.59,3.56-3.24,7.07-4.73,10.66L68.49,321c1.49-3.59,3.14-7.11,4.72-10.66m20.85-41-7.14-3.92c-1.93,3.37-3.91,6.72-5.75,10.14l7.14,3.92c1.84-3.42,3.82-6.77,5.75-10.14m81.44,488L166.14,765c2.41,3,4.84,6.06,7.34,9l9.35-7.66c-2.5-3-4.92-6-7.33-9.06m52.66,55.35-7.75,9.21c2.93,2.56,5.83,5.15,8.82,7.61L237,820.3c-3-2.47-5.9-5-8.83-7.61M207.8,793.77c-1.83-1.83-3.54-3.74-5.33-5.6l-8.53,8.54c1.72,1.79,3.38,3.63,5.14,5.39,1,1,2,1.92,3,2.9l8.53-8.52c-.94-.92-1.92-1.78-2.85-2.71m52.5,44.39-6.79,9.91c3.16,2.26,6.3,4.55,9.52,6.72l6.8-9.91c-3.22-2.17-6.37-4.46-9.53-6.72m34.57,22.2-5.78,10.52c3.38,1.93,6.72,3.92,10.14,5.75L305,866.11c-3.42-1.83-6.77-3.81-10.14-5.75M35.93,447l-8-.79c-.43,3.86-.85,7.72-1.19,11.59l8,.79c.34-3.88.77-7.73,1.21-11.59m83-216.55-6.75-4.63c-2.25,3.17-4.55,6.32-6.72,9.53L112.2,240c2.17-3.22,4.46-6.36,6.72-9.53M331.44,879l-4.71,11c3.55,1.58,7.07,3.22,10.66,4.7l4.71-11c-3.59-1.49-7.11-3.12-10.66-4.71M92.29,569l-12.06,2.25c.63,3.84,1.25,7.68,2,11.49l12.07-2.25c-.74-3.81-1.36-7.65-2-11.49m59.39,155-10.1,6.72c2.1,3.27,4.21,6.53,6.4,9.74l10.09-6.72c-2.19-3.21-4.3-6.47-6.39-9.74m-50.8-115-11.75,3.42c1,3.75,2,7.51,3.11,11.23L104,620.19c-1.11-3.72-2.1-7.48-3.11-11.23M87.71,528.38l-12.26,1.06c.25,3.88.49,7.76.85,11.62L88.56,540c-.35-3.86-.6-7.74-.85-11.62M43.4,401.47l-7.88-1.58c-.82,3.8-1.62,7.59-2.34,11.42l7.87,1.57c.72-3.82,1.54-7.61,2.35-11.41m87.93,287-10.74,5.72c1.76,3.46,3.53,6.92,5.39,10.33l10.73-5.71c-1.86-3.41-3.62-6.88-5.38-10.34m-17.92-40.56-11.32,4.55c1.38,3.63,2.72,7.28,4.19,10.87l11.33-4.55c-1.48-3.59-2.82-7.24-4.2-10.87M55.33,357l-7.73-2.36c-1.18,3.7-2.37,7.39-3.46,11.13l7.71,2.35c1.1-3.73,2.3-7.42,3.48-11.12M772.64,559.39l22.76,4.55c.78-3.79,1.42-7.63,2.06-11.47l-22.76-4.55c-.62,3.84-1.28,7.67-2.06,11.47M651.51,736.73l12.73,19.1q4.89-3.2,9.64-6.57l-12.74-19.1q-4.74,3.38-9.63,6.57M770,914.47l3,4.53c3.25-2.13,6.46-4.31,9.67-6.52l-3-4.53c-3.21,2.2-6.42,4.39-9.67,6.52M546.12,777.88l4.2,22.51c3.84-.65,7.67-1.31,11.46-2.11l-4.21-22.53c-3.78.79-7.61,1.48-11.45,2.13m81.33-27.14L638.23,771q5.17-2.68,10.24-5.56l-10.78-20.26q-5.06,2.9-10.24,5.57m-54,21.13,6.41,22c3.75-1,7.49-2.09,11.19-3.26l-6.42-22c-3.69,1.18-7.42,2.26-11.18,3.29m236.1,113.73,3.46,4.22c3-2.43,6-4.93,9-7.44l-3.47-4.23c-3,2.51-5.94,5-9,7.45M599.9,763.15l8.55,21.27c3.63-1.4,7.24-2.84,10.8-4.38l-8.55-21.29q-5.34,2.31-10.8,4.4m111.36-78.83,17.61,14.83q3.79-4.42,7.41-9l-17.62-14.84q-3.61,4.58-7.4,9m-37.18,36.06,14.56,17.76c3-2.44,6-4.94,8.93-7.49L683,712.87q-4.39,3.84-8.92,7.51m54.17-58,19,13c2.23-3.18,4.38-6.41,6.49-9.68l-19-13c-2.1,3.28-4.24,6.52-6.46,9.7M679.4,961l2,5c3.62-1.41,7.27-2.74,10.85-4.24l-2-5c-3.59,1.49-7.24,2.83-10.86,4.24m15.45-259.12,16.26,16.26c2.77-2.72,5.46-5.51,8.13-8.34L703,693.58c-2.65,2.83-5.35,5.62-8.12,8.34m48.13-63L763.21,650c1.9-3.39,3.72-6.82,5.49-10.29l-20.25-11.12c-1.76,3.48-3.57,6.91-5.47,10.3M727.72,939.18l2.56,4.79q5.16-2.69,10.27-5.5L738,933.68q-5.12,2.8-10.28,5.5M383.81,756.26l-9,21.09c3.53,1.62,7.08,3.19,10.68,4.67l9-21.09c-3.6-1.48-7.15-3-10.68-4.67m-69.58-45.79L299.43,728c2.9,2.59,5.81,5.16,8.81,7.64L323,718.1c-3-2.48-5.92-5-8.81-7.63m44.89,32.86-11,20.11c3.35,2,6.72,3.89,10.15,5.73l11-20.11c-3.43-1.84-6.8-3.76-10.15-5.73M335.83,728l-13,18.93c3.14,2.29,6.29,4.55,9.52,6.72l13-18.94c-3.24-2.16-6.4-4.42-9.53-6.71M849.47,849.87c-1.12,1.11-2.29,2.15-3.42,3.26l3.88,3.88c1.19-1.17,2.44-2.27,3.62-3.45,1.57-1.58,3-3.23,4.59-4.82l-3.89-3.89c-1.61,1.66-3.14,3.38-4.78,5M297,693.59l-16.27,16.27c2.67,2.83,5.37,5.62,8.15,8.34l16.25-16.26c-2.77-2.72-5.47-5.52-8.13-8.35m-18-21.16L261.26,687c2.38,3.08,4.78,6.13,7.27,9.11l17.81-14.59c-2.49-3-4.9-6-7.26-9.12M500,781.77c-1.95,0-3.87-.11-5.81-.15v22.9c1.94,0,3.86.15,5.81.15s3.89-.11,5.85-.15v-22.9c-2,0-3.89.15-5.85.15m18.39-.68,2,22.82c3.88-.26,7.76-.54,11.61-.95l-2-22.83c-3.84.41-7.72.71-11.61,1m364.2,32.25c-2.45,3-5.07,5.88-7.61,8.83l4.22,3.55c2.53-3,5.15-5.83,7.61-8.82l-4.22-3.56m-470.67-46-6.7,21.92q5.52,1.84,11.13,3.46l6.7-21.92q-5.62-1.62-11.13-3.46m54.42,12.26-2.26,22.8c3.85.46,7.71.83,11.6,1.14l2.26-22.79q-5.83-.45-11.6-1.15m-27.55-4.76-4.49,22.47c3.78.85,7.59,1.61,11.42,2.31l4.5-22.46c-3.84-.69-7.64-1.46-11.43-2.32m327-188.8,22.15,6.76c1.16-3.69,2.19-7.45,3.2-11.21L769,574.89c-1,3.76-2,7.51-3.19,11.21M804.2,478.6l21.07-1.81q-.45-5.82-1.1-11.6L803.07,467q.67,5.76,1.13,11.6M397,983.81l-1.06,5.29q5.7,1.2,11.43,2.27l1.06-5.28c-3.83-.71-7.63-1.47-11.43-2.28m358.22-648,17.91-11.93c-2.13-3.24-4.36-6.43-6.61-9.59l-17.9,11.92c2.25,3.16,4.46,6.35,6.6,9.6m28.71,55.27,19.87-8q-2.13-5.41-4.46-10.76l-19.89,8c1.57,3.55,3,7.14,4.48,10.76m16.45,57.68,20.86-3.89q-1-5.76-2.24-11.44l-20.9,3.9c.84,3.78,1.58,7.59,2.28,11.43M349.64,971.33l-1.58,5.16c3.71,1.18,7.42,2.33,11.15,3.42l1.58-5.16c-3.74-1.09-7.44-2.25-11.15-3.42m443.9-551.84,20.47-6q-1.59-5.61-3.37-11.15l-20.5,6c1.21,3.69,2.33,7.41,3.4,11.15m-23.18-57.9,19-10.09c-1.8-3.45-3.7-6.83-5.63-10.21l-19,10.1c1.94,3.36,3.83,6.76,5.63,10.2m-32.81-49.92L754.2,298c-2.44-3-5-6-7.52-8.9l-16.63,13.63c2.55,2.93,5.06,5.89,7.5,8.91m-38.71-39.92,13.87-16.47c-3-2.54-5.92-5.05-8.94-7.47l-13.9,16.51q4.54,3.63,9,7.43m-23.49-18.3,12.21-17.81c-3.17-2.24-6.37-4.45-9.62-6.57L665.7,246.91q4.89,3.18,9.65,6.54M300.05,952.5l-2.12,5c3.55,1.57,7.06,3.23,10.65,4.72l2.13-5c-3.59-1.49-7.11-3.15-10.66-4.72M717.72,289.39l15.21-15.2c-.73-.75-1.41-1.52-2.15-2.26-2-2-4.12-3.93-6.19-5.89l-15.22,15.21c2.83,2.67,5.62,5.37,8.35,8.14M256.36,930.48l-2.61,4.76c3.38,1.92,6.72,3.91,10.13,5.75l2.62-4.77c-3.42-1.83-6.76-3.82-10.14-5.74m189,61.07-.53,5.35c3.86.43,7.72.79,11.6,1.13l.53-5.36q-5.81-.49-11.6-1.12M776.81,532.13l23.13,2.29c.4-3.85.66-7.74.91-11.62l-23.14-2.29c-.23,3.89-.5,7.77-.9,11.62M633,976.47l1.5,5.18c3.75-1,7.52-2,11.24-3.1l-1.52-5.19c-3.71,1.13-7.48,2.07-11.22,3.11m-96.39,16.68.46,5.36c3.88-.29,7.77-.48,11.63-.85l-.46-5.37c-3.86.37-7.75.57-11.63.86m113.6-755.66,10.41-19c-3.38-1.91-6.78-3.8-10.23-5.59L640,231.9q5.17,2.68,10.24,5.56M755.27,614.15l21.27,9.07c1.55-3.55,3-7.16,4.42-10.78l-21.28-9.09c-1.4,3.63-2.86,7.24-4.41,10.8m23-110.65v1.18h23.28V503.1c0-3.38-.15-6.72-.26-10.07H778c.13,3.47.26,7,.26,10.47m-2.17-34.19q.7,5.76,1.18,11.6l23.22-2c-.31-3.88-.68-7.75-1.14-11.59l-23.26,2M390.84,102.92l-3.55-12.21c-3.75,1-7.52,2-11.23,3.1L379.61,106c3.71-1.12,7.48-2.08,11.23-3.1M500,994.62c-1.94,0-3.87-.12-5.81-.14v5.38c1.94,0,3.87.14,5.81.14s3.89-.12,5.85-.14v-5.38c-2,0-3.89.14-5.85.14" fill-rule="evenodd"/></svg>
