<svg xmlns="http://www.w3.org/2000/svg" width="16" height="16" viewBox="0 0 16 16">
    <path fill="#fff" fill-rule="evenodd" d="M14 0c1.104 0 2 .896 2 2v12c0 1.104-.896 2-2 2H2c-1.104 0-2-.896-2-2V2C0 .896.896 0 2 0h12zM9.924 3.936c-1.132 0-2.052.92-2.052 2.052 0 .16.02.316.052.468-1.704-.084-3.216-.904-4.228-2.144-.176.304-.276.656-.276 1.032 0 .712.364 1.34.912 1.708-.336-.012-.652-.104-.928-.256v.028c0 .992.708 1.824 1.644 2.012-.172.048-.352.072-.54.072-.132 0-.26-.012-.384-.036.26.816 1.02 1.408 1.916 1.424-.704.552-1.588.88-2.548.88-.164 0-.328-.008-.488-.028.904.576 1.984.916 3.14.916 3.772 0 5.836-3.128 5.836-5.836 0-.088 0-.176-.004-.264.4-.288.748-.652 1.024-1.064-.368.164-.764.272-1.18.324.424-.252.748-.656.904-1.136-.396.236-.836.404-1.304.496-.376-.4-.908-.648-1.496-.648z"/>
</svg>
