<svg xmlns="http://www.w3.org/2000/svg" viewBox="0 0 1000 1000"><path d="M498.08,876.88c-1.25,0-2.48-.08-3.72-.09v10.88c1.24,0,2.47.09,3.72.09s2.49-.08,3.74-.09V876.79c-1.25,0-2.49.09-3.74.09" fill-rule="evenodd"/><path d="M866.78,660.83l13.16,5.59c1-2.27,2-4.51,3-6.8L869.74,654c-1,2.29-2,4.55-3,6.83" fill-rule="evenodd"/><path d="M267.13,829l-8,11.64c2,1.43,4,2.9,6.1,4.29l8-11.63c-2.06-1.39-4.06-2.87-6.09-4.3" fill-rule="evenodd"/><path d="M415.24,893.24,412.47,907c2.44.51,4.88,1,7.32,1.45l2.77-13.77c-2.45-.46-4.89-.93-7.32-1.44" fill-rule="evenodd"/><path d="M828,729.88l11.75,8c1.43-2,2.92-4,4.31-6.07l-11.76-8c-1.39,2.06-2.88,4.05-4.3,6.08" fill-rule="evenodd"/><path d="M891.71,582.33l14.1,2.81c.5-2.43.92-4.87,1.38-7.31L893.07,575c-.44,2.44-.86,4.88-1.36,7.31" fill-rule="evenodd"/><path d="M501.82,915.72v-14c-1.25,0-2.49.09-3.74.09s-2.48-.08-3.72-.09v14c1.24,0,2.47.09,3.72.09s2.49-.08,3.74-.1" fill-rule="evenodd"/><path d="M281.33,808.36l-6.24,9c2,1.43,4,2.9,6.1,4.29l6.23-9c-2.06-1.39-4.06-2.86-6.09-4.29" fill-rule="evenodd"/><path d="M346.21,845l-4.32,10.06c2.28,1,4.52,2.07,6.82,3L353,848c-2.29-1-4.53-2-6.8-3" fill-rule="evenodd"/><path d="M214,784.53c-1.13-1.13-2.18-2.32-3.3-3.45l-10,10c1.05,1.08,2.05,2.19,3.11,3.25.7.7,1.44,1.34,2.14,2l10-10c-.64-.63-1.31-1.21-1.95-1.84" fill-rule="evenodd"/><path d="M336.36,868l-5.55,12.94c2.28,1,4.53,2.07,6.82,3L343.18,871c-2.3-1-4.54-2-6.82-3" fill-rule="evenodd"/><path d="M718.48,836.21l7.85,11.73c2.08-1.36,4.14-2.75,6.19-4.15l-7.85-11.74c-2,1.41-4.11,2.79-6.19,4.16" fill-rule="evenodd"/><path d="M782.18,784.53c-.63.62-1.3,1.2-1.93,1.83l10,10c.69-.68,1.43-1.32,2.12-2,1.07-1.06,2.07-2.19,3.13-3.26l-10-10c-1.12,1.14-2.17,2.34-3.31,3.47" fill-rule="evenodd"/><path d="M286.92,177.61c-2.08,1.36-4.17,2.69-6.23,4.09l6.45,9.64c2.06-1.39,4.16-2.71,6.24-4.07l-6.46-9.66" fill-rule="evenodd"/><path d="M833.84,281.63l12.22-8.12c-1.36-2.06-2.77-4.11-4.17-6.15l-12.23,8.11c1.4,2,2.81,4.09,4.18,6.16" fill-rule="evenodd"/><path d="M580.36,109.68l2.92-14.5c-2.44-.5-4.88-1-7.33-1.42l-3,14.5c2.44.47,4.89.92,7.32,1.42" fill-rule="evenodd"/><path d="M127.06,565.15l-11,2.05c.42,2.44.82,4.89,1.29,7.32l11-2c-.47-2.43-.88-4.88-1.29-7.32" fill-rule="evenodd"/><path d="M658.73,134.58,664.54,121c-2.28-1-4.52-2.06-6.81-3l-5.84,13.6,6.84,3" fill-rule="evenodd"/><path d="M568.34,895.6l2.58,13.79c2.45-.43,4.91-.8,7.35-1.28l-2.58-13.79c-2.44.47-4.9.85-7.35,1.28" fill-rule="evenodd"/><path d="M121.62,501.9c0-1.87.12-3.73.14-5.6h-11.3c0,1.74-.13,3.47-.13,5.22,0,.74,0,1.47.06,2.21h11.28V501.9" fill-rule="evenodd"/><path d="M182,705.39l-9.26,6.14c1.35,2.08,2.68,4.17,4.08,6.22l9.24-6.13c-1.39-2-2.71-4.15-4.06-6.23" fill-rule="evenodd"/><path d="M871.86,354.45,885.42,349c-.92-2.3-1.74-4.64-2.7-6.93l-13.57,5.43c1,2.29,1.79,4.63,2.71,6.93" fill-rule="evenodd"/><path d="M782.18,218.52c.63.63,1.21,1.29,1.84,1.92l10.41-10.37c-.68-.7-1.33-1.43-2-2.12-1.07-1.07-2.2-2.06-3.28-3.12l-10.42,10.39c1.14,1.12,2.34,2.17,3.47,3.3" fill-rule="evenodd"/><path d="M146.74,636.61l-10.37,4.15c.89,2.32,1.75,4.64,2.7,6.93l10.38-4.15c-.94-2.3-1.81-4.62-2.71-6.93" fill-rule="evenodd"/><path d="M727.65,173.09,736,160.94c-2-1.42-4-2.9-6.1-4.29l-8.36,12.15c2.07,1.38,4.06,2.87,6.1,4.29" fill-rule="evenodd"/><path d="M571.1,869.81c-2.43.47-4.9.85-7.35,1.28l2,10.71c2.45-.43,4.91-.8,7.35-1.28l-2-10.71" fill-rule="evenodd"/><path d="M231.94,767c-1.19-1.18-2.31-2.43-3.48-3.64l-7.83,7.8c1.12,1.13,2.17,2.31,3.3,3.44.64.63,1.31,1.22,1.95,1.85l7.81-7.79c-.57-.56-1.18-1.09-1.75-1.66" fill-rule="evenodd"/><path d="M231.94,236.8c1.2-1.2,2.47-2.32,3.69-3.5l-8.2-8.17c-1.16,1.12-2.36,2.18-3.5,3.32-.62.62-1.2,1.27-1.82,1.9l8.19,8.16c.56-.56,1.08-1.15,1.64-1.71" fill-rule="evenodd"/><path d="M279.11,165.93l-8.21-12.27c-2.08,1.35-4.17,2.7-6.23,4.09l8.2,12.26c2.06-1.39,4.15-2.73,6.24-4.08" fill-rule="evenodd"/><path d="M644.94,874.15l5.26,13.06c2.32-.91,4.66-1.75,7-2.69l-5.27-13.06c-2.29.95-4.64,1.79-6.95,2.69" fill-rule="evenodd"/><path d="M498.08,101.24c1.25,0,2.49.08,3.74.1V86.55c-1.25,0-2.49-.09-3.74-.09s-2.48.08-3.72.09v14.79c1.24,0,2.47-.1,3.72-.1" fill-rule="evenodd"/><path d="M190.73,285.56l-9.53-6.5c-1.43,2-2.91,4-4.3,6.07l9.52,6.5c1.39-2.05,2.87-4,4.31-6.07" fill-rule="evenodd"/><path d="M899.92,501.52v2.21H914.3c0-.86.07-1.72.07-2.59,0-1.62-.1-3.22-.12-4.84H899.79c0,1.74.13,3.47.13,5.22" fill-rule="evenodd"/><path d="M217.46,215.21,207,204.82c-1.09,1.06-2.23,2.06-3.3,3.13-.69.68-1.33,1.41-2,2.1l10.42,10.38c.62-.63,1.2-1.29,1.82-1.91,1.14-1.13,2.34-2.19,3.49-3.31" fill-rule="evenodd"/><path d="M130.09,422.81l-11.17-2.23c-.52,2.43-1,4.85-1.51,7.28l11.16,2.23c.47-2.44,1-4.86,1.52-7.28" fill-rule="evenodd"/><path d="M893.48,430.35l14.28-2.65c-.44-2.44-.8-4.9-1.28-7.33L892.2,423c.48,2.43.85,4.89,1.28,7.33" fill-rule="evenodd"/><path d="M428.39,107.35l-2.72-14.54c-2.45.43-4.92.81-7.36,1.28L421,108.63c2.43-.47,4.9-.86,7.35-1.28" fill-rule="evenodd"/><path d="M154,349.68l-10.56-4.49c-1,2.27-2.08,4.51-3,6.8L151,356.47c1-2.28,2-4.52,3-6.79" fill-rule="evenodd"/><path d="M352.29,128.48l-5.53-13.71c-2.32.9-4.66,1.74-7,2.68l5.53,13.72c2.3-.94,4.64-1.79,7-2.69" fill-rule="evenodd"/><path d="M420.16,868.79,418,879.47q3.64.76,7.32,1.45l2.14-10.69c-2.44-.46-4.89-.94-7.31-1.44" fill-rule="evenodd"/><path d="M823.74,502.66v1.07h5v-1.45c0-2-.11-4-.15-6h-5c0,2.12.16,4.23.16,6.36" fill-rule="evenodd"/><path d="M817.23,567.47l4.82,1c.5-2.42.89-4.88,1.33-7.31l-4.85-1c-.43,2.44-.81,4.9-1.3,7.32" fill-rule="evenodd"/><path d="M818.38,444.3l5-.92c-.45-2.44-.84-4.9-1.34-7.32l-5,.93c.5,2.42.9,4.87,1.35,7.31" fill-rule="evenodd"/><path d="M797.08,631.19l4.47,1.9c1-2.27,2-4.56,2.9-6.85l-4.5-1.92c-.94,2.3-1.89,4.59-2.87,6.87" fill-rule="evenodd"/><path d="M684,236.5l3-4.38c-2-1.42-4.06-2.87-6.14-4.25l-3,4.41c2.07,1.37,4.1,2.8,6.14,4.22" fill-rule="evenodd"/><path d="M769.86,324.1l4.35-2.89c-1.37-2.07-2.78-4.11-4.2-6.15l-4.37,2.9c1.42,2,2.85,4.07,4.22,6.14" fill-rule="evenodd"/><path d="M800.71,382.92,805.5,381c-.92-2.3-1.8-4.62-2.77-6.89l-4.8,1.92c1,2.27,1.86,4.59,2.78,6.89" fill-rule="evenodd"/><path d="M728.29,273.36c.43.44.84.9,1.27,1.33l3.73-3.72c-.49-.5-1-1-1.46-1.52-1.26-1.26-2.59-2.44-3.87-3.68l-3.74,3.73c1.34,1.3,2.74,2.54,4.07,3.86" fill-rule="evenodd"/><path d="M375.74,776.1l-.6,1.4c2.27,1,4.52,2.06,6.82,3l.6-1.4c-2.3-1-4.55-2-6.82-3" fill-rule="evenodd"/><path d="M765.68,687.3l4,2.71c1.42-2,2.85-4.06,4.23-6.12l-4-2.72c-1.37,2.06-2.78,4.1-4.21,6.13" fill-rule="evenodd"/><path d="M285.83,714.44c-1.38-1.37-2.68-2.82-4-4.21l-1.14,1.13c1.29,1.33,2.53,2.71,3.85,4,.45.44.91.86,1.37,1.3l1.12-1.13-1.17-1.11" fill-rule="evenodd"/><path d="M323.92,746.48l-.89,1.29c2,1.44,4,2.91,6.09,4.3l.88-1.28c-2.06-1.39-4.06-2.87-6.08-4.31" fill-rule="evenodd"/><path d="M434.9,795.41l-.29,1.45q3.64.78,7.32,1.45l.29-1.45c-2.44-.46-4.89-.93-7.32-1.45" fill-rule="evenodd"/><path d="M244.9,663.61l-1.39.92c1.35,2.09,2.65,4.19,4,6.25l1.38-.91c-1.39-2.06-2.68-4.18-4-6.26" fill-rule="evenodd"/><path d="M728.29,732c-.45.44-.91.84-1.36,1.28l3.36,3.35c.51-.5,1-1,1.54-1.47,1.26-1.25,2.45-2.57,3.69-3.84L732.15,728c-1.3,1.34-2.54,2.72-3.86,4" fill-rule="evenodd"/><path d="M381.11,200l-2-5c-2.33.9-4.66,1.76-7,2.71l2,5c2.3-.94,4.63-1.82,6.95-2.71" fill-rule="evenodd"/><path d="M682.9,769.6c-2,1.41-4.1,2.81-6.18,4.17l2.61,3.91c2.08-1.36,4.13-2.76,6.18-4.17l-2.61-3.91" fill-rule="evenodd"/><path d="M321.93,230l-3-4.44c-2.09,1.35-4.19,2.67-6.25,4.06l3,4.43c2.06-1.39,4.17-2.71,6.25-4" fill-rule="evenodd"/><path d="M233,314.45l-4.33-3c-1.44,2-2.91,4-4.31,6.07l4.32,3c1.4-2.05,2.88-4.05,4.32-6.06" fill-rule="evenodd"/><path d="M616.91,804.64l1.74,4.32c2.31-.91,4.66-1.75,7-2.71l-1.74-4.32c-2.29,1-4.63,1.81-7,2.71" fill-rule="evenodd"/><path d="M201.08,369.68l-4.76-2c-1,2.26-2.09,4.5-3.06,6.79l4.76,2c1-2.29,2-4.52,3.06-6.79" fill-rule="evenodd"/><path d="M554.58,822.07l.84,4.54c2.46-.43,4.92-.81,7.35-1.29l-.85-4.54c-2.43.48-4.89.86-7.34,1.29" fill-rule="evenodd"/><path d="M441.58,177.81c-2.46.42-4.92.81-7.35,1.29l1,5.28c2.44-.48,4.9-.88,7.35-1.3l-1-5.27" fill-rule="evenodd"/><path d="M628.38,205.41l2.1-4.92c-2.27-1-4.54-2-6.85-2.94l-2.11,4.94c2.3.93,4.58,1.93,6.86,2.92" fill-rule="evenodd"/><path d="M565.18,185.23l1.05-5.25c-2.43-.51-4.88-1-7.33-1.41l-1.06,5.26c2.45.45,4.91.89,7.34,1.4" fill-rule="evenodd"/><path d="M498.08,178.29c1.25,0,2.49.07,3.74.09V173c-1.25,0-2.49-.1-3.74-.1s-2.48.08-3.72.1v5.36c1.24,0,2.47-.09,3.72-.09" fill-rule="evenodd"/><path d="M498.08,827c-1.25,0-2.48-.08-3.72-.09v4.6c1.24,0,2.47.09,3.72.09s2.49-.08,3.74-.09V827c-1.25,0-2.49.09-3.74.09" fill-rule="evenodd"/><path d="M430,819.87l-.91,4.53q3.65.76,7.32,1.45l.91-4.53c-2.45-.46-4.89-.93-7.32-1.45" fill-rule="evenodd"/><path d="M267.87,273.36c1.33-1.32,2.73-2.57,4.08-3.87l-3.74-3.73c-1.29,1.24-2.63,2.42-3.89,3.69-.5.49-1,1-1.44,1.51l3.73,3.72c.43-.43.83-.89,1.26-1.32" fill-rule="evenodd"/><path d="M618.26,229l.87-2c-2.27-1-4.55-2-6.86-2.92l-.88,2c2.31.94,4.59,1.92,6.87,2.91" fill-rule="evenodd"/><path d="M748.53,338.25l1.74-1.15c-1.37-2.07-2.8-4.1-4.22-6.13l-1.74,1.16c1.42,2,2.84,4.06,4.22,6.12" fill-rule="evenodd"/><path d="M710.32,291.64l1.08,1.14,1.51-1.51c-.43-.43-.84-.89-1.27-1.32-1.33-1.33-2.72-2.57-4.07-3.87l-1.52,1.51c1.42,1.36,2.88,2.67,4.27,4.05" fill-rule="evenodd"/><path d="M669.45,257.63l1.24-1.79c-2-1.42-4.08-2.85-6.15-4.22l-1.25,1.82c2.08,1.36,4.12,2.78,6.16,4.19" fill-rule="evenodd"/><path d="M560.11,210.42l.44-2.18c-2.43-.51-4.88-1-7.33-1.41l-.44,2.19c2.45.45,4.91.89,7.33,1.4" fill-rule="evenodd"/><path d="M501.82,204.06v-2.23c-1.25,0-2.49-.09-3.74-.09s-2.48.08-3.72.09v2.23c1.24,0,2.47-.09,3.72-.09s2.49.07,3.74.09" fill-rule="evenodd"/><path d="M744.91,673.11l1.36.93c1.43-2,2.83-4.07,4.21-6.14l-1.39-.94c-1.36,2.07-2.76,4.12-4.18,6.15" fill-rule="evenodd"/><path d="M792.38,562.51l1.76.35c.49-2.42.87-4.88,1.31-7.32l-1.76-.35c-.43,2.44-.81,4.9-1.31,7.32" fill-rule="evenodd"/><path d="M777,392.41l1.88-.75c-.93-2.3-1.83-4.61-2.8-6.89l-1.88.76c1,2.27,1.88,4.58,2.8,6.88" fill-rule="evenodd"/><path d="M498.08,802.12c-1.25,0-2.48-.08-3.72-.09v1.46c1.24,0,2.47.09,3.72.09s2.49-.08,3.74-.09V802c-1.25,0-2.49.09-3.74.09" fill-rule="evenodd"/><path d="M773.84,621.31l1.58.67c1-2.27,1.94-4.56,2.87-6.86l-1.6-.68c-.93,2.3-1.86,4.6-2.85,6.87" fill-rule="evenodd"/><path d="M798.34,503v.69h1.84v-1.07c0-2.13-.11-4.24-.16-6.36h-1.86c.05,2.25.17,4.49.17,6.74" fill-rule="evenodd"/><path d="M793.34,449l1.9-.35c-.45-2.44-.87-4.89-1.37-7.31l-1.91.36c.51,2.41.94,4.86,1.38,7.3" fill-rule="evenodd"/><path d="M197.8,503c0-2.25.12-4.49.17-6.74h-1.85c0,2.12-.16,4.23-.16,6.36v1.07h1.83V503" fill-rule="evenodd"/><path d="M550,797.56l.27,1.45c2.45-.43,4.91-.81,7.35-1.29l-.28-1.46c-2.43.48-4.89.87-7.34,1.3" fill-rule="evenodd"/><path d="M285.83,291.64c1.4-1.39,2.86-2.7,4.28-4.06l-1.51-1.51c-1.36,1.3-2.76,2.55-4.09,3.88-.43.42-.83.88-1.26,1.31l1.52,1.5,1.06-1.12" fill-rule="evenodd"/><path d="M254.15,328.89l-1.73-1.18c-1.45,2-2.91,4-4.31,6.06l1.72,1.18c1.41-2.05,2.87-4.05,4.32-6.06" fill-rule="evenodd"/><path d="M205.08,437.77l-1.9-.38c-.54,2.42-1.09,4.84-1.56,7.27l1.88.38c.49-2.44,1-4.85,1.58-7.27" fill-rule="evenodd"/><path d="M201.76,551.27l-1.75.33c.4,2.45.84,4.89,1.3,7.32l1.76-.33c-.47-2.43-.9-4.87-1.31-7.32" fill-rule="evenodd"/><path d="M217.1,608.46l-1.6.64c.88,2.32,1.78,4.62,2.72,6.92l1.61-.64c-.94-2.3-1.85-4.6-2.73-6.92" fill-rule="evenodd"/><path d="M224.61,379.69l-1.87-.8c-1,2.26-2.09,4.5-3.06,6.79l1.86.79c1-2.29,2-4.52,3.07-6.78" fill-rule="evenodd"/><path d="M662.8,753l.87,1.3q3.11-2.06,6.17-4.17l-.87-1.3c-2,1.41-4.09,2.81-6.17,4.17" fill-rule="evenodd"/><path d="M607.57,781.47l.56,1.41c2.32-.91,4.66-1.76,7-2.72l-.57-1.41c-2.29,1-4.63,1.81-6.94,2.72" fill-rule="evenodd"/><path d="M715.5,711.34l-1.13-1.13c-1.36,1.4-2.67,2.85-4,4.23l-1.16,1.1,1.13,1.12c.44-.43.91-.84,1.35-1.28,1.32-1.32,2.57-2.7,3.86-4" fill-rule="evenodd"/><path d="M336.21,251.3,335,249.47c-2.09,1.35-4.2,2.66-6.26,4.06l1.22,1.81c2.05-1.39,4.17-2.7,6.26-4" fill-rule="evenodd"/><path d="M447.29,208.33l-.41-2.19c-2.46.41-4.92.81-7.35,1.29l.41,2.2c2.44-.48,4.89-.89,7.35-1.3" fill-rule="evenodd"/><path d="M390.71,223.78l-.82-2.06c-2.33.89-4.66,1.77-6.95,2.71l.83,2.07c2.3-.94,4.62-1.83,6.94-2.72" fill-rule="evenodd"/><path d="M202.94,691.46l-6.64,4.4c1.36,2.09,2.68,4.18,4.07,6.23L207,697.7c-1.39-2.05-2.7-4.16-4.05-6.24" fill-rule="evenodd"/><path d="M249.9,749.49c-1.25-1.25-2.43-2.57-3.66-3.84l-5.59,5.57c1.17,1.2,2.28,2.45,3.48,3.64.57.57,1.17,1.09,1.75,1.66l5.58-5.56c-.51-.5-1.05-1-1.56-1.47" fill-rule="evenodd"/><path d="M361.9,152.31l-4.36-10.8c-2.32.9-4.66,1.74-7,2.69l4.4,10.8c2.3-.95,4.64-1.81,7-2.7" fill-rule="evenodd"/><path d="M295.52,787.73l-4.45,6.47c2,1.43,4,2.9,6.1,4.29l4.44-6.46c-2.06-1.39-4.06-2.86-6.09-4.3" fill-rule="evenodd"/><path d="M704.56,815.39l6.11,9.13c2.07-1.36,4.13-2.75,6.18-4.15l-6.11-9.14c-2,1.41-4.1,2.8-6.18,4.16" fill-rule="evenodd"/><path d="M170.2,627.23l-7.46,3c.9,2.31,1.77,4.63,2.71,6.92l7.46-3c-.94-2.29-1.83-4.61-2.71-6.92" fill-rule="evenodd"/><path d="M635.59,851l4.1,10.15c2.31-.91,4.65-1.75,6.95-2.69l-4.09-10.16c-2.3,1-4.64,1.79-7,2.7" fill-rule="evenodd"/><path d="M211.87,300l-6.93-4.73c-1.44,2-2.91,4-4.31,6.06l6.92,4.73C209,304,210.43,302,211.87,300" fill-rule="evenodd"/><path d="M764.22,767c-.57.57-1.17,1.09-1.74,1.65l7.81,7.78c.63-.62,1.3-1.2,1.93-1.83,1.13-1.13,2.19-2.32,3.31-3.46l-7.82-7.79c-1.18,1.2-2.3,2.46-3.49,3.65" fill-rule="evenodd"/><path d="M152,560.52,144,562c.42,2.44.83,4.89,1.29,7.32l8-1.48c-.47-2.42-.89-4.87-1.3-7.32" fill-rule="evenodd"/><path d="M249.9,255.08c1.27-1.26,2.6-2.45,3.89-3.69l-6-5.95c-1.22,1.18-2.49,2.3-3.69,3.5-.56.56-1.08,1.15-1.64,1.71l6,5.94c.49-.49.95-1,1.44-1.51" fill-rule="evenodd"/><path d="M180.09,432.79l-5-1c-.53,2.42-1.06,4.84-1.54,7.28l5,1c.48-2.44,1-4.85,1.56-7.27" fill-rule="evenodd"/><path d="M155.09,427.8,147,426.19c-.53,2.42-1,4.84-1.53,7.27l8.07,1.61c.47-2.44,1-4.85,1.54-7.27" fill-rule="evenodd"/><path d="M147,502.28c0-2,.11-4,.15-6H139c0,1.87-.13,3.73-.13,5.6v1.83H147v-1.45" fill-rule="evenodd"/><path d="M177.56,359.68l-7.66-3.26c-1,2.27-2.08,4.51-3.05,6.8l7.65,3.25c1-2.29,2-4.52,3.06-6.79" fill-rule="evenodd"/><path d="M648.61,158.19l4.58-10.7c-2.28-1-4.53-2-6.83-3l-4.59,10.72c2.3.95,4.56,2,6.84,3" fill-rule="evenodd"/><path d="M764.22,236.8c.56.56,1.08,1.16,1.64,1.72l8.19-8.15c-.62-.63-1.2-1.3-1.83-1.92-1.14-1.13-2.33-2.19-3.48-3.3l-8.2,8.16c1.21,1.18,2.48,2.3,3.68,3.49" fill-rule="evenodd"/><path d="M807.24,715.69l9.16,6.25c1.42-2,2.91-4,4.29-6.08l-9.18-6.27c-1.38,2.06-2.85,4.06-4.27,6.1" fill-rule="evenodd"/><path d="M575.3,134.86l2.3-11.41c-2.44-.51-4.88-1-7.33-1.42L568,133.46c2.45.45,4.9.9,7.33,1.4" fill-rule="evenodd"/><path d="M498.08,126.92c1.25,0,2.49.08,3.74.09V115.38c-1.25,0-2.49-.1-3.74-.1s-2.48.08-3.72.1V127c1.24,0,2.47-.09,3.72-.09" fill-rule="evenodd"/><path d="M433.11,132.59,431,121.15c-2.45.42-4.91.81-7.35,1.28l2.14,11.45c2.44-.48,4.9-.86,7.35-1.29" fill-rule="evenodd"/><path d="M713.1,194.23l6.58-9.57c-2-1.42-4-2.91-6.1-4.29L707,190c2.06,1.38,4.07,2.85,6.11,4.28" fill-rule="evenodd"/><path d="M866.89,577.37l11,2.2c.5-2.43.91-4.87,1.36-7.31l-11-2.2c-.45,2.44-.85,4.89-1.34,7.31" fill-rule="evenodd"/><path d="M874.53,501.9v1.83h11.29c0-.74,0-1.47,0-2.21,0-1.75-.1-3.48-.13-5.22h-11.3c0,1.87.14,3.73.14,5.6" fill-rule="evenodd"/><path d="M843.54,651l10.27,4.37c1-2.28,2-4.54,3-6.83l-10.3-4.38c-1,2.29-2,4.56-2.94,6.84" fill-rule="evenodd"/><path d="M848.14,363.94l10.64-4.25c-.91-2.31-1.75-4.64-2.71-6.93L845.41,357c1,2.29,1.81,4.62,2.73,6.92" fill-rule="evenodd"/><path d="M868.45,435l11.18-2.08c-.44-2.43-.8-4.9-1.29-7.32l-11.18,2.08c.49,2.42.85,4.88,1.29,7.32" fill-rule="evenodd"/><path d="M812.51,295.78l9.61-6.37c-1.37-2.07-2.78-4.11-4.19-6.15l-9.61,6.38c1.41,2,2.82,4.08,4.19,6.14" fill-rule="evenodd"/><path d="M307.66,208.62l-4.72-7.05c-2.08,1.35-4.18,2.68-6.24,4.07l4.71,7c2.06-1.39,4.16-2.72,6.25-4.06" fill-rule="evenodd"/><path d="M690.64,794.58,695,801.1q3.11-2,6.18-4.16l-4.36-6.52c-2.05,1.41-4.1,2.8-6.18,4.16" fill-rule="evenodd"/><path d="M786.46,701.49,793,706c1.42-2,2.89-4,4.26-6.09l-6.58-4.5c-1.38,2.06-2.82,4.08-4.24,6.11" fill-rule="evenodd"/><path d="M746.25,749.49c-.5.49-1,1-1.54,1.46l5.58,5.56c.57-.56,1.17-1.09,1.74-1.65,1.19-1.19,2.31-2.45,3.49-3.65l-5.59-5.57c-1.24,1.27-2.42,2.59-3.68,3.85" fill-rule="evenodd"/><path d="M820.31,641.07l7.37,3.13c1-2.27,2-4.54,2.93-6.84l-7.4-3.14q-1.41,3.43-2.9,6.85" fill-rule="evenodd"/><path d="M843.41,439.65l8.09-1.5c-.44-2.44-.81-4.9-1.3-7.33l-8.1,1.51c.49,2.42.87,4.88,1.31,7.32" fill-rule="evenodd"/><path d="M849.13,502.28v1.45h8.13V501.9c0-1.87-.11-3.73-.14-5.6H849c0,2,.15,4,.15,6" fill-rule="evenodd"/><path d="M842.06,572.42,850,574c.49-2.42.9-4.87,1.35-7.31l-7.94-1.59c-.44,2.44-.83,4.9-1.32,7.32" fill-rule="evenodd"/><path d="M365.89,799.07l-1.84,4.29c2.28,1,4.53,2.07,6.83,3l1.83-4.29c-2.3-1-4.54-2-6.82-3" fill-rule="evenodd"/><path d="M193.65,617.84l-4.53,1.81c.89,2.32,1.77,4.63,2.72,6.93l4.53-1.82c-.94-2.29-1.83-4.6-2.72-6.92" fill-rule="evenodd"/><path d="M172.42,502.66c0-2.13.11-4.24.15-6.36h-5c0,2-.15,4-.15,6v1.45h5v-1.07" fill-rule="evenodd"/><path d="M176.86,555.9l-4.85.9c.41,2.45.83,4.89,1.3,7.32l4.86-.9c-.47-2.43-.9-4.88-1.31-7.32" fill-rule="evenodd"/><path d="M223.92,677.53l-4,2.67c1.35,2.08,2.66,4.18,4.05,6.24l4-2.66c-1.39-2-2.69-4.17-4-6.25" fill-rule="evenodd"/><path d="M309.72,767.11,307.05,771c2,1.43,4,2.9,6.09,4.29l2.67-3.87c-2.06-1.39-4.06-2.87-6.09-4.3" fill-rule="evenodd"/><path d="M437.84,157.84l-1.57-8.36c-2.45.42-4.91.81-7.35,1.28l1.57,8.37c2.44-.47,4.9-.87,7.35-1.29" fill-rule="evenodd"/><path d="M824.42,373.43l7.72-3.08c-.92-2.31-1.78-4.63-2.74-6.92l-7.73,3.09c1,2.29,1.83,4.61,2.75,6.91" fill-rule="evenodd"/><path d="M356.05,822.05,353,829.22c2.28,1,4.52,2.07,6.82,3l3.07-7.18-6.81-3" fill-rule="evenodd"/><path d="M368.32,168.24c-2.32.9-4.66,1.76-6.95,2.7l3.18,7.9c2.3-1,4.63-1.81,6.95-2.71l-3.18-7.89" fill-rule="evenodd"/><path d="M498.08,852c-1.25,0-2.48-.08-3.72-.09v7.74c1.24,0,2.47.09,3.72.09s2.49-.08,3.74-.09v-7.74c-1.25,0-2.49.09-3.74.09" fill-rule="evenodd"/><path d="M633.2,825.11c-2.29.95-4.63,1.79-7,2.7l2.92,7.23c2.31-.91,4.66-1.74,7-2.7l-2.92-7.23" fill-rule="evenodd"/><path d="M559.16,846.58l1.43,7.62c2.45-.43,4.91-.81,7.35-1.28l-1.43-7.63c-2.43.48-4.9.86-7.35,1.29" fill-rule="evenodd"/><path d="M425.07,844.33l-1.53,7.6c2.43.52,4.88,1,7.32,1.45l1.53-7.61c-2.45-.46-4.89-.93-7.32-1.44" fill-rule="evenodd"/><path d="M698.55,215.36l4.8-7c-2-1.42-4.05-2.89-6.11-4.27l-4.82,7c2.07,1.38,4.09,2.83,6.13,4.25" fill-rule="evenodd"/><path d="M746.25,255.08c.5.5,1,1,1.46,1.53l6-5.94c-.56-.57-1.08-1.16-1.64-1.73-1.2-1.19-2.47-2.31-3.68-3.48l-6,5.95c1.28,1.24,2.61,2.42,3.87,3.67" fill-rule="evenodd"/><path d="M791.18,309.94l7-4.63c-1.37-2.07-2.79-4.11-4.2-6.15l-7,4.64c1.42,2,2.83,4.07,4.2,6.14" fill-rule="evenodd"/><path d="M570.24,160.05l1.67-8.34c-2.43-.5-4.88-1-7.32-1.41l-1.68,8.34c2.45.46,4.9.9,7.33,1.41" fill-rule="evenodd"/><path d="M638.49,181.8l3.35-7.81L635,171l-3.36,7.83,6.85,3" fill-rule="evenodd"/><path d="M498.08,152.6c1.25,0,2.49.08,3.74.1v-8.51c-1.25,0-2.49-.09-3.74-.09s-2.48.08-3.72.09v8.51c1.24,0,2.47-.1,3.72-.1" fill-rule="evenodd"/><path d="M267.87,732c-1.32-1.31-2.56-2.69-3.85-4l-3.37,3.35c1.24,1.27,2.41,2.58,3.67,3.83.51.51,1,1,1.55,1.48l3.37-3.35c-.45-.44-.93-.85-1.37-1.29" fill-rule="evenodd"/><path d="M771.29,109.68,785,89.77c-2-1.42-4-2.9-6.1-4.28l-13.71,19.9c2.06,1.39,4.06,2.87,6.1,4.29" fill-rule="evenodd"/><path d="M689.08,63.74l9.53-22.24c-2.28-1-4.53-2.06-6.82-3l-9.53,22.23,6.82,3" fill-rule="evenodd"/><path d="M836.08,163.68c.82.82,1.58,1.68,2.4,2.51l17.1-17c-.88-.89-1.7-1.82-2.59-2.7s-1.81-1.69-2.69-2.55l-17.11,17c.95.93,1.95,1.8,2.89,2.74" fill-rule="evenodd"/><path d="M943,326l22.33-9c-.91-2.3-1.74-4.64-2.68-6.93L940.31,319c1,2.29,1.78,4.63,2.69,6.93" fill-rule="evenodd"/><path d="M897.82,239.16l20.09-13.34c-1.37-2.07-2.75-4.12-4.15-6.17L893.66,233c1.41,2,2.8,4.1,4.16,6.17" fill-rule="evenodd"/><path d="M595.55,34.12l4.77-23.72Q596.67,9.65,593,9l-4.77,23.74q3.67.69,7.32,1.43" fill-rule="evenodd"/><path d="M968.59,416.4l23.57-4.4c-.44-2.44-.81-4.89-1.28-7.32l-23.57,4.37c.47,2.43.84,4.89,1.28,7.33" fill-rule="evenodd"/><path d="M323.46,57,314.4,34.54c-2.31.91-4.66,1.73-7,2.67l9.06,22.46c2.3-.94,4.64-1.77,7-2.68" fill-rule="evenodd"/><path d="M236.27,101.9,222.82,81.79q-3.1,2-6.19,4.13L230.07,106c2.06-1.4,4.13-2.76,6.2-4.12" fill-rule="evenodd"/><path d="M498.08,24.2c1.25,0,2.49.08,3.74.09V.09c-1.25,0-2.49-.09-3.74-.09s-2.48.08-3.72.09v24.2c1.24,0,2.47-.09,3.72-.09" fill-rule="evenodd"/><path d="M414.21,31.6,409.76,7.82c-2.45.43-4.91.8-7.36,1.27l4.46,23.78c2.44-.46,4.9-.84,7.35-1.27" fill-rule="evenodd"/><path d="M140,733.25l-14.5,9.62c1.36,2.07,2.72,4.15,4.12,6.2l14.48-9.61c-1.39-2.05-2.73-4.14-4.1-6.21" fill-rule="evenodd"/><path d="M673,943.67l8.79,21.79c2.31-.91,4.66-1.74,7-2.68L679.93,941c-2.3.94-4.64,1.77-7,2.68" fill-rule="evenodd"/><path d="M760.24,898.64l13.09,19.57c2.08-1.36,4.14-2.74,6.2-4.14L766.44,894.5c-2.06,1.39-4.12,2.78-6.2,4.14" fill-rule="evenodd"/><path d="M196,802c-1.06-1.06-2.06-2.18-3.11-3.25L180.62,811c1,1,1.93,2.07,2.93,3.07.76.75,1.56,1.46,2.33,2.21l12.26-12.21c-.7-.7-1.44-1.34-2.14-2" fill-rule="evenodd"/><path d="M252.93,849.61l-9.79,14.22c2,1.43,4,2.9,6.1,4.29L259,853.9c-2.06-1.39-4.06-2.86-6.1-4.29" fill-rule="evenodd"/><path d="M890.35,772.46l19.55,13.35c1.42-2,2.9-4,4.3-6.08l-19.55-13.35c-1.39,2-2.88,4-4.3,6.08" fill-rule="evenodd"/><path d="M936.48,690.46l21.86,9.3c1-2.27,2.07-4.51,3-6.8l-21.86-9.29c-1,2.28-2,4.52-3,6.79" fill-rule="evenodd"/><path d="M836.08,837.09c-.82.81-1.68,1.57-2.51,2.38l16.71,16.65c.89-.87,1.83-1.68,2.71-2.57s1.7-1.8,2.57-2.69L838.84,834.2c-.94.95-1.82,1.94-2.76,2.89" fill-rule="evenodd"/><path d="M966.2,597.19l23.37,4.66q.75-3.65,1.44-7.29l-23.39-4.67c-.46,2.43-.92,4.87-1.42,7.3" fill-rule="evenodd"/><path d="M976.1,500.38c0,1.12-.08,2.23-.08,3.35h23.89c0-1.25.09-2.48.09-3.73s-.08-2.46-.09-3.7H976c0,1.36.1,2.71.1,4.08" fill-rule="evenodd"/><path d="M585.43,84.49,589,66.92c-2.44-.5-4.88-1-7.33-1.42L578.1,83.07c2.45.46,4.89.92,7.33,1.42" fill-rule="evenodd"/><path d="M326.52,891l-6.79,15.83c2.28,1,4.53,2.06,6.82,3L333.34,894c-2.3-1-4.54-2-6.82-3" fill-rule="evenodd"/><path d="M498.08,75.56c1.25,0,2.49.08,3.74.09V57.73c-1.25,0-2.49-.09-3.74-.09s-2.48.08-3.72.09V75.65c1.24,0,2.47-.09,3.72-.09" fill-rule="evenodd"/><path d="M668.84,111l7.06-16.5c-2.28-1-4.52-2.07-6.82-3L662,108c2.3,1,4.54,2,6.82,3" fill-rule="evenodd"/><path d="M423.66,82.1l-3.29-17.62c-2.46.43-4.92.81-7.36,1.27l3.3,17.62c2.44-.47,4.9-.85,7.35-1.27" fill-rule="evenodd"/><path d="M342.67,104.65,336,88c-2.31.9-4.66,1.74-7,2.68l6.71,16.63c2.3-.94,4.64-1.79,7-2.69" fill-rule="evenodd"/><path d="M895.57,345l16.48-6.59c-.91-2.31-1.74-4.65-2.69-6.94L892.87,338c1,2.29,1.79,4.63,2.7,6.93" fill-rule="evenodd"/><path d="M742.2,152l10.14-14.73c-2-1.42-4-2.91-6.1-4.29L736.1,147.66c2.06,1.38,4.06,2.87,6.1,4.29" fill-rule="evenodd"/><path d="M855.17,267.47,870,257.62c-1.37-2.07-2.76-4.12-4.16-6.17L851,261.31c1.41,2.05,2.81,4.09,4.18,6.16" fill-rule="evenodd"/><path d="M264.83,144.59l-10-14.89c-2.08,1.36-4.15,2.72-6.21,4.11l9.94,14.87c2.06-1.39,4.15-2.74,6.23-4.09" fill-rule="evenodd"/><path d="M800.15,200.24c.69.69,1.33,1.42,2,2.12l12.65-12.6c-.76-.76-1.46-1.56-2.22-2.32-1-1-2.06-1.93-3.08-2.92l-12.65,12.61c1.08,1.05,2.21,2,3.28,3.11" fill-rule="evenodd"/><path d="M27.44,583.65,4,588c.43,2.45.8,4.9,1.27,7.33L28.71,591c-.46-2.43-.84-4.89-1.27-7.33" fill-rule="evenodd"/><path d="M60,309.67l-22.2-9.42c-1,2.28-2.07,4.52-3,6.81L57,316.47c1-2.29,2-4.52,3-6.8" fill-rule="evenodd"/><path d="M6.59,398.18c-.51,2.42-1,4.85-1.45,7.29l23.51,4.69q.71-3.66,1.46-7.29L6.59,398.18" fill-rule="evenodd"/><path d="M20.15,496.3H0v7.43H20.13c0-1.12-.08-2.23-.08-3.35,0-1.37.09-2.72.1-4.08" fill-rule="evenodd"/><path d="M106.16,227.8,86.25,214.2c-1.43,2-2.91,4-4.3,6.07l19.91,13.6c1.39-2,2.87-4,4.3-6.07" fill-rule="evenodd"/><path d="M160.07,163.68c1-1,2-1.82,2.91-2.75l-17.11-17.05c-.89.87-1.83,1.69-2.71,2.57s-1.7,1.8-2.57,2.69l17.1,17c.81-.82,1.57-1.67,2.38-2.49" fill-rule="evenodd"/><path d="M98,761.11,78.26,774.22c1.37,2.06,2.75,4.12,4.16,6.17l19.72-13.1c-1.39-2-2.76-4.11-4.13-6.18" fill-rule="evenodd"/><path d="M133.73,246.63c-1.43,2-2.91,4-4.31,6.07l14.72,10.05c1.39-2.05,2.87-4,4.3-6.07l-14.71-10.05" fill-rule="evenodd"/><path d="M52.91,674.16,30.83,683c.92,2.3,1.75,4.64,2.69,6.93L55.6,681.1c-.94-2.3-1.78-4.63-2.69-6.94" fill-rule="evenodd"/><path d="M196,200.24c1.08-1.07,2.21-2.07,3.3-3.13L186.65,184.5c-1,1-2.09,1.94-3.1,2.94-.76.76-1.45,1.55-2.2,2.3L194,202.34c.69-.69,1.32-1.42,2-2.1" fill-rule="evenodd"/><path d="M943.55,421.05l20.47-3.8c-.43-2.44-.8-4.9-1.27-7.33l-20.48,3.8c.48,2.44.85,4.89,1.28,7.33" fill-rule="evenodd"/><path d="M663.63,920.49l7.61,18.88c2.32-.9,4.66-1.73,7-2.67l-7.61-18.89c-2.3.94-4.65,1.78-7,2.68" fill-rule="evenodd"/><path d="M746.32,877.82l11.35,17c2.07-1.36,4.13-2.75,6.19-4.14l-11.35-17q-3.07,2.1-6.19,4.14" fill-rule="evenodd"/><path d="M869.57,758.27l16.95,11.57c1.43-2,2.91-4,4.3-6.07l-17-11.58c-1.38,2.06-2.87,4-4.3,6.08" fill-rule="evenodd"/><path d="M818.11,819.56c-.75.76-1.55,1.46-2.32,2.2l14.49,14.44c.83-.81,1.7-1.57,2.52-2.39s1.82-1.93,2.75-2.88l-14.5-14.44c-1,1-1.93,2.07-2.94,3.07" fill-rule="evenodd"/><path d="M577.52,944.62l3.73,20c2.45-.43,4.92-.8,7.36-1.27l-3.74-20c-2.44.47-4.91.84-7.35,1.27" fill-rule="evenodd"/><path d="M333.07,80.82l-7.88-19.54c-2.32.91-4.66,1.74-7,2.68l7.88,19.54c2.3-.94,4.64-1.78,7-2.68" fill-rule="evenodd"/><path d="M418.94,56.85l-3.88-20.7c-2.45.43-4.91.8-7.35,1.27l3.87,20.7c2.44-.47,4.91-.84,7.36-1.27" fill-rule="evenodd"/><path d="M913.25,680.58l19,8.07c1-2.27,2.07-4.51,3-6.8l-19-8.06c-1,2.29-2,4.52-3,6.79" fill-rule="evenodd"/><path d="M405.41,942.16l-4,19.92c2.43.5,4.88,1,7.32,1.44l4-19.93c-2.45-.46-4.89-.93-7.32-1.43" fill-rule="evenodd"/><path d="M498.08,951.64c-1.25,0-2.48-.08-3.72-.09v20.3c1.24,0,2.47.09,3.72.09s2.49-.08,3.74-.09v-20.3c-1.25,0-2.49.09-3.74.09" fill-rule="evenodd"/><path d="M818.11,182c.76.75,1.46,1.55,2.22,2.31L835.2,169.5c-.82-.83-1.58-1.69-2.4-2.51s-1.94-1.81-2.89-2.74L815,179c1,1,2.08,1.93,3.08,2.93" fill-rule="evenodd"/><path d="M679,87.35,687.25,68c-2.28-1-4.52-2.07-6.81-3l-8.3,19.35c2.3,1,4.54,2,6.82,3" fill-rule="evenodd"/><path d="M498.08,49.88c1.25,0,2.49.08,3.74.09V28.91c-1.25,0-2.49-.09-3.74-.09s-2.48.08-3.72.09V50c1.24,0,2.47-.09,3.72-.09" fill-rule="evenodd"/><path d="M941.37,592.23l20.27,4c.51-2.43,1-4.86,1.43-7.3l-20.3-4c-.46,2.44-.9,4.88-1.4,7.3" fill-rule="evenodd"/><path d="M590.49,59.31l4.15-20.65c-2.44-.5-4.88-1-7.32-1.44l-4.15,20.66c2.44.46,4.89.93,7.32,1.43" fill-rule="evenodd"/><path d="M756.74,130.81l11.93-17.32c-2-1.42-4-2.9-6.1-4.28l-11.92,17.32c2.06,1.38,4.06,2.86,6.09,4.28" fill-rule="evenodd"/><path d="M876.5,253.31,894,241.72c-1.37-2.07-2.76-4.12-4.16-6.17l-17.47,11.6c1.4,2,2.8,4.09,4.17,6.16" fill-rule="evenodd"/><path d="M950.7,500.76c0,1-.06,2-.07,3h20.75c0-1.12.08-2.23.08-3.35,0-1.37-.09-2.72-.1-4.08H950.6c0,1.49.1,3,.1,4.46" fill-rule="evenodd"/><path d="M918.52,425.7l17.37-3.23c-.44-2.44-.8-4.89-1.28-7.32l-17.37,3.23c.47,2.42.84,4.88,1.28,7.32" fill-rule="evenodd"/><path d="M919.29,335.47l19.41-7.76c-.92-2.31-1.75-4.65-2.69-6.94l-19.42,7.77c.95,2.29,1.78,4.63,2.7,6.93" fill-rule="evenodd"/><path d="M52.35,579,32,582.8c.43,2.44.8,4.9,1.27,7.33l20.34-3.78c-.46-2.43-.85-4.88-1.27-7.33" fill-rule="evenodd"/><path d="M45.45,500.76c0-1.49.09-3,.1-4.46H24.8c0,1.36-.1,2.71-.1,4.08,0,1.12.07,2.23.08,3.35H45.52c0-1-.07-2-.07-3" fill-rule="evenodd"/><path d="M55.11,407.85l-20.44-4.07q-.77,3.63-1.46,7.29l20.42,4.07c.47-2.43,1-4.86,1.48-7.29" fill-rule="evenodd"/><path d="M107,329.68l-16.35-6.95c-1,2.26-2.07,4.5-3,6.79l16.34,7c1-2.29,2-4.52,3-6.79" fill-rule="evenodd"/><path d="M70.84,501.14c0-1.62.1-3.22.12-4.84H53.35c0,1.49-.11,3-.11,4.46,0,1,.07,2,.07,3H70.9c0-.86-.06-1.72-.06-2.59" fill-rule="evenodd"/><path d="M417.64,919.14c-2.44-.46-4.88-.93-7.32-1.44l-3.39,16.84q3.66.75,7.33,1.44l3.38-16.84" fill-rule="evenodd"/><path d="M80.1,412.84l-17.35-3.46Q62,413,61.27,416.67l17.34,3.45c.47-2.43,1-4.86,1.49-7.28" fill-rule="evenodd"/><path d="M582.1,969.13l4.32,23c2.45-.43,4.91-.8,7.35-1.27l-4.31-23c-2.44.47-4.91.84-7.36,1.27" fill-rule="evenodd"/><path d="M498.08,976.57c-1.25,0-2.48-.08-3.72-.09v23.43c1.24,0,2.47.09,3.72.09s2.49-.08,3.74-.09V976.48c-1.25,0-2.49.09-3.74.09" fill-rule="evenodd"/><path d="M306.83,936.91l-9.26,21.61c2.28,1,4.53,2.05,6.83,3l9.25-21.6-6.82-3" fill-rule="evenodd"/><path d="M178,182c1-1,2.08-2,3.1-2.94L166.26,164.2c-1,.93-2,1.8-2.9,2.75s-1.58,1.67-2.39,2.49l14.87,14.82c.75-.76,1.44-1.55,2.2-2.3" fill-rule="evenodd"/><path d="M400.49,966.62l-4.62,23q3.64.75,7.32,1.44l4.62-23c-2.45-.47-4.89-.94-7.32-1.44" fill-rule="evenodd"/><path d="M119,747.18l-17.12,11.36c1.36,2.07,2.73,4.14,4.13,6.19l17.1-11.36c-1.39-2-2.75-4.12-4.11-6.19" fill-rule="evenodd"/><path d="M64.22,311.49c-1,2.27-2.07,4.51-3,6.8l19.25,8.18c1-2.28,2-4.52,3-6.79l-19.25-8.19" fill-rule="evenodd"/><path d="M76.37,664.77l-19.15,7.66c.91,2.31,1.74,4.65,2.69,6.94l19.15-7.67c-.94-2.29-1.78-4.62-2.69-6.93" fill-rule="evenodd"/><path d="M127.3,242.24,110,230.42c-1.43,2-2.91,4-4.3,6.07L123,248.31c1.39-2.05,2.87-4,4.3-6.07" fill-rule="evenodd"/><path d="M323.49,917l-6.82-3-8,18.72c2.28,1,4.53,2.06,6.82,3l8-18.71" fill-rule="evenodd"/><path d="M99.83,655.39,83.6,661.88c.91,2.31,1.75,4.64,2.69,6.93l16.24-6.49c-1-2.3-1.8-4.62-2.7-6.93" fill-rule="evenodd"/><path d="M77.25,574.4,60,577.6c.43,2.44.81,4.9,1.28,7.33l17.24-3.21c-.46-2.43-.85-4.88-1.28-7.32" fill-rule="evenodd"/><path d="M178,819.56c-1-1-1.94-2-2.93-3.06L160.61,831c.94.94,1.81,1.93,2.75,2.86s1.69,1.58,2.52,2.4l14.49-14.43c-.77-.76-1.57-1.46-2.33-2.22" fill-rule="evenodd"/><path d="M238.74,870.23,227.16,887c2,1.43,4.05,2.9,6.1,4.29l11.57-16.81c-2.05-1.39-4.06-2.86-6.09-4.29" fill-rule="evenodd"/><path d="M250.55,123.24l-11.7-17.5c-2.08,1.36-4.15,2.73-6.21,4.13l11.69,17.48c2.06-1.4,4.14-2.75,6.22-4.11" fill-rule="evenodd"/><path d="M160.07,837.09c-.94-.94-1.8-1.93-2.74-2.87L140.6,850.88c.87.88,1.68,1.8,2.56,2.67s1.83,1.71,2.72,2.59l16.72-16.66c-.83-.81-1.7-1.57-2.53-2.39" fill-rule="evenodd"/><path d="M498.08,926.73c-1.25,0-2.48-.08-3.72-.1v17.16c1.24,0,2.47.09,3.72.09s2.49-.08,3.74-.09V926.63c-1.25,0-2.49.1-3.74.1" fill-rule="evenodd"/><path d="M230.64,895.15c-2.06-1.4-4.06-2.87-6.1-4.29l-13.35,19.4c2,1.42,4,2.89,6.1,4.28l13.35-19.39" fill-rule="evenodd"/><path d="M130.51,339.68,117.06,334c-1,2.27-2.08,4.5-3,6.79l13.45,5.72c1-2.29,2-4.52,3-6.79" fill-rule="evenodd"/><path d="M925.31,501.14c0,.87-.06,1.73-.06,2.59h17.59c0-1,.07-2,.07-3,0-1.49-.09-3-.11-4.46H925.19c0,1.62.12,3.22.12,4.84" fill-rule="evenodd"/><path d="M654.28,897.33l6.44,16c2.32-.91,4.66-1.74,7-2.68l-6.44-16c-2.3.94-4.64,1.78-7,2.69" fill-rule="evenodd"/><path d="M572.93,920.11,576.09,937c2.44-.43,4.91-.8,7.35-1.28l-3.16-16.87c-2.44.47-4.9.84-7.35,1.27" fill-rule="evenodd"/><path d="M169.58,271.12l-12.11-8.28c-1.44,2-2.91,4-4.31,6.07l12.12,8.28c1.39-2.05,2.87-4.05,4.3-6.07" fill-rule="evenodd"/><path d="M105.09,417.83,90.83,415c-.51,2.43-1,4.85-1.49,7.29l14.25,2.84c.47-2.44,1-4.86,1.5-7.28" fill-rule="evenodd"/><path d="M102.16,569.77,88,572.4c.42,2.44.81,4.89,1.28,7.33l14.15-2.63c-.46-2.43-.86-4.88-1.28-7.33" fill-rule="evenodd"/><path d="M96.23,501.52c0-1.75.11-3.48.13-5.22H81.9c0,1.62-.12,3.22-.12,4.84,0,.87.06,1.73.07,2.59H96.29c0-.74-.06-1.47-.06-2.21" fill-rule="evenodd"/><path d="M123.28,646,110,651.32c.9,2.31,1.76,4.64,2.7,6.93l13.3-5.32c-.94-2.29-1.81-4.62-2.71-6.93" fill-rule="evenodd"/><path d="M161,719.32l-11.88,7.88c1.36,2.08,2.7,4.16,4.1,6.21l11.86-7.87c-1.39-2-2.72-4.15-4.08-6.22" fill-rule="evenodd"/><path d="M732.4,857l9.6,14.35q3.12-2.05,6.19-4.15l-9.6-14.35c-2.05,1.4-4.12,2.78-6.19,4.15" fill-rule="evenodd"/><path d="M890,670.71l16.07,6.83c1-2.27,2.07-4.51,3-6.8L893,663.9c-1,2.29-2,4.53-3,6.81" fill-rule="evenodd"/><path d="M800.15,802c-.69.69-1.43,1.33-2.13,2l12.26,12.21c.77-.74,1.56-1.44,2.32-2.19,1-1,1.94-2.07,2.94-3.08l-12.27-12.22c-1.06,1.07-2,2.2-3.12,3.26" fill-rule="evenodd"/><path d="M916.54,587.28l17.18,3.43c.51-2.43.95-4.87,1.41-7.3L917.92,580c-.46,2.44-.88,4.89-1.38,7.31" fill-rule="evenodd"/><path d="M848.79,744.07l14.36,9.8c1.42-2,2.91-4,4.3-6.07L853.1,738c-1.39,2-2.88,4-4.31,6.07" fill-rule="evenodd"/></svg>