<svg xmlns="http://www.w3.org/2000/svg" viewBox="0 0 1000 1000"><path d="M500,233.32c-147.81,0-268.07,120.25-268.07,268.07S352.19,769.46,500,769.46,768.06,649.2,768.06,501.39,647.81,233.32,500,233.32Zm0,540.91c-150.45,0-272.84-122.4-272.84-272.84S349.55,228.55,500,228.55,772.84,350.94,772.84,501.39,650.44,774.23,500,774.23Zm0-561.69c-159.2,0-288.72,129.52-288.72,288.72S340.8,790,500,790,788.72,660.46,788.72,501.26,659.2,212.54,500,212.54Zm0,582.21c-161.83,0-293.49-131.66-293.49-293.49S338.17,207.76,500,207.76s293.49,131.66,293.49,293.5S661.83,794.75,500,794.75Zm0-603c-170.59,0-309.37,138.79-309.37,309.38S329.41,810.5,500,810.5,809.37,671.72,809.37,501.14,670.58,191.76,500,191.76Zm0,623.51c-173.22,0-314.14-140.92-314.14-314.13S326.78,187,500,187,814.14,327.91,814.14,501.14,673.22,815.27,500,815.27ZM500,171c-182,0-330,148-330,330S318,831,500,831,830,683,830,501,682,171,500,171Zm0,664.81C315.39,835.8,165.21,685.62,165.21,501S315.39,166.21,500,166.21,834.8,316.4,834.8,501,684.61,835.8,500,835.8Zm0-685.59c-193.36,0-350.67,157.31-350.67,350.67S306.64,851.55,500,851.55,850.67,694.24,850.67,500.88,693.36,150.21,500,150.21Zm0,706.11c-196,0-355.45-159.45-355.45-355.44S304,145.43,500,145.43,855.45,304.89,855.45,500.88,696,856.32,500,856.32Zm0-726.89c-204.75,0-371.32,166.58-371.32,371.33S295.25,872.08,500,872.08,871.32,705.5,871.32,500.76,704.75,129.43,500,129.43Zm0,747.42c-207.38,0-376.09-168.71-376.09-376.09S292.62,124.66,500,124.66s376.1,168.72,376.1,376.1S707.38,876.85,500,876.85Zm0-768.19c-216.13,0-392,175.84-392,392s175.84,392,392,392,392-175.84,392-392S716.17,108.67,500,108.67Zm0,788.71c-218.77,0-396.75-178-396.75-396.74S281.23,103.89,500,103.89s396.75,178,396.75,396.74S718.77,897.37,500,897.37ZM500,87.9C272.48,87.89,87.38,273,87.38,500.5S272.48,913.12,500,913.12,912.62,728,912.62,500.5,727.52,87.89,500,87.89Zm0,830c-230.15,0-417.39-187.24-417.39-417.4S269.85,83.11,500,83.11,917.4,270.35,917.4,500.5,730.16,917.9,500,917.9Zm0-850.79c-238.91,0-433.27,194.36-433.27,433.27S261.09,933.65,500,933.65,933.27,739.28,933.27,500.38,738.91,67.11,500,67.11Zm0,871.32c-241.54,0-438-196.51-438-438s196.51-438,438.05-438,438,196.41,438,438S741.54,938.43,500,938.43Zm0-892.1C249.71,46.33,46.08,250,46.08,500.25S249.71,954.18,500,954.18,953.92,750.54,953.92,500.25,750.29,46.33,500,46.33ZM500,959C247.07,959,41.3,753.18,41.3,500.25S247.07,41.56,500,41.56,958.7,247.33,958.7,500.25,752.93,959,500,959Zm0-933.39c-261.68,0-474.58,212.88-474.58,474.57S238.32,974.7,500,974.7,974.57,761.81,974.57,500.12,761.68,25.56,500,25.56Zm0,953.92c-264.32,0-479.35-215-479.35-479.35S235.68,20.78,500,20.78s479.35,215,479.35,479.34S764.31,979.48,500,979.48ZM500,4.77C226.93,4.77,4.78,226.93,4.78,500S226.93,995.23,500,995.23,995.22,773.07,995.22,500,773.07,4.77,500,4.77ZM500,1000C224.3,1000,0,775.7,0,500S224.3,0,500,0s500,224.3,500,500S775.7,1000,500,1000Z" fill-rule="evenodd"/></svg>