<svg xmlns="http://www.w3.org/2000/svg" width="16" height="16" viewBox="0 0 16 16">
    <path fill="#fff" fill-rule="evenodd" d="M13.635 13.634h-2.373V9.92c0-.885-.016-2.024-1.234-2.024-1.234 0-1.422.965-1.422 1.96v3.778H6.235V5.998h2.274v1.044h.033c.317-.6 1.09-1.233 2.245-1.233 2.404 0 2.848 1.58 2.848 3.637v4.188zM3.559 4.956c-.762 0-1.378-.617-1.378-1.377s.616-1.376 1.378-1.376c.759 0 1.375.617 1.375 1.376 0 .76-.616 1.377-1.375 1.377zm-1.19 8.678h2.377V5.998H2.37v7.636zM14.817 0H1.18C.529 0 0 .516 0 1.154v13.691C0 15.483.529 16 1.18 16h13.636c.652 0 1.184-.517 1.184-1.155V1.154C16 .516 15.468 0 14.816 0z"/>
</svg>
