<svg xmlns="http://www.w3.org/2000/svg" viewBox="0 0 307.35 430.61"><path d="M228.66,156.79l-22.93-4.59c-.36,1.61-.79,3.21-1.12,4.84l22.93,4.59c.34-1.63.75-3.23,1.12-4.84m18.21-53.88-21.56-9.2c-.69,1.5-1.39,3-2.05,4.53l21.56,9.2c.67-1.52,1.36-3,2.05-4.53M236,130.45l-22.39-6.84c-.53,1.57-1.11,3.12-1.6,4.71l22.4,6.84c.49-1.59,1.07-3.14,1.59-4.71m23.41-51.74-20.58-11.3c-.83,1.44-1.68,2.86-2.48,4.31L256.94,83c.81-1.44,1.63-2.88,2.48-4.31m14.82-22.87L254.88,42.57c-1,1.34-1.93,2.68-2.88,4l19.36,13.28c.94-1.37,1.91-2.71,2.88-4M28.34,67l-5.63-1.72c-.5,1.58-1,3.15-1.52,4.74l5.62,1.71c.48-1.59,1-3.15,1.53-4.73M46.87,17.54l-5.45-2.32c-.66,1.51-1.37,3-2,4.54l5.45,2.33c.65-1.53,1.35-3,2-4.55M50.12,342l-7.54,2.2c.45,1.59.86,3.2,1.32,4.79l7.55-2.2c-.47-1.59-.88-3.19-1.33-4.79m14.64,43.82-7.26,2.91c.61,1.54,1.17,3.1,1.79,4.64l7.26-2.92c-.62-1.53-1.19-3.09-1.79-4.63m-24.84-88.9-7.76,1.45c.28,1.63.54,3.27.84,4.9l7.76-1.45c-.3-1.63-.56-3.27-.84-4.9m211.49,46.22L231,354c.75,1.48,1.5,3,2.27,4.43l20.4-10.86c-.78-1.46-1.53-2.94-2.27-4.42m13.68,24.07L245.9,380c.89,1.4,1.77,2.8,2.68,4.18l19.2-12.79c-.92-1.38-1.8-2.78-2.69-4.18m16.05,22.65-17.81,14.61c1,1.3,2,2.63,3.07,3.91l17.82-14.61c-1.05-1.28-2.05-2.6-3.08-3.91M222.27,235l-23.17,2c.1,1.66.24,3.31.38,4.95l23.16-2c-.12-1.65-.28-3.3-.37-5m-.37-23.82H198.6c0,1.65-.11,3.3-.12,5h23.3c0-1.67.08-3.32.12-5m2-27.37-23.22-2.3c-.2,1.65-.46,3.28-.63,4.94l23.23,2.3c.17-1.66.42-3.29.62-4.94m1.31,78.55-22.82,4.26c.27,1.64.58,3.26.88,4.89l22.82-4.25c-.29-1.63-.62-3.25-.88-4.9m5.72,27-22.25,6.48c.42,1.6.9,3.18,1.35,4.77l22.26-6.47c-.45-1.6-.94-3.18-1.36-4.78m8.39,26.31-21.47,8.63c.59,1.55,1.21,3.08,1.82,4.62l21.48-8.63c-.61-1.54-1.25-3.07-1.83-4.62m60,95.12L283.05,427c1.15,1.19,2.26,2.42,3.43,3.6l16.27-16.27c-1.17-1.18-2.28-2.41-3.43-3.6m-79-13.8-15.57,10.37c.9,1.39,1.74,2.82,2.66,4.2L223,401.21c-.92-1.38-1.76-2.8-2.66-4.19m-41.11-92.58-18.06,5.26c.43,1.59.87,3.19,1.32,4.78l18.06-5.25q-.68-2.39-1.32-4.79m-7-32.2-18.52,3.46c.27,1.63.55,3.26.85,4.89l18.52-3.45c-.3-1.63-.58-3.26-.85-4.9m17.12,63.53-17.43,7c.6,1.54,1.18,3.09,1.79,4.63l17.42-7c-.61-1.54-1.21-3.08-1.78-4.63M167.89,211.18H149c0,1.65-.11,3.3-.12,5H167.8c0-1.67.09-3.32.12-5m.65,28.43-18.81,1.62c.12,1.65.23,3.3.37,5l18.81-1.61c-.14-1.65-.26-3.3-.37-5m35.35,128.81-16.54,8.8c.75,1.48,1.46,3,2.24,4.45l16.54-8.81c-.78-1.46-1.48-3-2.24-4.44M153.42,312l-15.95,4.65c.43,1.6.86,3.2,1.32,4.79l16-4.64c-.46-1.6-.89-3.2-1.33-4.8m-7.61-34.77-16.37,3c.28,1.63.55,3.27.85,4.9l16.36-3.05c-.29-1.64-.57-3.27-.84-4.9M141.72,242l-16.63,1.43c.12,1.65.23,3.3.37,5L142,246.87c-.13-1.64-.25-3.3-.36-5M180.21,381l-14.61,7.8c.76,1.47,1.45,3,2.23,4.44l14.61-7.77c-.77-1.47-1.48-3-2.23-4.45m-15.74-35.24L149.08,352c.6,1.55,1.17,3.1,1.79,4.64l15.39-6.18c-.62-1.54-1.2-3.09-1.79-4.64m7.31-274.93-15.53-6.62c-.67,1.51-1.36,3-2,4.54l15.52,6.63c.65-1.52,1.34-3,2-4.55M140.89,211.18H124.16c0,1.66-.12,3.3-.12,5h16.72c0-1.67.1-3.31.13-5M187.75,39.36l-14.82-8.14c-.82,1.44-1.66,2.87-2.45,4.32l14.82,8.14c.8-1.44,1.63-2.88,2.45-4.32M143.17,175.81l-16.68-1.65c-.19,1.65-.45,3.28-.61,4.94l16.68,1.65c.17-1.65.42-3.29.61-4.94M206.78,9.58,192.81,0c-1,1.35-1.92,2.7-2.86,4.06l14,9.58c.94-1.36,1.9-2.71,2.86-4.06m-57.9,131.24-16.48-3.3c-.34,1.62-.76,3.22-1.08,4.85l16.48,3.3c.32-1.63.73-3.23,1.08-4.85m9.16-34.17L142,101.72c-.51,1.58-1.08,3.14-1.56,4.73l16.11,4.92c.49-1.59,1-3.15,1.56-4.72m40,305.22L184.32,421c.9,1.39,1.73,2.82,2.66,4.2L200.72,416c-.92-1.38-1.76-2.8-2.66-4.2M146.79,60.19l-13.51-5.76c-.66,1.51-1.36,3-2,4.54l13.51,5.77c.65-1.52,1.34-3,2-4.55M184,114.57,165.81,109c-.51,1.58-1.08,3.14-1.56,4.72l18.21,5.56c.48-1.58,1-3.14,1.55-4.72m12.75-33L179.22,74c-.68,1.52-1.37,3-2,4.55L194.76,86c.66-1.52,1.34-3,2-4.54m-26.67,97-18.87-1.87c-.19,1.65-.44,3.28-.61,4.94l18.87,1.87c.17-1.66.41-3.29.61-4.94m5.38-32.34-18.63-3.73c-.35,1.62-.76,3.22-1.08,4.85L174.39,151c.32-1.63.73-3.23,1.08-4.85m-60.66,98.08-14.44,1.24c.12,1.65.23,3.31.37,5l14.44-1.24c-.14-1.65-.25-3.3-.37-5m1.45-71.07-14.51-1.44c-.18,1.65-.44,3.28-.6,4.94l14.5,1.43c.16-1.65.42-3.28.61-4.93m-2.38,38H99.34c0,1.66-.11,3.3-.12,5h14.54c0-1.67.1-3.31.12-5m8.47-75.68L108,132.63c-.34,1.62-.76,3.22-1.08,4.85l14.32,2.87c.33-1.63.75-3.23,1.09-4.85m9.77-36.78-14-4.28c-.51,1.58-1.08,3.14-1.56,4.72l14,4.29c.49-1.59,1.06-3.15,1.56-4.73m7.42,257.07-13.35,5.37c.59,1.55,1.17,3.1,1.79,4.64l13.35-5.37c-.62-1.54-1.2-3.09-1.79-4.64M127.6,319.47l-13.85,4c.44,1.59.86,3.19,1.32,4.78l13.85-4c-.46-1.59-.88-3.19-1.32-4.79m-8.27-37.35-14.21,2.64c.28,1.64.54,3.27.85,4.9L120.18,287c-.3-1.63-.57-3.26-.85-4.89M211.58,52.45l-16.74-9.2c-.82,1.44-1.65,2.88-2.45,4.33l16.74,9.19q1.22-2.18,2.45-4.32M156.52,393.63l-12.68,6.74c.76,1.48,1.46,3,2.24,4.45l12.68-6.75c-.79-1.46-1.48-3-2.24-4.44m7.39-367.36L151,19.19c-.81,1.44-1.65,2.87-2.45,4.32l12.9,7.09c.8-1.45,1.63-2.89,2.45-4.33M229.23,25,213.45,14.15c-1,1.36-1.92,2.7-2.86,4.06L226.37,29c.94-1.36,1.9-2.71,2.86-4.05M96.84,38.87l-9.49-4c-.66,1.52-1.36,3-2,4.55l9.48,4c.65-1.53,1.35-3,2-4.55m-16.61,44-9.83-3c-.49,1.59-1.06,3.15-1.54,4.73l9.82,3c.48-1.59,1-3.14,1.55-4.72m147.52,272.8-18.64,9.92c.75,1.48,1.46,3,2.24,4.44L230,360.16c-.77-1.47-1.52-3-2.27-4.43M194.9,211.18H173.78c0,1.65-.11,3.3-.12,5h21.11c0-1.67.09-3.32.13-5m3.88,56.12-20.71,3.86c.27,1.64.56,3.27.85,4.9l20.73-3.87c-.29-1.63-.6-3.25-.87-4.89m-3.37-30-21,1.8q.17,2.47.36,5l21-1.8c-.14-1.65-.28-3.29-.38-4.95m6.69-85.84-20.85-4.18c-.35,1.62-.75,3.23-1.08,4.85L201,156.3c.34-1.63.76-3.22,1.13-4.84M197,181.15l-21-2.09c-.19,1.65-.44,3.28-.61,4.94l21,2.08c.17-1.65.43-3.28.63-4.93M235.59,65.63,216.75,55.29c-.82,1.43-1.65,2.87-2.45,4.32l18.81,10.33c.81-1.45,1.65-2.88,2.48-4.31M221.9,92.25l-19.72-8.42c-.68,1.52-1.36,3-2,4.55l19.69,8.4c.66-1.52,1.36-3,2-4.53m-11.83,30.27-20.42-6.23c-.51,1.58-1.07,3.14-1.56,4.72l20.38,6.23c.5-1.59,1.08-3.14,1.6-4.72m4.37,203.19-19.57,7.86c.59,1.55,1.17,3.1,1.79,4.63l19.6-7.87c-.61-1.54-1.23-3.07-1.82-4.62m28.37,56.35-17.54,11.69c.9,1.39,1.74,2.81,2.66,4.19l17.57-11.7c-.92-1.38-1.79-2.79-2.69-4.18m27.58-365L253.94,3.23c-1.09,1.25-2.18,2.5-3.25,3.76l16.44,13.84c1.07-1.26,2.17-2.51,3.26-3.76m-9.93,389.75L244.2,420.15c1,1.3,2,2.63,3.06,3.92l16.28-13.34c-1.05-1.29-2.05-2.61-3.08-3.91M205.15,296.9l-20.24,5.89q.65,2.4,1.32,4.79l20.28-5.9c-.46-1.59-.93-3.18-1.36-4.78M251.83,40.47,234.09,28.31c-1,1.35-1.92,2.7-2.86,4.06L249,44.52c.94-1.36,1.91-2.7,2.88-4.05M69.24,124.86l-10-2c-.34,1.62-.74,3.23-1.06,4.86l10,2c.32-1.62.73-3.23,1.08-4.85m39.91,294-8.82,4.69c.77,1.47,1.48,3,2.26,4.43l8.8-4.68c-.79-1.46-1.48-3-2.24-4.44m-19.46-43-9.29,3.73c.6,1.55,1.16,3.11,1.78,4.64l9.3-3.73c-.62-1.54-1.19-3.1-1.79-4.64M76,334.51l-9.65,2.8c.45,1.6.86,3.2,1.32,4.79l9.65-2.81c-.46-1.59-.88-3.19-1.32-4.78M59.76,216c0-1.6.1-3.19.12-4.79H49.72c0,1.47-.11,2.93-.11,4.41v.56H59.76V216m2.67-48.15-10.15-1c-.17,1.65-.4,3.29-.56,4.94l10.13,1c.16-1.66.41-3.29.58-4.94m4,124.17-9.91,1.84c.28,1.64.54,3.27.84,4.9l9.92-1.85c-.3-1.63-.57-3.26-.85-4.89m-5.3-43.16L51,249.7c.12,1.65.22,3.31.36,5l10.09-.86c-.14-1.65-.25-3.31-.37-5m-26.86,2.31-7.9.67c.12,1.66.22,3.31.36,5l7.9-.68c-.14-1.64-.24-3.3-.36-4.95M307.35,17.48,290.84,1c-1.19,1.16-2.42,2.26-3.6,3.43l16.51,16.51c1.17-1.17,2.41-2.28,3.6-3.43M16.11,114.23l-5.74-1.15c-.33,1.62-.7,3.23-1,4.86l5.73,1.15c.32-1.63.7-3.24,1-4.86m275-79.7L273.2,19.46c-1.07,1.25-2.2,2.54-3.2,3.76l17.89,15.07c1.07-1.27,2.17-2.51,3.26-3.76M8.61,162.48l-5.79-.57c-.18,1.65-.37,3.29-.53,5l5.77.57c.16-1.66.37-3.3.55-5M5.77,215.2c0-1.35.09-2.68.1-4H.09c0,1.21-.09,2.41-.09,3.63v1.34H5.79v-1m134.31-202-11-6c-.82,1.44-1.66,2.87-2.46,4.33l11,6c.8-1.45,1.63-2.89,2.45-4.32m-104.56,152-8-.79c-.17,1.65-.38,3.29-.54,4.94l8,.79c.16-1.65.38-3.29.56-4.94M101.77,327,90,330.41c.45,1.59.86,3.2,1.32,4.79l11.75-3.42c-.46-1.59-.88-3.19-1.32-4.79m-8.91-39.94-12,2.25c.28,1.63.54,3.27.85,4.9L93.71,292c-.3-1.63-.57-3.26-.85-4.9m29-237.52-11.5-4.91c-.67,1.52-1.37,3-2,4.55l11.5,4.91c.65-1.53,1.35-3,2-4.55m-7.21,316.28-11.32,4.55c.6,1.54,1.17,3.1,1.79,4.63l11.32-4.55c-.62-1.53-1.19-3.09-1.79-4.63m-8.43-275-12-3.7c-.5,1.58-1.07,3.13-1.55,4.72l11.92,3.64c.48-1.59,1.06-3.14,1.56-4.72M95.79,130.18l-12.18-2.44c-.34,1.62-.75,3.23-1.07,4.85L94.71,135c.32-1.63.74-3.23,1.08-4.85m37,276.06L122.09,412c.76,1.47,1.46,3,2.24,4.44l10.74-5.71c-.78-1.47-1.48-3-2.24-4.44M88,246.53l-12.26,1.05c.12,1.65.23,3.31.36,4.95l12.26-1.05c-.13-1.65-.24-3.3-.36-4.95m-1.07-35.35H74.53c0,1.6-.12,3.19-.12,4.79v.18H86.76c0-1.67.1-3.31.12-5m2.46-40.7L77,169.26c-.18,1.65-.42,3.28-.58,4.94l12.3,1.22c.16-1.65.42-3.29.6-4.94M54.29,75l-7.73-2.36c-.5,1.59-1.06,3.15-1.54,4.73l7.72,2.36c.48-1.59,1-3.14,1.55-4.73M42.67,119.54,34.78,118c-.33,1.63-.71,3.24-1,4.86l7.87,1.58c.32-1.63.71-3.23,1.05-4.86M71.86,28.21,64.39,25c-.67,1.52-1.37,3-2,4.55l7.47,3.18c.65-1.52,1.35-3,2-4.54m-39.1,187.4c0-1.48.1-2.94.11-4.41h-8c0,1.34-.09,2.67-.09,4v1h8v-.56m7.07,180.26L34.6,398c.61,1.54,1.17,3.1,1.79,4.63l5.23-2.09c-.62-1.54-1.18-3.1-1.79-4.64M24.3,349.54l-5.45,1.58c.45,1.6.86,3.2,1.33,4.79l5.44-1.58c-.46-1.59-.88-3.2-1.32-4.79M13.44,301.86l-5.61,1c.3,1.63.55,3.27.85,4.9l5.61-1.05c-.3-1.62-.56-3.26-.85-4.89M7.37,253.44l-5.72.49c.12,1.65.22,3.31.36,5l5.72-.49c-.14-1.65-.24-3.3-.36-5" fill-rule="evenodd"/></svg>
