<svg xmlns="http://www.w3.org/2000/svg" viewBox="0 0 1000 999.14"><path d="M488.13,793.9A30.39,30.39,0,1,1,521,821.63c-.89.07-1.72.07-2.61.07a30.39,30.39,0,0,1-30.25-27.8m-73.19,19.28a30.23,30.23,0,1,1,7.4.94,29.33,29.33,0,0,1-7.4-.94m169.11-33.41a30.39,30.39,0,1,1,27.83,18.09,30.39,30.39,0,0,1-27.83-18.09m-266.75-9a30.31,30.31,0,1,1,16.52,4.91,30.3,30.3,0,0,1-16.52-4.91m352.79-35.6a30.4,30.4,0,1,1,22.32,9.75,30.42,30.42,0,0,1-22.32-9.75M238.72,699a30.51,30.51,0,1,1,24,11.59,30.51,30.51,0,0,1-24-11.59m498.33-33.89a30.4,30.4,0,1,1,14.45,3.66,30.42,30.42,0,0,1-14.45-3.66M187.68,605.7a30.41,30.41,0,1,1,28.73,20.41,30.42,30.42,0,0,1-28.73-20.41m590.05-28.5a30.36,30.36,0,1,1,4.92.4,36.81,36.81,0,0,1-4.92-.4M169.8,501v-1.38a30.41,30.41,0,0,1,60.81,0v1.07a30.34,30.34,0,0,1-30.2,30.48h-.18A30.4,30.4,0,0,1,169.85,501m582.66-45.07V456a30.38,30.38,0,1,1,35,24.87l-.14,0a34.89,34.89,0,0,1-5,.42,30.33,30.33,0,0,1-29.9-25.38M206.16,433.29A30.34,30.34,0,1,1,216,435a30.34,30.34,0,0,1-9.83-1.66m518.1-59v.06a18.06,18.06,0,1,0,0-.06m-481-30.51a30.42,30.42,0,1,1,18.65,6.38,30.44,30.44,0,0,1-18.65-6.38M671,306.27a30.42,30.42,0,1,1,20.55,8,30.42,30.42,0,0,1-20.55-8M307.47,271.18a30.38,30.38,0,1,1,25.46,13.71,30.39,30.39,0,0,1-25.46-13.71m291.14-12.13A30.35,30.35,0,1,1,623,203.46v0a30.35,30.35,0,0,1-12.25,58.14,29.9,29.9,0,0,1-12.15-2.6M391.73,223.21a30.36,30.36,0,1,1,36.89,22,32.86,32.86,0,0,1-7.46.88,30.36,30.36,0,0,1-29.43-22.88m123.1,14.84a30.93,30.93,0,1,1,2.43.06c-.77,0-1.6,0-2.43-.06" fill-rule="evenodd"/><path d="M467.79,912.57a30.3,30.3,0,1,1,1.83.06c-.59,0-1.18,0-1.83-.06m68-30.76A30.38,30.38,0,1,1,571.38,906a32.43,32.43,0,0,1-5.74.53,30.39,30.39,0,0,1-29.85-24.67m-170,11.71a30.33,30.33,0,1,1,9.36,1.48,30.33,30.33,0,0,1-9.36-1.48m263.79-34.3A30.39,30.39,0,1,1,670,873.71h0a30.9,30.9,0,0,1-13,2.89,30.36,30.36,0,0,1-27.48-17.39m-357.82-9.7A30.35,30.35,0,1,1,288,854.25a30.35,30.35,0,0,1-16.23-4.73m443-35.54a30.5,30.5,0,1,1,23.39,10.94A30.49,30.49,0,0,1,714.73,814M191.62,783.57a30.37,30.37,0,1,1,22.15,9.53,30.37,30.37,0,0,1-22.15-9.53m594.31-34.65a30.41,30.41,0,1,1,17.82,5.79,30.42,30.42,0,0,1-17.82-5.79m-655.59-49a30.39,30.39,0,1,1,41.33,11.83A30.8,30.8,0,0,1,157,715.57,30.4,30.4,0,0,1,130.34,700m708.59-31.59a30.31,30.31,0,1,1,11.13,2.13,30.74,30.74,0,0,1-11.13-2.13M91.85,603.57h0a30.37,30.37,0,1,1,37,21.76h0a30.74,30.74,0,0,1-7.64,1,30.43,30.43,0,0,1-29.36-22.77m778.22-26.48a30.37,30.37,0,1,1,3.73.23c-1.24,0-2.48-.12-3.73-.23M78.65,500.82v-1.25a30.38,30.38,0,0,1,60.76,0v1.11a30.37,30.37,0,0,1-30.32,30.41H109a30.32,30.32,0,0,1-30.37-30.22m764.83-46.08A30.38,30.38,0,1,1,877.55,481l-.14,0a27.5,27.5,0,0,1-3.85.3,30.42,30.42,0,0,1-30.08-26.56M113.41,433.62a30.42,30.42,0,1,1,7.59.95,30.83,30.83,0,0,1-7.59-.95m708-64.53a30.29,30.29,0,1,1,28.24,19.17,30.29,30.29,0,0,1-28.24-19.17m-679.7-27.61a30.36,30.36,0,1,1,14.62,3.78,30.36,30.36,0,0,1-14.62-3.78m636.87-49.74a30.49,30.49,0,1,1,24.58,12.42,30.5,30.5,0,0,1-24.58-12.42M192.15,259.27a30.34,30.34,0,1,1,20.79,8.3,30.32,30.32,0,0,1-20.79-8.3m525.69-32a30.38,30.38,0,1,1,19.36,7,30.39,30.39,0,0,1-19.36-7M261.41,192.14a30.39,30.39,0,1,1,25.64,14.08,30.38,30.38,0,0,1-25.64-14.08M643.1,179.89a30.56,30.56,0,1,1,12.9,2.84,30.56,30.56,0,0,1-12.9-2.84m-298-35.6a30.39,30.39,0,1,1,38.33,19.44h0a31,31,0,0,1-9.42,1.49,30.43,30.43,0,0,1-28.89-20.94m213.7,8.33h0a30.35,30.35,0,1,1,5.68.54,30,30,0,0,1-5.68-.54M438.12,118.8a30.4,30.4,0,1,1,32.29,28.38h0c-.65.06-1.31.06-2,.06a30.38,30.38,0,0,1-30.32-28.45" fill-rule="evenodd"/><path d="M495.49,970.34a30.39,30.39,0,1,1,32,28.74h-.05c-.54,0-1.06.06-1.6.06a30.39,30.39,0,0,1-30.31-28.8m-69.34,23.8a30.25,30.25,0,1,1,4.56.36,29,29,0,0,1-4.56-.36m164.37-32.2a30.37,30.37,0,1,1,37.06,21.76,31.14,31.14,0,0,1-7.63,1A30.38,30.38,0,0,1,590.52,962m-262.61,7.1A30.35,30.35,0,1,1,338.45,971a31.81,31.81,0,0,1-10.54-1.89m354-34.48a30.38,30.38,0,1,1,27.24,16.91,30.38,30.38,0,0,1-27.24-16.91m-445.1-10.06a30.38,30.38,0,1,1,16,4.61,30.38,30.38,0,0,1-16-4.61M765.88,889.3a30.41,30.41,0,1,1,24,11.71,30.41,30.41,0,0,1-24-11.71M156.62,862.63A30.27,30.27,0,1,1,177.46,871a30.27,30.27,0,0,1-20.84-8.35M839,828a30.5,30.5,0,1,1,19.78,7.28A30.5,30.5,0,0,1,839,828M90.39,786h0a30.39,30.39,0,0,1,49.77-34.89h0l.05.06A30.37,30.37,0,0,1,90.42,786m808-32.6a30.3,30.3,0,1,1,14.74,3.85,30.33,30.33,0,0,1-14.74-3.85M40.92,697.56a30.4,30.4,0,1,1,40,15.85,30.91,30.91,0,0,1-12,2.48A30.43,30.43,0,0,1,41,697.56M941.65,668.4a30.48,30.48,0,1,1,9.06,1.36,30.5,30.5,0,0,1-9.06-1.36M10.42,601a30.38,30.38,0,1,1,35.9,23.6h0a32.63,32.63,0,0,1-6.16.59A30.37,30.37,0,0,1,10.42,601m956.21-24.61a30.34,30.34,0,1,1,33.22-27.23v.06a30.35,30.35,0,0,1-30.2,27.32,25.16,25.16,0,0,1-3-.18M0,500.31l.06-.59L0,499.19a30.41,30.41,0,0,1,60.81,0v.95a30.43,30.43,0,0,1-30.32,30.45h0A30.43,30.43,0,0,1,0,500.31m939.28-46.17a30.38,30.38,0,1,1,33.3,27.15h0a28.75,28.75,0,0,1-3.08.17,30.38,30.38,0,0,1-30.19-27.32M33.87,434.25a30.16,30.16,0,1,1,6.1.65,31.28,31.28,0,0,1-6.1-.65M921.33,367a30.35,30.35,0,1,1,29,21.29,30.34,30.34,0,0,1-29-21.29M56.43,341.63a30.31,30.31,0,1,1,12,2.49,30.92,30.92,0,0,1-12-2.49M886.1,285.32a30.42,30.42,0,1,1,26.59,15.56,30.41,30.41,0,0,1-26.59-15.56M97.34,255.45A30.29,30.29,0,1,1,114.7,261a29.89,29.89,0,0,1-17.36-5.5m737.78-43.11a30.33,30.33,0,1,1,23,10.58,30.34,30.34,0,0,1-23-10.58m-680.4-33a30.38,30.38,0,1,1,22,9.46,30.38,30.38,0,0,1-22-9.46m615.75-28.27a30.45,30.45,0,1,1,18.59,6.33,30.45,30.45,0,0,1-18.59-6.33M226.25,116.22A30.4,30.4,0,1,1,252,130.48a30.4,30.4,0,0,1-25.75-14.26M694.84,104h0A30.37,30.37,0,0,1,721.6,49.45v.06a30.31,30.31,0,0,1-13.38,57.55A30.83,30.83,0,0,1,694.84,104M309,68.67a30.43,30.43,0,1,1,28.48,19.82A30.43,30.43,0,0,1,309,68.67m302.36,4.47h-.06a31.27,31.27,0,1,0,.06,0M399.62,38.87a30.36,30.36,0,1,1,34.64,25.42,29.77,29.77,0,0,1-4.62.36,30.38,30.38,0,0,1-30-25.78M523.26,59.8a29.93,29.93,0,1,1,1.53.06,13,13,0,0,1-1.53-.06" fill-rule="evenodd"/></svg>