<svg xmlns="http://www.w3.org/2000/svg" viewBox="0 0 11.65 218.38"><defs><style>.a{fill-rule:evenodd;}</style></defs><path class="a" d="M5.81,186.39c-1.94,0-3.87-.11-5.81-.14v7.57c1.94,0,3.87.15,5.81.15s3.89-.12,5.84-.15v-7.57c-2,0-3.88.14-5.84.14"/><path class="a" d="M5.81,26.76c-1.94,0-3.87-.12-5.81-.15V47.32c1.94,0,3.87.15,5.81.15s3.9-.11,5.84-.15V26.61c-2,0-3.88.15-5.84.15"/><path class="a" d="M5.81,53.36c-1.94,0-3.87-.11-5.81-.14V71.74c1.94,0,3.87.14,5.81.14s3.89-.11,5.84-.14V53.22c-2,0-3.88.14-5.84.14"/><path class="a" d="M5.81,80c-1.94,0-3.87-.11-5.81-.14V96.16c1.94,0,3.87.14,5.81.14s3.89-.11,5.84-.14V79.82c-2,0-3.88.15-5.84.15"/><path class="a" d="M5.81,106.57c-1.94,0-3.87-.11-5.81-.13v14.14c1.94,0,3.87.14,5.81.14s3.89-.12,5.84-.14V106.43c-2,0-3.88.14-5.84.14"/><path class="a" d="M5.81,159.79c-1.94,0-3.87-.12-5.81-.14v9.76c1.94,0,3.87.14,5.81.14s3.89-.12,5.84-.14v-9.76c-2,0-3.88.14-5.84.14"/><path class="a" d="M5.81,133.18c-1.94,0-3.87-.11-5.81-.14v12c1.94,0,3.87.15,5.81.15S9.7,145,11.65,145V133c-2,0-3.88.14-5.84.14"/><path class="a" d="M5.81.15C3.87.15,1.94,0,0,0V22.9c1.94,0,3.87.15,5.81.15s3.89-.11,5.84-.15V0C9.71,0,7.77.15,5.81.15"/><path class="a" d="M5.81,213c-1.94,0-3.87-.12-5.81-.14v5.38c1.94,0,3.87.14,5.81.14s3.89-.12,5.84-.14v-5.38c-2,0-3.88.14-5.84.14"/></svg>