<?xml version="1.0" encoding="UTF-8"?>
<svg width="32px" height="32px" viewBox="0 0 32 32" version="1.1" xmlns="http://www.w3.org/2000/svg" xmlns:xlink="http://www.w3.org/1999/xlink">
    <!-- Generator: sketchtool 63.1 (101010) - https://sketch.com -->
    <title>C732EDDE-129A-4B6D-B1D4-7834A5849F57</title>
    <desc>Created with sketchtool.</desc>
    <g id="Symbols" stroke="none" stroke-width="1" fill="none" fill-rule="evenodd">
        <g id="-Service-_Library-/-Bg-/-White" transform="translate(-1224.000000, -521.000000)">
            <polygon id="Rectangle" fill="#FFFFFF" points="0 0 1367 0 1367 2514 0 2514"></polygon>
            <g id="-Service-_Library-/-Headline-/-H1" stroke-width="1" transform="translate(92.000000, 70.000000)" fill="#000000" font-family=".SFNSDisplay, .SF NS Display" font-size="30" font-weight="normal" letter-spacing="0.2322821">
                <text id="↳-Headline">
                    <tspan x="0" y="29">Headline</tspan>
                </text>
            </g>
        </g>
        <g id="Service" transform="translate(-1134.000000, -373.000000)"></g>
        <g id="_Icons-/-32px---Social--/-whatsapp" fill="#000000">
            <path d="M5.5,26.5 L7.04641667,20.8505833 C6.09216667,19.1969167 5.59075,17.3223333 5.59166667,15.4000833 C5.59441667,9.39041667 10.4848333,4.5 16.4935833,4.5 C19.4095,4.50091667 22.1466667,5.63666667 24.2055,7.69733333 C26.2634167,9.758 27.3964167,12.497 27.3955006,15.4101667 C27.39275,21.42075 22.5023333,26.3111667 16.4935833,26.3111667 C14.6694167,26.31025 12.8718333,25.8528333 11.2795833,24.9838333 L5.5,26.5 Z M11.54725,23.01025 C13.0835833,23.9223333 14.55025,24.4686667 16.4899167,24.4695833 C21.4839167,24.4695833 25.5520833,20.4050833 25.554834,15.4083333 C25.5566667,10.4015 21.50775,6.3425 16.49725,6.34066667 C11.4995833,6.34066667 7.43416667,10.4051667 7.43233228,15.401 C7.43141667,17.4405833 8.02908333,18.96775 9.03283333,20.5655 L8.11708333,23.9095 L11.54725,23.01025 Z M21.9853333,18.0015833 C21.9175,17.8879167 21.736,17.8200833 21.4628333,17.6835 C21.1905833,17.5469167 19.8513333,16.8878333 19.6010833,16.7970833 C19.35175,16.7063333 19.17025,16.6605 18.9878333,16.9336667 C18.8063333,17.2059167 18.2838333,17.8200833 18.12525,18.0015833 C17.9666667,18.1830833 17.8071667,18.206 17.5349167,18.0694167 C17.2626667,17.9328333 16.3845,17.6459167 15.3440833,16.7173333 C14.5346667,15.995 13.9874167,15.1030833 13.8288333,14.8299167 C13.67025,14.5576667 13.8123333,14.4100833 13.948,14.2744167 C14.0708333,14.1525 14.22025,13.9563333 14.3568333,13.7968333 C14.49525,13.6391667 14.5401667,13.5255 14.6318333,13.3430833 C14.7225833,13.1615833 14.6776667,13.0020833 14.6089167,12.8655 C14.5401667,12.7298333 13.9956667,11.38875 13.76925,10.8433333 C13.5474167,10.3125833 13.3228333,10.3840833 13.156,10.3758333 L12.6335,10.3666667 C12.452,10.3666667 12.1568333,10.4345 11.9075,10.7076667 C11.6581667,10.9808333 10.9541667,11.639 10.9541667,12.9800833 C10.9541667,14.3211667 11.9304167,15.6164167 12.0660833,15.7979167 C12.2026667,15.9794167 13.9865,18.73125 16.7190833,19.911 C17.369,20.1915 17.8768333,20.35925 18.2719167,20.4848333 C18.9245833,20.692 19.5185833,20.6626667 19.9879167,20.593 C20.5113333,20.5150833 21.5994167,19.9339167 21.82675,19.29775 C22.0540833,18.6606667 22.0540833,18.11525 21.9853333,18.0015833 L21.9853333,18.0015833 Z M3.63806323,1.5 C2.45866437,1.5 1.5,2.43605556 1.5,3.59122222 L1.5,28.4071667 C1.5,29.5623333 2.45866437,30.5 3.63806323,30.5 L28.3538808,30.5 C29.536502,30.5 30.5,29.5623333 30.5,28.4071667 L30.5,3.59122222 C30.5,2.43605556 29.536502,1.5 28.3538808,1.5 L3.63806323,1.5 Z" id="Icon"></path>
        </g>
    </g>
</svg>