<svg xmlns="http://www.w3.org/2000/svg" width="1000" height="1000" viewBox="0 0 1000 1000">
    <g fill="#FC341E" fill-rule="evenodd">
        <path d="M793.02 345.75l16.87-8.97c-.78-1.46-1.65-2.88-2.46-4.33l-16.87 8.98c.81 1.45 1.669 2.86 2.46 4.32M228.66 441.98l-22.93-4.59c-.36 1.61-.79 3.21-1.12 4.84l22.93 4.59c.34-1.63.75-3.23 1.12-4.84M974.92 363.21l5.64-1.63c-.46-1.6-.85-3.21-1.32-4.79l-5.64 1.64c.469 1.58.86 3.19 1.32 4.78M566.96 177.2l3.79-18.92c-1.62-.33-3.25-.62-4.88-.93l-3.79 18.92c1.63.31 3.26.6 4.88.93M598.39 185.22l5.63-18.44c-1.58-.49-3.18-.95-4.77-1.41l-5.63 18.45c1.59.46 3.19.91 4.77 1.4M739.47 67.94l2.94-5.36c-1.45-.8-2.87-1.66-4.32-2.45l-2.95 5.36c1.46.79 2.88 1.64 4.33 2.45M246.87 388.1l-21.56-9.2c-.69 1.5-1.39 3-2.05 4.53l21.56 9.2c.67-1.52 1.36-3.02 2.05-4.53M236.01 415.64l-22.39-6.84c-.53 1.57-1.11 3.12-1.6 4.71l22.4 6.84c.49-1.59 1.07-3.14 1.59-4.71M756.67 291.69l14.82-12.16c-1.05-1.27-2.18-2.5-3.25-3.76l-14.821 12.15c1.071 1.26 2.201 2.49 3.251 3.77M912.07 227.28l4.98-3.31c-.92-1.38-1.88-2.73-2.81-4.1l-4.99 3.32c.93 1.37 1.899 2.71 2.82 4.09M734.78 267.61l13.57-13.57-.031-.03c-1.17-1.17-2.389-2.26-3.569-3.4l-13.57 13.57c1.19 1.15 2.42 2.25 3.6 3.43M818.78 408.67l18.26-5.32c-.47-1.59-.91-3.19-1.4-4.77l-18.28 5.32c.49 1.58.95 3.17 1.42 4.77M826.43 440.51l18.65-3.47c-.31-1.63-.58-3.27-.9-4.89l-18.69 3.48c.33 1.63.63 3.26.94 4.88M883.08 188.06l4.64-3.8c-1.04-1.29-2.14-2.53-3.2-3.81l-4.66 3.82c1.06 1.27 2.169 2.51 3.22 3.79M819.4 123.36l3.91-4.63c-1.26-1.08-2.49-2.19-3.76-3.25l-3.91 4.63c1.27 1.06 2.5 2.18 3.76 3.25M808.03 377.8l17.68-7.1c-.62-1.54-1.231-3.08-1.88-4.6l-17.7 7.11c.65 1.52 1.28 3.05 1.9 4.59M776.18 317.83l15.92-10.61c-.92-1.37-1.92-2.7-2.86-4.06l-15.93 10.61c.95 1.36 1.94 2.69 2.87 4.06M849.47 150.92c.33.33.639.68.97 1.02l4.27-4.27c-.4-.4-.76-.82-1.16-1.22-.78-.78-1.6-1.49-2.38-2.27l-4.28 4.28c.85.83 1.74 1.61 2.58 2.46M937.02 269.13l5.24-2.79c-.77-1.47-1.57-2.92-2.37-4.38l-5.26 2.8c.79 1.46 1.61 2.9 2.39 4.37M660.52 211.72l9.26-16.88c-1.44-.8-2.86-1.67-4.32-2.45l-9.27 16.88c1.46.78 2.88 1.64 4.33 2.45M780.84 93.7l3.44-5.02c-1.36-.94-2.7-1.94-4.07-2.86l-3.44 5.02c1.37.92 2.7 1.92 4.07 2.86M534.86 172.29l1.91-19.2c-1.65-.17-3.3-.31-4.95-.46l-1.91 19.2c1.66.15 3.31.28 4.95.46M959.149 317.09l5.481-2.2c-.61-1.54-1.16-3.1-1.78-4.64l-5.491 2.21c.631 1.53 1.181 3.09 1.79 4.63M832.23 501.34h18.92c-.01-1.67-.09-3.32-.12-4.97h-18.921c.031 1.65.111 3.3.121 4.97M713.97 248.59l12.37-14.69c-1.26-1.07-2.49-2.2-3.76-3.25l-12.38 14.7c1.28 1.05 2.51 2.17 3.77 3.24M631.38 197.42l7.56-17.72c-1.52-.66-3.01-1.38-4.54-2.01l-7.57 17.73c1.53.63 3.03 1.34 4.55 2M830.9 472.95l18.859-1.62c-.139-1.65-.249-3.3-.419-4.95l-18.89 1.63c.17 1.64.3 3.29.45 4.94M688.16 228.85L699.04 213c-1.37-.95-2.69-1.95-4.07-2.87l-10.87 15.86c1.37.92 2.7 1.92 4.06 2.86M259.42 363.9l-20.58-11.3c-.83 1.44-1.68 2.86-2.48 4.31l20.58 11.3c.81-1.44 1.64-2.88 2.48-4.31M895.44 622.2l11.69 3.58c.48-1.59.89-3.2 1.36-4.79l-11.71-3.57c-.46 1.59-.86 3.2-1.34 4.78M232.85 884.09l-4.32 6.3c1.36.95 2.7 1.93 4.06 2.86l4.32-6.3c-1.36-.93-2.7-1.91-4.06-2.86M776.53 472.63c.18 1.65.35 3.29.499 4.94l23.221-1.99c-.15-1.65-.28-3.3-.46-4.95l-23.26 2M272.1 908.75l-3.67 6.68c1.45.81 2.87 1.66 4.33 2.45l3.66-6.68c-1.45-.79-2.88-1.64-4.32-2.45M274.24 341.03l-19.36-13.27c-.96 1.34-1.93 2.68-2.88 4.04l19.36 13.28c.94-1.37 1.91-2.71 2.88-4.05M905.35 582.55l12.03 2.41c.33-1.62.55-3.26.86-4.89l-12.04-2.41c-.301 1.63-.53 3.27-.85 4.89M906.229 425.63l12.201-2.27c-.3-1.63-.531-3.28-.85-4.9l-12.19 2.28c.32 1.62.54 3.27.839 4.89M911.65 466.02l12.32-1.05c-.14-1.65-.2-3.31-.361-4.96l-12.319 1.06c.16 1.64.22 3.31.36 4.95M913.24 501.34h12.34c0-.06.01-.12.01-.18 0-1.6-.1-3.19-.12-4.79h-12.35c.02 1.66.12 3.3.12 4.97M911.279 542.09l12.261 1.22c.16-1.65.22-3.31.359-4.97l-12.249-1.21c-.14 1.65-.21 3.32-.371 4.96M196.31 855.72l-4.94 5.85c1.26 1.08 2.5 2.19 3.76 3.25l4.94-5.85c-1.27-1.07-2.51-2.18-3.76-3.25M68.58 259.11l-5.23-2.87c-.81 1.45-1.66 2.87-2.45 4.33l5.22 2.86c.8-1.45 1.64-2.88 2.46-4.32M756.62 611.09l21.29 9.08c.64-1.52 1.21-3.09 1.83-4.62l-21.29-9.09c-.62 1.54-1.19 3.1-1.83 4.63M766.68 582.88l22.17 6.77c.47-1.58.909-3.18 1.36-4.78l-22.17-6.77c-.44 1.6-.89 3.2-1.36 4.78M744.65 636.02l20.23 11.11c.79-1.45 1.52-2.94 2.29-4.41l-20.25-11.12c-.77 1.47-1.48 2.97-2.27 4.42M28.34 352.22l-5.63-1.72c-.5 1.58-1.04 3.15-1.52 4.74l5.62 1.71c.48-1.59 1.03-3.15 1.53-4.73M773.23 556.1l22.76 4.56c.32-1.63.59-3.26.88-4.89l-22.77-4.56c-.281 1.63-.56 3.26-.87 4.89M777.08 528.8l23.14 2.29c.15-1.65.25-3.31.38-4.96l-23.14-2.29c-.12 1.65-.231 3.31-.38 4.96M778.22 501.34h23.3c-.01-1.67-.09-3.32-.13-4.97H778.1c.04 1.65.11 3.3.12 4.97M46.87 302.73l-5.45-2.32c-.66 1.51-1.37 3.02-2.01 4.54l5.45 2.33c.65-1.53 1.35-3.03 2.01-4.55M169.61 831.17c-.9-.91-1.74-1.87-2.64-2.78l-5.44 5.43c.84.85 1.62 1.74 2.46 2.58.33.34.69.64 1.02.98l5.43-5.43c-.27-.27-.56-.51-.83-.78M663.6 121.93l4.98-11.68c-1.52-.65-3.01-1.37-4.54-2.01l-4.99 11.68c1.53.64 3.02 1.36 4.55 2.01M766.69 185.98l8.14-9.67c-1.27-1.07-2.5-2.19-3.77-3.25l-8.13 9.67c1.27 1.05 2.5 2.18 3.76 3.25M50.12 627.21l-7.54 2.2c.45 1.59.86 3.2 1.32 4.79l7.55-2.2c-.47-1.59-.88-3.19-1.33-4.79M64.76 671.03l-7.26 2.91c.61 1.54 1.17 3.1 1.79 4.64l7.26-2.92c-.62-1.53-1.19-3.09-1.79-4.63M734.5 161.27l7.16-10.43c-1.36-.95-2.7-1.94-4.07-2.87l-7.15 10.44c1.37.92 2.7 1.92 4.06 2.86M699.99 139.83l6.11-11.12c-1.45-.8-2.87-1.67-4.33-2.45l-6.1 11.12c1.46.78 2.87 1.64 4.32 2.45M39.92 582.11l-7.76 1.45c.28 1.63.54 3.27.84 4.9l7.76-1.45c-.3-1.63-.56-3.27-.84-4.9M622.37 106.68l3.72-12.16c-1.59-.49-3.17-.96-4.76-1.43l-3.72 12.16c1.59.47 3.18.94 4.76 1.43M542.96 90.54l1.26-12.67c-1.65-.17-3.3-.31-4.95-.46l-1.26 12.67c1.65.15 3.31.29 4.95.46M583.09 96.65l2.5-12.48c-1.62-.32-3.25-.62-4.88-.94l-2.5 12.48c1.63.32 3.26.61 4.88.94M896.85 385.94l11.95-3.48c-.46-1.59-.85-3.2-1.33-4.79l-11.941 3.48c.471 1.58.861 3.2 1.321 4.79M883.59 347.45l11.58-4.66c-.62-1.53-1.16-3.1-1.79-4.63l-11.61 4.66c.64 1.53 1.2 3.09 1.82 4.63M136.17 793.9l-5.97 4.89c1.04 1.29 2.07 2.59 3.12 3.87l5.96-4.89c-1.06-1.27-2.07-2.58-3.11-3.87M865.03 307.43l11.05-5.87c-.78-1.47-1.62-2.9-2.42-4.35l-11.06 5.88c.79 1.46 1.65 2.88 2.43 4.34M94.54 217.81l-4.94-3.39c-.95 1.36-1.93 2.7-2.86 4.06l4.93 3.39c.94-1.37 1.92-2.7 2.87-4.06M108.87 756.5l-6.45 4.29c.91 1.39 1.78 2.79 2.71 4.16l6.44-4.29c-.93-1.37-1.79-2.78-2.7-4.16M792.21 209.34c.14.14.27.29.41.43l8.91-8.92c-.2-.2-.39-.42-.6-.62-.97-.98-1.99-1.88-2.97-2.84l-8.92 8.93c1.04 1.02 2.14 1.98 3.17 3.02M844.14 272.54l10.44-6.96c-.91-1.37-1.91-2.7-2.84-4.07l-10.46 6.97c.94 1.36 1.94 2.69 2.86 4.06M819.89 239.86l9.73-7.97c-1.051-1.28-2.17-2.51-3.24-3.78l-9.74 7.99c1.07 1.26 2.2 2.48 3.25 3.76M85.46 716.63l-6.88 3.66c.77 1.47 1.49 2.97 2.27 4.43l6.86-3.65c-.78-1.46-1.48-2.97-2.25-4.44M500 88.3c.84 0 1.66.06 2.5.06V75.63c-.84 0-1.66-.06-2.5-.06-.83 0-1.64.06-2.47.06v12.73c.83 0 1.64-.06 2.47-.06M695.81 46.45l2.41-5.64c-1.52-.65-3.01-1.37-4.54-2.01l-2.41 5.63c1.53.65 3.02 1.36 4.54 2.02M251.41 628.33l-20.4 10.85c.75 1.48 1.5 2.96 2.27 4.43l20.4-10.86c-.78-1.46-1.53-2.94-2.27-4.42M500 6.16c.84 0 1.66.05 2.5.06V.06c-.84 0-1.66-.06-2.5-.06-.83 0-1.64.05-2.47.06v6.16c.83-.01 1.64-.06 2.47-.06M265.09 652.4l-19.19 12.79c.89 1.4 1.77 2.8 2.68 4.18l19.2-12.79c-.92-1.38-1.8-2.78-2.69-4.18M386.86 757.64l-9.01 21.09c1.52.67 3.01 1.4 4.53 2.05l9.01-21.09c-1.53-.65-3.02-1.38-4.53-2.05M281.14 675.05l-17.81 14.61c1.02 1.3 2.02 2.63 3.07 3.91l17.82-14.61c-1.05-1.28-2.05-2.6-3.08-3.91M362.02 745l-11.05 20.11c1.44.82 2.86 1.68 4.31 2.48l11.05-20.11c-1.45-.8-2.87-1.66-4.31-2.48M316.76 712.66l-14.81 17.58c1.25 1.09 2.5 2.18 3.76 3.25l14.8-17.58c-1.26-1.07-2.51-2.16-3.75-3.25M412.14 14.04l-1.12-6.05c-1.63.29-3.27.54-4.9.85l1.13 6.04c1.62-.3 3.26-.55 4.89-.84M338.55 729.93l-12.98 18.94c1.35.96 2.68 1.94 4.05 2.88l12.98-18.93c-1.36-.94-2.7-1.92-4.05-2.89M460.38 7.85l-.53-6.13c-1.65.13-3.31.22-4.96.37l.53 6.13c1.65-.15 3.31-.24 4.96-.37M222.27 520.19l-23.17 1.99c.1 1.66.24 3.31.38 4.95l23.16-1.98c-.12-1.65-.28-3.3-.37-4.96M221.9 496.37h-23.3c-.04 1.65-.11 3.3-.12 4.97h23.3c.01-1.67.08-3.32.12-4.97M551.06 8.79l.61-6.12c-1.65-.17-3.3-.31-4.95-.47l-.61 6.13c1.65.15 3.3.29 4.95.46M223.93 469l-23.22-2.3c-.2 1.65-.46 3.28-.63 4.94l23.23 2.3c.17-1.66.42-3.29.62-4.94M646.36 28.13l1.789-5.87c-1.579-.49-3.159-.98-4.749-1.45l-1.8 5.88c1.59.47 3.18.95 4.76 1.44M225.24 547.55l-22.82 4.26c.27 1.64.58 3.26.88 4.89l22.82-4.25c-.29-1.63-.62-3.25-.88-4.9M230.96 574.58l-22.25 6.48c.42 1.6.9 3.18 1.35 4.77l22.26-6.47c-.45-1.6-.94-3.18-1.36-4.78M239.35 600.89l-21.47 8.63c.59 1.55 1.21 3.08 1.82 4.62l21.48-8.63c-.61-1.54-1.25-3.07-1.83-4.62M599.22 16.11l1.21-6.03c-1.63-.33-3.25-.64-4.88-.96l-1.21 6.04c1.63.31 3.26.62 4.88.95M124.39 179.34l-4.6-3.87c-1.08 1.25-2.19 2.49-3.25 3.76l4.6 3.88c1.07-1.27 2.17-2.51 3.25-3.77M630.42 749.22l10.78 20.25c1.46-.78 2.92-1.57 4.37-2.37l-10.78-20.26c-1.45.8-2.9 1.6-4.37 2.38M576.62 770.96l6.41 22c1.59-.46 3.2-.88 4.78-1.37l-6.41-22c-1.57.49-3.18.91-4.78 1.37M654.33 734.92l12.72 19.1c1.38-.92 2.74-1.87 4.1-2.81l-12.73-19.12c-1.37.95-2.72 1.91-4.09 2.83M603.01 761.92l8.55 21.27c1.53-.61 3.09-1.19 4.62-1.82l-8.55-21.27c-1.52.64-3.08 1.21-4.62 1.82M189.38 115.98l-3.85-4.7c-1.29 1.05-2.58 2.09-3.85 3.14l3.84 4.69c1.27-1.06 2.57-2.09 3.86-3.13M150.52 150.92c.85-.85 1.75-1.64 2.6-2.48l-4.27-4.27c-.79.77-1.62 1.5-2.4 2.28-.39.39-.76.81-1.15 1.2l4.27 4.27c.32-.33.63-.68.95-1M713.44 681.8l17.61 14.82c1.07-1.27 2.12-2.55 3.16-3.83l-17.62-14.85c-1.04 1.29-2.08 2.59-3.15 3.86M364.67 24.96l-1.72-5.9c-1.59.45-3.2.85-4.79 1.32l1.72 5.9c1.59-.47 3.2-.87 4.79-1.32M697.24 699.59l16.26 16.27c1.17-1.17 2.28-2.4 3.44-3.6L700.67 696c-1.15 1.19-2.26 2.42-3.43 3.59M676.7 718.31l14.56 17.76c1.28-1.05 2.52-2.16 3.78-3.23l-14.57-17.78c-1.26 1.08-2.49 2.2-3.77 3.25M730.18 659.69l19.01 13.03c.94-1.37 1.83-2.76 2.74-4.15l-19.031-13.04c-.899 1.38-1.779 2.78-2.719 4.16M228.69 87.18l-3.38-5.08c-1.38.91-2.77 1.82-4.15 2.74l3.38 5.07c1.38-.93 2.77-1.82 4.15-2.73M442.05 775.66l-4.5 22.47c1.62.34 3.25.65 4.88.96l4.49-22.46c-1.63-.31-3.25-.63-4.87-.97M469.66 780.08l-2.26 22.8c1.64.18 3.3.32 4.95.47l2.25-22.79c-1.65-.15-3.3-.3-4.94-.48M415.08 768.47l-6.7 21.93c1.58.5 3.17.99 4.76 1.46l6.69-21.91c-1.59-.48-3.17-.97-4.75-1.48M318.57 40.52l-2.28-5.69c-1.54.61-3.1 1.16-4.64 1.78l2.29 5.7c1.53-.63 3.09-1.18 4.63-1.79M521.72 780.84l1.96 22.81c1.65-.12 3.31-.22 4.95-.37l-1.96-22.82c-1.64.16-3.3.25-4.95.38M500 781.77c-.83 0-1.64-.06-2.47-.06v22.9c.83.01 1.64.06 2.47.06.84 0 1.66-.05 2.5-.06v-22.9c-.84 0-1.66.06-2.5.06M549.4 777.29l4.2 22.51c1.63-.29 3.27-.55 4.9-.87l-4.2-22.51c-1.62.32-3.26.58-4.9.87M270.6 62.44l-2.87-5.41c-1.47.77-2.95 1.52-4.41 2.3l2.87 5.4c1.46-.79 2.94-1.53 4.41-2.29M299.35 696.01l-16.27 16.27c1.15 1.19 2.26 2.42 3.43 3.6l16.27-16.27c-1.17-1.18-2.28-2.41-3.43-3.6M818.259 598.64l18 5.49c.471-1.59.861-3.2 1.321-4.79l-17.99-5.5c-.46 1.6-.85 3.21-1.331 4.8M655.57 796.47l8.72 16.39c1.46-.77 2.9-1.6 4.35-2.4l-8.73-16.4c-1.45.8-2.88 1.63-4.34 2.41M826.12 566.69l18.48 3.7c.319-1.62.55-3.27.85-4.9l-18.48-3.7c-.3 1.63-.54 3.28-.85 4.9M791.76 661.89l16.409 9.01c.801-1.45 1.621-2.89 2.4-4.35l-16.429-9.02c-.78 1.46-1.58 2.91-2.38 4.36M831.14 529.16c-.131 1.65-.21 3.31-.36 4.96l18.789 1.86c.151-1.65.231-3.31.361-4.96l-18.79-1.86M857.609 536.78l16.611 1.64c.16-1.65.23-3.31.36-4.96l-16.6-1.64c-.14 1.65-.21 3.31-.371 4.96M774.46 690.04l15.41 10.57c.94-1.37 1.92-2.7 2.84-4.08l-15.44-10.58c-.91 1.38-1.88 2.72-2.81 4.09M684.02 779.48l10.31 15.47c1.37-.92 2.71-1.9 4.069-2.84l-10.309-15.48c-1.36.94-2.7 1.94-4.07 2.85M710.64 759.72l11.81 14.4c1.27-1.05 2.49-2.19 3.76-3.25l-11.8-14.4c-1.27 1.07-2.49 2.2-3.77 3.25M859.24 501.34h16.72c0-1.67-.09-3.31-.12-4.97h-16.72c.02 1.66.11 3.3.12 4.97M735.12 737.48l13.19 13.18s0-.01.009-.01c1.171-1.17 2.261-2.4 3.41-3.59l-13.179-13.18c-1.151 1.19-2.25 2.42-3.43 3.6M754.45 716.32l14.27 12.01c1.06-1.26 2.19-2.49 3.23-3.77l-14.29-12.03c-1.04 1.28-2.14 2.52-3.21 3.79M806.13 632.22l17.25 7.36c.65-1.52 1.3-3.04 1.93-4.58l-17.28-7.37c-.62 1.53-1.25 3.06-1.9 4.59M754.04 248.29c0 .01.01.02.02.03l12.01-12.01c-.07-.08-.14-.15-.21-.23-1.1-1.1-2.26-2.12-3.38-3.21l-12.02 12.02c1.18 1.15 2.41 2.24 3.58 3.4M731.54 227.72l10.96-13.01c-1.26-1.07-2.49-2.2-3.76-3.25l-10.96 13.01c1.28 1.05 2.5 2.18 3.76 3.25M703.61 206.33l9.63-14.05c-1.36-.95-2.69-1.95-4.06-2.87l-9.63 14.05c1.37.92 2.7 1.92 4.06 2.87M777.74 274.41l13.13-10.76c-1.05-1.28-2.181-2.5-3.25-3.76l-13.13 10.76c1.07 1.26 2.199 2.49 3.25 3.76M857.819 470.64l16.681-1.43c-.15-1.65-.22-3.31-.38-4.95l-16.71 1.43c.16 1.65.259 3.3.409 4.95M673.68 187.75l8.21-14.95c-1.45-.8-2.87-1.67-4.32-2.45l-8.22 14.95c1.46.78 2.88 1.65 4.33 2.45M798.83 302.73l14.1-9.39c-.91-1.38-1.92-2.7-2.86-4.06l-14.1 9.39c.94 1.37 1.94 2.69 2.86 4.06M853.03 435.55l16.5-3.07c-.3-1.63-.55-3.27-.87-4.9l-16.53 3.09c.33 1.62.59 3.26.9 4.88M844.8 401.09l16.16-4.7c-.47-1.59-.88-3.2-1.37-4.78l-16.18 4.71c.489 1.58.93 3.18 1.39 4.77M817.03 332.98l14.93-7.95c-.78-1.46-1.65-2.88-2.451-4.33l-14.939 7.95c.81 1.45 1.67 2.87 2.46 4.33M833.21 367.68l15.65-6.28c-.61-1.54-1.211-3.09-1.84-4.62l-15.68 6.3c.65 1.53 1.25 3.06 1.87 4.6M220.36 682.21l-15.57 10.37c.9 1.39 1.74 2.82 2.66 4.2l15.57-10.38c-.92-1.38-1.76-2.8-2.66-4.19M261.46 733.89l-13.18 13.19c1.15 1.18 2.23 2.4 3.4 3.57.01.01.02.02.03.02l13.18-13.18c-1.17-1.17-2.27-2.41-3.43-3.6M884.74 468.33l14.5-1.24c-.14-1.65-.21-3.31-.37-4.96l-14.51 1.25c.17 1.64.23 3.31.38 4.95M179.25 589.63l-18.06 5.26c.43 1.59.87 3.19 1.32 4.78l18.06-5.25c-.45-1.59-.89-3.19-1.32-4.79M172.28 557.43l-18.52 3.46c.27 1.63.55 3.26.85 4.89l18.52-3.45c-.3-1.63-.58-3.26-.85-4.9M239.64 709.08l-14.44 11.84c1.03 1.29 2.01 2.63 3.06 3.91l14.44-11.84c-1.05-1.28-2.03-2.62-3.06-3.91M642.12 172.26l6.7-15.71c-1.52-.66-3.01-1.38-4.54-2.01l-6.71 15.7c1.53.63 3.03 1.36 4.55 2.02M189.4 620.96l-17.43 7c.6 1.54 1.18 3.09 1.79 4.63l17.42-7c-.61-1.54-1.2-3.08-1.78-4.63M167.89 496.37h-18.92c-.03 1.65-.11 3.3-.12 4.97h18.92c.01-1.67.09-3.32.12-4.97M886.24 501.34h14.539c0-1.67-.099-3.31-.119-4.97h-14.54c.02 1.66.12 3.3.12 4.97M168.54 524.8l-18.81 1.62c.12 1.65.23 3.3.37 4.95l18.81-1.61c-.14-1.65-.26-3.3-.37-4.96M884.45 539.43l14.43 1.43c.16-1.64.22-3.31.36-4.96l-14.421-1.43c-.139 1.65-.21 3.32-.369 4.96M878.94 577.27l14.19 2.84c.32-1.62.54-3.27.84-4.9l-14.18-2.84c-.3 1.63-.53 3.28-.85 4.9M336.27 791.89l-8.94 16.29c1.44.81 2.87 1.65 4.32 2.45l8.94-16.29c-1.45-.79-2.88-1.63-4.32-2.45M500 834.98c-.83 0-1.64-.05-2.47-.06v18.52c.83.01 1.64.06 2.47.06.84 0 1.66-.05 2.5-.06v-18.52c-.84.01-1.66.06-2.5.06M526.27 833.87l1.58 18.45c1.65-.13 3.31-.21 4.96-.36l-1.59-18.46c-1.64.16-3.3.24-4.95.37M559.17 829.67l3.4 18.21c1.63-.29 3.27-.53 4.89-.85l-3.39-18.21c-1.63.31-3.27.55-4.9.85M591.54 822.19l5.18 17.8c1.59-.45 3.2-.85 4.79-1.32l-5.18-17.8c-1.59.47-3.2.86-4.79 1.32M464.41 833.06l-1.83 18.43c1.65.18 3.3.34 4.95.49l1.83-18.43c-1.66-.15-3.3-.32-4.95-.49M431.59 827.91l-3.64 18.18c1.62.33 3.24.68 4.87.99l3.64-18.17c-1.63-.32-3.25-.66-4.87-1M308.29 774.07l-10.52 15.34c1.35.96 2.7 1.93 4.06 2.86l10.52-15.33c-1.37-.94-2.71-1.9-4.06-2.87M622.93 811.51l6.92 17.22c1.54-.62 3.1-1.16 4.63-1.79l-6.92-17.23c-1.53.63-3.09 1.19-4.63 1.8M399.49 819.51l-5.41 17.74c1.58.5 3.15 1.03 4.74 1.51l5.41-17.74c-1.59-.48-3.15-1.01-4.74-1.51M282.28 753.61l-11.99 14.23c1.25 1.09 2.5 2.18 3.76 3.25l11.99-14.24c-1.26-1.06-2.51-2.16-3.76-3.24M365.87 806.79l-7.28 17.08c1.51.66 3.02 1.37 4.54 2.01l7.29-17.07c-1.53-.65-3.03-1.35-4.55-2.02M203.89 653.61l-16.54 8.8c.75 1.48 1.46 2.98 2.24 4.45l16.54-8.81c-.78-1.46-1.48-2.96-2.24-4.44M598.98 847.76l4.57 15.69c1.59-.45 3.2-.85 4.79-1.32l-4.57-15.7c-1.59.48-3.2.87-4.79 1.33M668.09 820.01l7.69 14.45c1.47-.77 2.91-1.59 4.36-2.39l-7.7-14.46c-1.45.79-2.89 1.62-4.35 2.4M632.86 836.24l6.1 15.17c1.54-.61 3.11-1.15 4.64-1.78l-6.1-15.18c-1.53.63-3.1 1.17-4.64 1.79M564.05 855.83l2.99 16.06c1.63-.3 3.28-.54 4.9-.85l-2.99-16.06c-1.63.32-3.27.56-4.9.85M153.42 597.14l-15.95 4.65c.43 1.6.86 3.2 1.32 4.79l15.96-4.64c-.46-1.6-.89-3.2-1.33-4.8M500 861.59c-.83 0-1.64-.06-2.47-.06v16.33c.83 0 1.64.06 2.47.06.84 0 1.66-.06 2.5-.06v-16.33c-.84 0-1.66.06-2.5.06M528.54 860.37l1.4 16.27c1.65-.13 3.31-.21 4.96-.36l-1.4-16.27c-1.65.15-3.31.24-4.96.36M145.81 562.37l-16.37 3.05c.28 1.63.55 3.27.85 4.9l16.36-3.05c-.29-1.64-.57-3.27-.84-4.9M774.899 733.54l12.591 10.6c1.07-1.26 2.2-2.49 3.25-3.76l-12.6-10.61c-1.05 1.28-2.17 2.5-3.241 3.77M754.04 756.36c-.01.01-.02.01-.02.02L765.64 768c.07-.07.15-.13.22-.2 1.1-1.11 2.13-2.27 3.22-3.39l-11.63-11.63c-1.15 1.18-2.24 2.41-3.41 3.58M141.68 527.11l-16.63 1.43c.12 1.65.23 3.3.37 4.95l16.62-1.43c-.13-1.64-.25-3.3-.36-4.95M698.81 801.68l9.09 13.65c1.38-.92 2.72-1.9 4.09-2.84l-9.1-13.65c-1.37.94-2.7 1.93-4.08 2.84M727.57 780.37l10.41 12.69c1.28-1.05 2.5-2.17 3.77-3.24l-10.41-12.7c-1.27 1.07-2.49 2.2-3.77 3.25M265.08 774.03l-10.57 12.56c1.25 1.09 2.49 2.18 3.76 3.25l10.57-12.56c-1.26-1.07-2.51-2.17-3.76-3.25M180.21 666.21l-14.61 7.78c.76 1.47 1.45 2.98 2.23 4.44l14.61-7.77c-.77-1.47-1.48-2.97-2.23-4.45M293.2 796.08l-9.28 13.53c1.36.95 2.7 1.92 4.06 2.86l9.28-13.53c-1.36-.93-2.71-1.9-4.06-2.86M218.94 726.04l-12.74 10.45c1.04 1.29 2.02 2.62 3.07 3.91l12.74-10.44c-1.06-1.29-2.03-2.62-3.07-3.92M245.97 756.36c-1.17-1.16-2.26-2.39-3.41-3.57l-11.63 11.64c1.09 1.11 2.11 2.27 3.21 3.37.08.07.16.14.23.22L246 756.39c-.02-.01-.02-.02-.03-.03M391.72 844.99l-4.78 15.64c1.58.5 3.15 1.03 4.74 1.5l4.77-15.63c-1.59-.48-3.16-1.01-4.73-1.51M426.36 854.02l-3.21 16.02c1.62.34 3.24.68 4.87.99l3.21-16.02c-1.63-.31-3.25-.66-4.87-.99M164.47 630.97l-15.39 6.18c.6 1.55 1.17 3.1 1.79 4.64l15.39-6.18c-.62-1.54-1.2-3.09-1.79-4.64M606.38 159.04l5-16.35c-1.59-.49-3.18-.95-4.77-1.42l-4.99 16.36c1.59.47 3.18.92 4.76 1.41M355.41 831.31l-6.42 15.05c1.51.67 3.01 1.37 4.54 2.02l6.43-15.06c-1.53-.65-3.03-1.35-4.55-2.01M461.79 859.54l-1.61 16.25c1.64.18 3.29.34 4.94.49l1.61-16.25c-1.65-.15-3.3-.32-4.94-.49M323.43 815.27l-7.88 14.36c1.44.81 2.87 1.66 4.32 2.45l7.89-14.36c-1.45-.8-2.88-1.64-4.33-2.45M334.85 183.17l-8.02-15.07c-1.47.77-2.97 1.48-4.43 2.27l8.02 15.06c1.46-.79 2.96-1.49 4.43-2.26M304.46 200.9l-9.45-14.2c-1.39.91-2.8 1.77-4.18 2.7l9.45 14.18c1.38-.92 2.8-1.78 4.18-2.68M369.58 167.48l-6.37-15.85c-1.55.6-3.11 1.16-4.64 1.79l6.37 15.85c1.53-.62 3.09-1.18 4.64-1.79M402.92 156.38l-4.78-16.42c-1.59.45-3.2.86-4.79 1.33l4.78 16.41c1.59-.47 3.2-.88 4.79-1.32M228.59 267.08l-12.98-10.93c-1.08 1.25-2.18 2.49-3.25 3.76l12.98 10.93c1.07-1.27 2.16-2.51 3.25-3.76M245.97 248.29c1.17-1.17 2.4-2.26 3.58-3.41l-12.02-12.03c-1.12 1.09-2.28 2.12-3.39 3.23-.07.07-.13.14-.2.21l12.01 12.02.02-.02M275.92 221.56l-10.79-13.17c-1.29 1.04-2.61 2.03-3.89 3.09l10.78 13.16c1.29-1.06 2.61-2.04 3.9-3.08M537.56 145.04l1.69-17.02c-1.65-.18-3.3-.31-4.95-.46l-1.69 17.02c1.66.15 3.31.29 4.95.46M572.34 150.35l3.36-16.77c-1.62-.33-3.26-.63-4.89-.94l-3.35 16.78c1.62.3 3.26.6 4.88.93M472.08 144.24l-1.46-17.04c-1.65.12-3.31.21-4.96.36l1.47 17.04c1.64-.15 3.3-.24 4.95-.36M500 143.07c.84 0 1.66.05 2.5.06v-17.11c-.84 0-1.66-.06-2.5-.06-.83 0-1.64.06-2.47.06v17.11c.83-.01 1.64-.06 2.47-.06M437.24 148.61l-3.14-16.82c-1.63.29-3.27.54-4.9.85l3.14 16.81c1.62-.31 3.26-.56 4.9-.84M171.78 356.04l-15.53-6.62c-.67 1.51-1.36 3.02-2.01 4.54l15.52 6.63c.65-1.52 1.34-3.03 2.02-4.55M853.38 567.08c-.3 1.63-.53 3.28-.85 4.9l16.329 3.27c.321-1.62.551-3.27.851-4.9l-16.33-3.27M140.89 496.37h-16.73c-.03 1.66-.12 3.3-.12 4.97h16.72c.01-1.67.1-3.31.13-4.97M843.99 606.49l15.9 4.86c.48-1.58.87-3.2 1.33-4.79l-15.9-4.86c-.461 1.59-.85 3.21-1.33 4.79M830.819 642.76l15.231 6.5c.66-1.52 1.33-3.03 1.96-4.57l-15.26-6.51c-.62 1.53-1.28 3.05-1.931 4.58M815.259 674.8l14.491 7.95c.8-1.45 1.65-2.87 2.43-4.33l-14.52-7.97c-.77 1.46-1.6 2.89-2.401 4.35M187.75 324.55l-14.82-8.14c-.82 1.44-1.66 2.87-2.45 4.32l14.82 8.14c.8-1.44 1.63-2.88 2.45-4.32M143.17 461l-16.68-1.65c-.19 1.65-.45 3.28-.61 4.94l16.68 1.65c.17-1.65.42-3.29.61-4.94M796.529 705.18l13.611 9.33c.94-1.36 1.94-2.69 2.86-4.06l-13.62-9.35c-.92 1.38-1.91 2.72-2.851 4.08M206.78 294.77l-13.97-9.58c-.96 1.35-1.92 2.7-2.86 4.06l13.97 9.58c.94-1.36 1.9-2.71 2.86-4.06M148.91 426.01l-16.48-3.3c-.34 1.62-.76 3.22-1.08 4.85l16.48 3.3c.32-1.63.73-3.23 1.08-4.85M158.07 391.84l-16.11-4.93c-.51 1.58-1.08 3.14-1.56 4.73l16.11 4.92c.49-1.59 1.05-3.15 1.56-4.72M313.57 929.34l-2.99 7c1.52.66 3.02 1.37 4.55 2.01l2.98-6.99c-1.53-.65-3.02-1.36-4.54-2.02M500 888.2c-.83 0-1.64-.06-2.47-.06v14.14c.83 0 1.64.06 2.47.06.84 0 1.66-.06 2.5-.06v-14.14c-.84 0-1.66.06-2.5.06M583.56 960.48l1.39 7.44c1.63-.29 3.27-.53 4.9-.84l-1.39-7.45c-1.63.31-3.27.55-4.9.85M530.82 886.88l1.2 14.09c1.66-.13 3.32-.21 4.96-.36l-1.21-14.09c-1.64.15-3.3.23-4.95.36M537.64 966.4l.65 7.54c1.65-.13 3.31-.22 4.96-.37l-.65-7.54c-1.65.15-3.31.24-4.96.37M421.13 880.12L418.35 894c1.62.34 3.24.68 4.87.99l2.78-13.88c-1.63-.31-3.25-.65-4.87-.99M459.16 886.03l-1.39 14.07c1.65.17 3.29.33 4.94.48l1.4-14.07c-1.65-.15-3.3-.31-4.95-.48M451.29 965.47l-.74 7.54c1.64.17 3.29.32 4.94.47l.75-7.53c-1.65-.15-3.3-.31-4.95-.48M628.74 950.02l2.12 7.28c1.6-.45 3.21-.85 4.79-1.32l-2.12-7.29c-1.58.48-3.19.87-4.79 1.33M568.93 881.99l2.59 13.91c1.63-.29 3.27-.53 4.9-.85l-2.6-13.9c-1.62.31-3.26.55-4.89.84M642.79 860.95l5.29 13.16c1.54-.61 3.1-1.16 4.63-1.79l-5.28-13.15c-1.531.63-3.1 1.17-4.64 1.78M500 968.01c-.83 0-1.64-.05-2.47-.06v7.58c.83 0 1.64.06 2.47.06.84 0 1.66-.06 2.5-.07v-7.57c-.84.01-1.66.06-2.5.06M606.42 873.32l3.96 13.6c1.59-.46 3.2-.85 4.79-1.33L611.21 872c-1.59.47-3.2.87-4.79 1.32M680.62 843.54l6.66 12.53c1.46-.78 2.91-1.59 4.36-2.39l-6.67-12.53c-1.45.79-2.89 1.62-4.35 2.39M757.98 890.48l4.23 6.35c1.38-.91 2.73-1.87 4.109-2.8l-4.239-6.36c-1.37.93-2.721 1.89-4.1 2.81M226.88 775.06c-1.1-1.1-2.13-2.26-3.22-3.37l-10.08 10.09c1.03 1.04 1.99 2.13 3.03 3.17.13.14.28.27.42.41l10.07-10.08c-.07-.07-.15-.14-.22-.22M247.89 794.45l-9.17 10.89c1.26 1.08 2.5 2.18 3.76 3.25l9.17-10.89c-1.26-1.07-2.51-2.17-3.76-3.25M198.25 743l-11.05 9.06c1.04 1.3 2.03 2.62 3.09 3.9l11.04-9.05c-1.06-1.28-2.04-2.61-3.08-3.91M175.76 711.92l-11.92 7.95c.91 1.38 1.75 2.81 2.67 4.18l11.91-7.93c-.92-1.38-1.75-2.81-2.66-4.2M278.11 818.08l-8.04 11.72c1.36.96 2.7 1.93 4.06 2.87l8.04-11.72c-1.36-.94-2.71-1.92-4.06-2.87M672.58 935.12l2.84 7.05c1.54-.61 3.1-1.16 4.63-1.79l-2.83-7.05c-1.53.63-3.09 1.18-4.64 1.79M718.18 914.15l3.58 6.72c1.47-.77 2.92-1.57 4.38-2.36l-3.58-6.73c-1.46.79-2.91 1.59-4.38 2.37M344.95 855.82l-5.56 13.04c1.51.66 3.01 1.37 4.54 2.01l5.56-13.04c-1.52-.65-3.02-1.35-4.54-2.01M383.93 870.47l-4.14 13.55c1.59.49 3.16 1.02 4.75 1.49l4.13-13.54c-1.59-.48-3.15-1.01-4.74-1.5M310.6 838.64l-6.83 12.44c1.44.82 2.87 1.66 4.32 2.45l6.83-12.44c-1.45-.8-2.88-1.64-4.32-2.45M855.51 653.3l13.219 5.64c.651-1.52 1.351-3.03 1.991-4.56l-13.25-5.65c-.62 1.53-1.31 3.04-1.96 4.57M991.77 550.07l5.69.56c.16-1.65.26-3.31.41-4.96l-5.71-.57c-.15 1.65-.23 3.32-.39 4.97M347.7 207.32l-9.05-17.01c-1.48.76-2.97 1.48-4.43 2.26l9.04 17c1.47-.78 2.96-1.49 4.44-2.25M994.23 500.39c0 .32-.02.63-.02.95h5.76c0-.45.03-.89.03-1.34 0-1.22-.08-2.42-.09-3.63h-5.78c.01 1.34.1 2.67.1 4.02M379.78 192.88l-7.19-17.89c-1.54.6-3.1 1.16-4.64 1.79l7.19 17.89c1.53-.63 3.09-1.19 4.64-1.79M319.62 223.64l-10.67-16.02c-1.39.91-2.81 1.77-4.18 2.69l10.66 16.01c1.38-.93 2.8-1.78 4.19-2.68M293.23 242.67l-12.18-14.86c-1.29 1.04-2.62 2.02-3.9 3.08l12.17 14.85c1.29-1.05 2.62-2.03 3.91-3.07M984.55 598.42l5.57 1.11c.33-1.62.6-3.26.91-4.88l-5.59-1.12c-.31 1.62-.57 3.26-.89 4.89M410.57 182.66l-5.39-18.52c-1.6.45-3.2.86-4.79 1.33l5.39 18.51c1.59-.47 3.19-.88 4.79-1.32M500 170.45c.84 0 1.66.05 2.5.06v-19.3c-.84 0-1.66-.06-2.5-.06-.83 0-1.64.06-2.47.06v19.3c.83-.01 1.64-.06 2.47-.06M474.42 171.51l-1.65-19.22c-1.65.13-3.31.22-4.95.37l1.64 19.22c1.65-.15 3.31-.24 4.96-.37M992.41 459.09l5.77-.49c-.13-1.65-.21-3.31-.36-4.96l-5.77.5c.15 1.64.229 3.3.36 4.95M442.26 175.52l-3.54-18.97c-1.63.29-3.27.55-4.9.85l3.54 18.97c1.62-.31 3.26-.57 4.9-.85M268.84 264.16l-13.57-13.57c-1.19 1.16-2.42 2.25-3.59 3.42l-.01.01 13.57 13.57c1.18-1.17 2.41-2.27 3.6-3.43M795.35 750.76l10.92 9.19c1.07-1.26 2.2-2.49 3.25-3.76L798.6 747c-1.05 1.27-2.18 2.49-3.25 3.76M773.12 775.06c-.06.07-.14.14-.21.21l10.07 10.07c.14-.13.28-.25.42-.39 1.04-1.04 2.01-2.14 3.039-3.19l-10.089-10.08c-1.09 1.12-2.121 2.28-3.23 3.38M405.45 958.44l-1.49 7.44c1.62.33 3.24.66 4.87.97l1.49-7.43c-1.63-.32-3.25-.65-4.87-.98M360.6 946.9l-2.22 7.26c1.58.49 3.16 1.01 4.74 1.48l2.22-7.26c-1.59-.47-3.16-.99-4.74-1.48M744.49 801.01l9.02 11c1.28-1.04 2.51-2.16 3.78-3.23l-9.02-11.01c-1.27 1.07-2.5 2.19-3.78 3.24M198.06 697.06l-13.74 9.16c.9 1.39 1.73 2.82 2.66 4.2l13.74-9.16c-.92-1.38-1.76-2.8-2.66-4.2M818.62 720.32l11.79 8.09c.94-1.36 1.95-2.69 2.869-4.06l-11.8-8.09c-.919 1.37-1.919 2.7-2.859 4.06M871.05 609.56c-.46 1.59-.84 3.21-1.32 4.79l13.78 4.21c.49-1.58.88-3.2 1.34-4.79l-13.8-4.21M713.6 823.88l7.88 11.83c1.38-.92 2.72-1.9 4.09-2.83l-7.89-11.83c-1.36.93-2.7 1.92-4.08 2.83M986.04 410.75l5.74-1.07c-.3-1.63-.54-3.27-.85-4.89l-5.73 1.07c.31 1.62.55 3.26.84 4.89M838.76 687.7l12.57 6.9c.8-1.45 1.67-2.86 2.45-4.32l-12.58-6.91c-.781 1.46-1.64 2.88-2.44 4.33M146.79 345.38l-13.51-5.76c-.66 1.51-1.36 3.02-2.01 4.54l13.51 5.77c.65-1.52 1.34-3.03 2.01-4.55M184.01 399.76l-18.2-5.56c-.51 1.58-1.08 3.14-1.56 4.72l18.21 5.56c.48-1.58 1.04-3.14 1.55-4.72M540.26 117.78l1.47-14.84c-1.64-.17-3.3-.31-4.95-.46l-1.47 14.85c1.65.15 3.31.29 4.95.45M577.72 123.5l2.92-14.62c-1.62-.33-3.25-.63-4.88-.94l-2.93 14.62c1.63.31 3.26.61 4.89.94M614.38 132.85l4.35-14.25c-1.58-.49-3.17-.95-4.76-1.42l-4.35 14.26c1.59.47 3.18.93 4.76 1.41M686.84 163.79l7.15-13.04c-1.45-.8-2.86-1.66-4.32-2.45l-7.16 13.03c1.46.79 2.88 1.65 4.33 2.46M932.76 739.32l4.889 2.68c.801-1.45 1.661-2.87 2.452-4.32l-4.891-2.69c-.79 1.46-1.65 2.88-2.45 4.33M395.27 130.09l-4.17-14.31c-1.59.45-3.2.85-4.79 1.32l4.17 14.31c1.59-.46 3.19-.87 4.79-1.32M954.27 695.45l5.16 2.21c.66-1.53 1.38-3.02 2.02-4.55l-5.16-2.2c-.641 1.53-1.36 3.02-2.02 4.54M432.22 121.69l-2.74-14.66c-1.63.29-3.27.54-4.89.85l2.73 14.66c1.63-.31 3.26-.56 4.9-.85M196.76 366.71l-17.54-7.49c-.68 1.52-1.37 3.02-2.02 4.55l17.54 7.48c.66-1.52 1.34-3.03 2.02-4.54M500 115.68c.84 0 1.66.06 2.5.06v-14.91c-.84-.01-1.66-.06-2.5-.06-.83 0-1.64.05-2.47.06v14.91c.83 0 1.64-.06 2.47-.06M469.74 116.96l-1.28-14.86c-1.65.13-3.3.22-4.95.36l1.27 14.86c1.65-.15 3.31-.24 4.96-.36M652.86 147.09l5.84-13.69c-1.52-.66-3.01-1.38-4.54-2.02l-5.85 13.69c1.54.64 3.03 1.36 4.55 2.02M858.41 357.56l13.61-5.47c-.62-1.53-1.18-3.09-1.82-4.62l-13.64 5.48c.64 1.53 1.23 3.08 1.85 4.61M170.09 463.67l-18.87-1.87c-.19 1.65-.44 3.28-.61 4.94l18.87 1.87c.17-1.66.41-3.29.61-4.94M870.83 393.51l14.05-4.08c-.46-1.59-.85-3.21-1.33-4.79l-14.08 4.1c.48 1.58.9 3.18 1.36 4.77M719.06 183.8l8.39-12.25c-1.36-.94-2.69-1.94-4.06-2.86l-8.4 12.24c1.38.93 2.71 1.93 4.07 2.87M906.93 780.88l4.58 3.13c.94-1.36 1.93-2.69 2.86-4.06l-4.57-3.13c-.93 1.37-1.92 2.7-2.87 4.06M841.04 320.2l12.98-6.91c-.78-1.46-1.64-2.88-2.43-4.34l-13 6.92c.8 1.45 1.67 2.87 2.45 4.33M175.47 431.33l-18.63-3.73c-.35 1.62-.76 3.22-1.08 4.85l18.63 3.73c.32-1.63.73-3.23 1.08-4.85M749.12 206.84l9.54-11.33c-1.26-1.07-2.49-2.2-3.76-3.25l-9.54 11.34c1.27 1.05 2.5 2.18 3.76 3.24M773.12 228.81c.08.08.15.16.22.23l10.46-10.46c-.13-.14-.26-.29-.4-.43-1.04-1.03-2.13-2-3.18-3.02l-10.47 10.47c1.11 1.09 2.27 2.11 3.37 3.21M821.49 287.63l12.27-8.17c-.92-1.38-1.92-2.7-2.85-4.07l-12.28 8.18c.939 1.37 1.94 2.69 2.86 4.06M798.82 257.13l11.43-9.36c-1.05-1.28-2.18-2.51-3.25-3.77l-11.431 9.37c1.071 1.26 2.201 2.49 3.251 3.76M322 159.02l-6.99-13.13c-1.47.76-2.96 1.48-4.42 2.27l6.98 13.13c1.46-.79 2.96-1.5 4.43-2.27M114.81 529.41l-14.44 1.24c.12 1.65.23 3.31.37 4.96l14.44-1.24c-.14-1.65-.25-3.3-.37-4.96M116.26 458.34l-14.51-1.44c-.18 1.65-.44 3.28-.6 4.94l14.5 1.43c.16-1.65.42-3.28.61-4.93M113.88 496.37H99.34c-.01 1.66-.11 3.3-.12 4.97h14.54c0-1.67.1-3.31.12-4.97M887.72 761.68c-.93 1.37-1.93 2.7-2.87 4.06l6.379 4.37c.941-1.36 1.941-2.69 2.871-4.06l-6.38-4.37M122.35 420.69l-14.33-2.87c-.34 1.62-.76 3.22-1.08 4.85l14.32 2.87c.33-1.63.75-3.23 1.09-4.85M132.12 383.91l-14.01-4.28c-.51 1.58-1.08 3.14-1.56 4.72l14.01 4.29c.49-1.59 1.06-3.15 1.56-4.73M139.54 640.98l-13.35 5.37c.59 1.55 1.17 3.1 1.79 4.64l13.35-5.37c-.62-1.54-1.2-3.09-1.79-4.64M830.38 831.17c-.26.26-.54.5-.8.76l5.42 5.43c.33-.33.68-.63 1.01-.96.85-.85 1.63-1.74 2.47-2.59l-5.44-5.44c-.9.92-1.74 1.88-2.66 2.8M249.43 284.62l-14.66-12.34c-1.08 1.25-2.18 2.5-3.24 3.76l14.65 12.35c1.07-1.27 2.16-2.52 3.25-3.77M127.6 604.66l-13.85 4.04c.44 1.59.86 3.19 1.32 4.78l13.85-4.03c-.46-1.59-.88-3.19-1.32-4.79M856.71 802.42l5.89 4.96c1.069-1.26 2.19-2.49 3.25-3.76l-5.89-4.96c-1.061 1.27-2.18 2.5-3.25 3.76M359.38 142.09l-5.56-13.82c-1.54.6-3.1 1.16-4.64 1.79l5.56 13.82c1.53-.63 3.09-1.19 4.64-1.79M119.33 567.31l-14.21 2.64c.28 1.64.54 3.27.85 4.9l14.21-2.65c-.3-1.63-.57-3.26-.85-4.89M226.88 228.81c1.1-1.1 2.27-2.13 3.38-3.22l-10.47-10.47c-1.05 1.03-2.14 1.99-3.18 3.03-.14.14-.26.28-.4.41l10.46 10.47c.08-.07.14-.14.21-.22M289.31 178.15l-8.24-12.37c-1.39.91-2.79 1.78-4.17 2.71l8.23 12.36c1.38-.93 2.79-1.79 4.18-2.7M258.61 200.44l-9.4-11.47c-1.29 1.03-2.61 2.04-3.89 3.1l9.4 11.46c1.28-1.06 2.6-2.05 3.89-3.09M211.58 337.64l-16.74-9.2c-.82 1.44-1.65 2.88-2.45 4.33l16.74 9.19c.81-1.45 1.63-2.89 2.45-4.32M156.52 678.82l-12.68 6.74c.76 1.48 1.46 2.98 2.24 4.45l12.68-6.75c-.79-1.46-1.48-2.96-2.24-4.44M207.75 249.53l-11.3-9.52c-1.09 1.25-2.19 2.49-3.25 3.76l11.3 9.52c1.07-1.26 2.17-2.51 3.25-3.76M163.91 311.46l-12.9-7.08c-.81 1.44-1.65 2.87-2.45 4.32l12.9 7.09c.8-1.45 1.63-2.89 2.45-4.33M972.58 645.76l5.4 1.65c.49-1.58.94-3.18 1.419-4.77l-5.419-1.65c-.47 1.59-.91 3.19-1.4 4.77M879.63 430.59l14.35-2.67c-.3-1.63-.53-3.28-.85-4.9l-14.36 2.68c.32 1.62.56 3.26.86 4.89M184.33 279.38l-12.16-8.34c-.96 1.35-1.93 2.7-2.87 4.06l12.17 8.34c.94-1.36 1.91-2.71 2.86-4.06M229.23 310.17l-15.78-10.83c-.96 1.36-1.92 2.7-2.86 4.06l15.78 10.82c.94-1.36 1.9-2.71 2.86-4.05M795.26 862.94l4.85 5.92c1.28-1.05 2.53-2.15 3.8-3.21l-4.86-5.93c-1.27 1.07-2.51 2.17-3.79 3.22M588.47 69.8l2.07-10.32c-1.63-.33-3.25-.63-4.89-.95l-2.06 10.33c1.63.31 3.26.61 4.88.94M545.66 63.29l1.04-10.49c-1.65-.16-3.3-.3-4.95-.46l-1.04 10.49c1.65.15 3.3.29 4.95.46M959.44 415.71l7.89-1.47c-.3-1.63-.54-3.27-.85-4.9l-7.89 1.48c.32 1.62.55 3.26.85 4.89M965.49 461.4l7.96-.68c-.14-1.65-.21-3.31-.37-4.95l-7.95.68c.149 1.64.23 3.3.36 4.95M967.24 500.78c0 .18-.02.37-.02.56h7.95c0-.32.03-.63.03-.95 0-1.35-.09-2.68-.1-4.02h-7.97c.01 1.47.11 2.93.11 4.41M630.37 80.5l3.07-10.07c-1.58-.49-3.17-.96-4.76-1.43l-3.07 10.07c1.59.47 3.18.94 4.76 1.43M500 60.92c.84 0 1.66.06 2.5.06V50.45c-.84-.01-1.66-.07-2.5-.07-.83 0-1.64.06-2.47.06v10.54c.83 0 1.64-.06 2.47-.06M465.06 62.41l-.9-10.5c-1.65.13-3.31.22-4.96.37l.9 10.49c1.65-.15 3.31-.23 4.96-.36M674.34 96.77l4.12-9.66c-1.52-.66-3.01-1.38-4.54-2.02l-4.13 9.67c1.53.64 3.02 1.36 4.55 2.01M784.26 165.1l6.73-7.98c-1.27-1.07-2.49-2.19-3.77-3.25l-6.72 7.99c1.27 1.05 2.5 2.17 3.76 3.24M933.96 327.21l7.519-3.02c-.62-1.54-1.16-3.1-1.789-4.64l-7.51 3.03c.63 1.53 1.171 3.09 1.78 4.63M811.3 189.87c.2.2.39.42.59.62l7.37-7.36c-.27-.27-.52-.56-.79-.83-.9-.9-1.86-1.74-2.781-2.64l-7.37 7.37c.981.96 2.011 1.86 2.981 2.84M913.02 281.9l7.18-3.82c-.77-1.47-1.59-2.91-2.381-4.37l-7.199 3.83c.79 1.46 1.62 2.89 2.4 4.36M713.15 115.86l5.05-9.19c-1.45-.8-2.87-1.66-4.32-2.45l-5.05 9.19c1.45.79 2.87 1.65 4.32 2.45M948.899 370.79l7.741-2.25c-.46-1.59-.85-3.21-1.321-4.79L947.58 366c.47 1.59.859 3.2 1.319 4.79M749.94 138.75l5.92-8.63c-1.36-.94-2.69-1.94-4.06-2.87l-5.92 8.63c1.37.93 2.7 1.93 4.06 2.87M422.18 67.86l-1.93-10.35c-1.63.29-3.27.54-4.9.85l1.93 10.35c1.63-.3 3.27-.56 4.9-.85M964.95 547.41l7.87.78c.17-1.65.25-3.31.4-4.96l-7.9-.78c-.14 1.65-.21 3.31-.37 4.96M929.58 684.92l7.18 3.06c.66-1.52 1.38-3.02 2.02-4.55l-7.18-3.06c-.64 1.53-1.36 3.02-2.02 4.55M116.25 285.28l-9.07-4.97c-.81 1.44-1.66 2.87-2.45 4.32l9.06 4.98c.8-1.45 1.64-2.88 2.46-4.33M139.44 248.6l-8.56-5.87c-.95 1.35-1.93 2.7-2.86 4.06l8.55 5.87c.94-1.37 1.92-2.71 2.87-4.06M166.07 214.44l-7.95-6.7c-1.08 1.25-2.19 2.49-3.25 3.76l7.95 6.7c1.07-1.27 2.17-2.51 3.25-3.76M188.7 189.87c.98-.98 2.01-1.89 2.99-2.86l-7.37-7.37c-.92.9-1.88 1.75-2.79 2.66-.27.27-.51.55-.77.81l7.36 7.36c.2-.2.38-.41.58-.6M909.26 726.42l6.81 3.73c.8-1.45 1.66-2.86 2.45-4.32l-6.81-3.74c-.78 1.46-1.65 2.87-2.45 4.33M379.97 77.52l-2.94-10.1c-1.59.45-3.2.86-4.79 1.32l2.94 10.11c1.59-.47 3.2-.88 4.79-1.33M96.84 324.06l-9.49-4.05c-.66 1.52-1.36 3.02-2.01 4.55l9.48 4.05c.65-1.53 1.35-3.03 2.02-4.55M80.23 368.07l-9.83-3.01c-.49 1.59-1.06 3.15-1.54 4.73l9.82 3c.48-1.59 1.05-3.14 1.55-4.72M338.98 91.3l-3.92-9.75c-1.55.61-3.11 1.16-4.64 1.79l3.92 9.75c1.53-.62 3.09-1.18 4.64-1.79M946.87 637.91l7.5 2.29c.48-1.58.92-3.18 1.39-4.77l-7.51-2.3c-.47 1.59-.9 3.19-1.38 4.78M296.3 110.73l-4.93-9.27c-1.47.77-2.95 1.5-4.41 2.29l4.92 9.26c1.46-.78 2.95-1.51 4.42-2.28M840.95 222.6l8.04-6.59c-1.051-1.28-2.17-2.52-3.23-3.79l-8.04 6.6c1.06 1.27 2.18 2.5 3.23 3.78M958.15 593.13l7.73 1.54c.32-1.62.58-3.25.89-4.88l-7.74-1.55c-.31 1.62-.55 3.27-.88 4.89M224 158.21l-6.63-8.08c-1.29 1.04-2.59 2.06-3.87 3.12l6.62 8.07c1.28-1.06 2.59-2.07 3.88-3.11M259 132.66l-5.81-8.72c-1.38.91-2.78 1.8-4.16 2.73l5.81 8.71c1.37-.93 2.78-1.8 4.16-2.72M227.74 640.92l-18.64 9.92c.75 1.48 1.46 2.98 2.24 4.44l18.67-9.93c-.77-1.47-1.52-2.95-2.27-4.43M194.9 496.37h-21.12c-.03 1.65-.11 3.3-.12 4.97h21.11c.01-1.67.09-3.32.13-4.97M198.78 552.49l-20.71 3.86c.27 1.64.56 3.27.85 4.9l20.73-3.87c-.29-1.63-.6-3.25-.87-4.89M195.41 522.5l-21 1.8c.11 1.65.23 3.3.36 4.95l21.02-1.8c-.14-1.65-.28-3.29-.38-4.95M202.1 436.66l-20.85-4.18c-.35 1.62-.75 3.23-1.08 4.85l20.8 4.17c.34-1.63.76-3.22 1.13-4.84M197.02 466.34l-21.07-2.09c-.19 1.65-.44 3.28-.61 4.94l21.05 2.08c.17-1.65.43-3.28.63-4.93M235.59 350.82l-18.84-10.34c-.82 1.43-1.65 2.87-2.45 4.32l18.81 10.33c.81-1.45 1.65-2.88 2.48-4.31M221.9 377.44l-19.72-8.42c-.68 1.52-1.36 3.03-2.02 4.55l19.69 8.4c.66-1.52 1.36-3.02 2.05-4.53M210.07 407.71l-20.42-6.23c-.51 1.58-1.07 3.14-1.56 4.72l20.38 6.23c.5-1.59 1.08-3.14 1.6-4.72M214.44 610.9l-19.57 7.86c.59 1.55 1.17 3.1 1.79 4.63l19.6-7.87c-.61-1.54-1.23-3.07-1.82-4.62M880.41 815.88c-1.06 1.27-2.18 2.49-3.25 3.76l4.22 3.55c1.07-1.26 2.19-2.49 3.25-3.76l-4.22-3.55M242.81 667.25l-17.54 11.69c.9 1.39 1.74 2.81 2.66 4.19l17.57-11.7c-.92-1.38-1.79-2.79-2.69-4.18M270.39 302.26l-16.45-13.84c-1.09 1.25-2.18 2.5-3.25 3.76l16.44 13.84c1.07-1.26 2.17-2.51 3.26-3.76M260.46 692.01l-16.26 13.33c1.03 1.3 2.01 2.63 3.06 3.92l16.28-13.34c-1.05-1.29-2.05-2.61-3.08-3.91M812.18 883.58l3.46 4.23c1.28-1.05 2.54-2.14 3.81-3.2l-3.47-4.23c-1.27 1.06-2.52 2.15-3.8 3.2M205.15 582.09l-20.24 5.89c.43 1.6.87 3.2 1.32 4.79l20.28-5.9c-.46-1.59-.93-3.18-1.36-4.78M251.83 325.66l-17.74-12.16c-.96 1.35-1.92 2.7-2.86 4.06l17.72 12.15c.94-1.36 1.91-2.7 2.88-4.05M849.47 849.87c-.33.32-.68.63-1 .96l3.87 3.87c.4-.39.82-.75 1.21-1.14.78-.79 1.51-1.61 2.28-2.4l-3.89-3.89c-.84.85-1.621 1.75-2.47 2.6M726.31 91.9l3.99-7.27c-1.44-.81-2.86-1.67-4.32-2.46l-3.99 7.28c1.45.79 2.87 1.64 4.32 2.45M932.84 420.67l10.04-1.87c-.3-1.63-.529-3.27-.851-4.9l-10.039 1.88c.32 1.62.55 3.26.85 4.89M866.78 257.46l8.619-5.75c-.909-1.38-1.889-2.71-2.829-4.08l-8.63 5.75c.94 1.37 1.93 2.7 2.84 4.08M922.87 378.36l9.85-2.86c-.46-1.59-.85-3.2-1.321-4.79l-9.849 2.87c.48 1.58.86 3.19 1.32 4.78M938.57 463.71l10.14-.87c-.13-1.65-.21-3.31-.359-4.95l-10.141.87c.15 1.64.22 3.3.36 4.95M830.38 170.39c.27.27.52.55.79.82l5.81-5.81c-.33-.34-.63-.69-.97-1.02-.841-.85-1.73-1.63-2.58-2.46l-5.821 5.82c.911.9 1.871 1.74 2.771 2.65M908.77 337.33l9.56-3.84c-.62-1.54-1.16-3.1-1.79-4.63l-9.55 3.83c.63 1.53 1.17 3.1 1.78 4.64M889.43 242.37l6.8-4.53c-.92-1.38-1.89-2.72-2.82-4.09l-6.81 4.54c.93 1.36 1.91 2.7 2.83 4.08M889.02 294.67l9.12-4.86c-.77-1.46-1.6-2.9-2.4-4.35l-9.13 4.86c.789 1.45 1.64 2.88 2.41 4.35M862.02 205.33l6.33-5.2c-1.04-1.28-2.15-2.52-3.21-3.79l-6.35 5.2c1.06 1.27 2.18 2.51 3.23 3.79M765.39 116.23l4.679-6.83c-1.359-.94-2.689-1.94-4.059-2.86l-4.68 6.82c1.37.93 2.7 1.92 4.06 2.87M921.149 630.06l9.601 2.93c.48-1.59.91-3.19 1.38-4.78l-9.62-2.94c-.46 1.59-.87 3.2-1.361 4.79M904.89 674.38l9.2 3.92c.65-1.52 1.37-3.02 2.011-4.55l-9.191-3.92c-.64 1.53-1.37 3.02-2.02 4.55M801.83 144.23l5.319-6.31c-1.269-1.07-2.489-2.19-3.769-3.25l-5.31 6.32c1.27 1.05 2.5 2.17 3.76 3.24M940.24 501.16v.18h10.14c0-.19.01-.38.01-.56 0-1.48-.09-2.94-.1-4.41h-10.16c.01 1.6.11 3.19.11 4.79M931.76 587.84l9.87 1.98c.33-1.62.57-3.26.87-4.89l-9.891-1.98c-.299 1.63-.529 3.27-.849 4.89M938.12 544.75l10.06 1c.16-1.65.24-3.31.38-4.96l-10.07-1c-.15 1.65-.211 3.31-.37 4.96M410.68 932.33l-1.92 9.59c1.62.33 3.24.66 4.87.98l1.92-9.58c-1.63-.32-3.25-.65-4.87-.99M888.21 709.18c-.78 1.46-1.65 2.88-2.45 4.33l8.73 4.79c.8-1.44 1.67-2.86 2.45-4.32l-8.73-4.8M696.31 269.57l13.87-16.47c-1.27-1.07-2.5-2.19-3.78-3.23l-13.91 16.52c1.29 1.04 2.55 2.11 3.82 3.18M735.49 309.05l16.62-13.63c-1.05-1.27-2.18-2.5-3.251-3.76l-16.629 13.63c1.08 1.26 2.2 2.48 3.26 3.76M672.63 251.51l12.2-17.8c-1.36-.94-2.69-1.93-4.07-2.85l-12.25 17.86c1.38.92 2.75 1.85 4.12 2.79M715.39 286.99l15.22-15.22c-1.18-1.17-2.41-2.27-3.6-3.43l-15.22 15.22c1.19 1.15 2.43 2.26 3.6 3.43M782.66 387.99l19.9-7.99c-.63-1.54-1.26-3.07-1.91-4.59l-19.86 7.98c.65 1.52 1.25 3.07 1.87 4.6M768.84 358.62l18.97-10.09c-.79-1.46-1.65-2.88-2.46-4.33l-18.95 10.08c.81 1.45 1.65 2.88 2.44 4.34M753.37 333.02l17.9-11.92c-.93-1.37-1.92-2.7-2.87-4.06l-17.88 11.92c.94 1.36 1.93 2.69 2.85 4.06M743.19 868.28l5.44 8.17c1.379-.91 2.73-1.87 4.1-2.81l-5.45-8.18c-1.37.93-2.72 1.9-4.09 2.82M69.24 410.05l-10.04-2.01c-.34 1.62-.74 3.23-1.06 4.86l10.02 2c.32-1.62.73-3.23 1.08-4.85M792.62 416.28l20.49-5.97c-.46-1.59-.93-3.18-1.42-4.76l-20.48 5.96c.5 1.58.939 3.18 1.41 4.77M620.58 222.71l8.48-19.87c-1.52-.66-3.02-1.36-4.55-1.99L616 220.79c1.53.63 3.06 1.26 4.58 1.92M590.37 211.49l6.3-20.63c-1.59-.49-3.18-.94-4.771-1.4l-6.309 20.67c1.58.46 3.2.87 4.78 1.36M862.78 750.6l8.18 5.61c.94-1.36 1.94-2.69 2.86-4.06l-8.18-5.61c-.93 1.37-1.93 2.7-2.86 4.06M705.66 890.61l4.61 8.66c1.46-.77 2.91-1.57 4.37-2.36l-4.61-8.67c-1.46.79-2.9 1.6-4.37 2.37M836.259 785.2l7.561 6.37c1.08-1.26 2.2-2.49 3.25-3.76l-7.57-6.37c-1.05 1.27-2.17 2.49-3.241 3.76M811.3 812.46c-.2.2-.41.39-.61.58l6.97 6.98c.27-.26.55-.5.81-.77.91-.91 1.76-1.87 2.66-2.79l-6.98-6.99c-.97.99-1.871 2.02-2.85 2.99M647.29 235.82l10.39-18.94c-1.45-.8-2.87-1.65-4.33-2.43l-10.44 19.01c1.46.78 2.92 1.56 4.38 2.36M803.94 475.27l21.08-1.81c-.14-1.65-.28-3.31-.45-4.95l-21.08 1.81c.17 1.64.31 3.3.45 4.95M799.74 445.49l20.89-3.9c-.311-1.62-.61-3.25-.94-4.88l-20.88 3.9c.34 1.62.62 3.25.93 4.88M778.34 842.3l6.24 7.61c1.28-1.05 2.52-2.15 3.79-3.22l-6.25-7.62c-1.27 1.07-2.5 2.18-3.78 3.23M213.5 835.29l-6.34 7.54c1.25 1.08 2.49 2.18 3.76 3.25l6.34-7.54c-1.26-1.06-2.5-2.17-3.76-3.25M109.15 704.03l-8.82 4.69c.77 1.47 1.48 2.97 2.26 4.43l8.8-4.68c-.79-1.46-1.48-2.97-2.24-4.44M89.69 661.01l-9.29 3.73c.6 1.55 1.16 3.11 1.78 4.64l9.3-3.73c-.62-1.54-1.19-3.1-1.79-4.64M131.17 741.64l-8.28 5.51c.91 1.39 1.78 2.79 2.7 4.17l8.26-5.5c-.92-1.38-1.77-2.8-2.68-4.18M188.7 812.46c-.97-.97-1.87-1.99-2.83-2.97l-6.99 6.98c.9.92 1.74 1.87 2.65 2.78.27.27.55.52.82.79l6.98-6.98c-.21-.21-.42-.39-.63-.6M334.88 246.54l-11.99-18c-1.39.91-2.81 1.76-4.19 2.68l12 18.01c1.37-.92 2.79-1.79 4.18-2.69M390.03 218.4l-8.06-20.05c-1.54.59-3.1 1.16-4.63 1.78l8.07 20.1c1.53-.62 3.08-1.23 4.62-1.83M156.86 776.93l-7.66 6.28c1.04 1.29 2.05 2.6 3.11 3.88l7.65-6.27c-1.06-1.28-2.06-2.6-3.1-3.89M360.64 231.64l-10.18-19.12c-1.47.76-2.96 1.47-4.42 2.25l10.17 19.13c1.46-.78 2.96-1.5 4.43-2.26M288.22 283.55l-15.21-15.22c-1.2 1.15-2.43 2.25-3.6 3.43l15.22 15.22c1.17-1.17 2.4-2.28 3.59-3.43M75.95 619.7l-9.65 2.8c.45 1.6.86 3.2 1.32 4.79l9.65-2.81c-.46-1.59-.88-3.19-1.32-4.78M59.76 501.16c0-1.6.1-3.19.12-4.79H49.72c-.02 1.47-.11 2.93-.11 4.41 0 .18.01.37.01.56h10.14v-.18M62.43 453.01L52.28 452c-.17 1.65-.4 3.29-.56 4.94l10.13 1.01c.16-1.66.41-3.29.58-4.94M66.39 577.18l-9.91 1.84c.28 1.64.54 3.27.84 4.9l9.92-1.85c-.3-1.63-.57-3.26-.85-4.89M61.09 534.02l-10.08.87c.12 1.65.22 3.31.36 4.95l10.09-.86c-.14-1.65-.25-3.31-.37-4.96M310.65 263.92l-13.68-16.69c-1.3 1.03-2.63 2.02-3.91 3.07l13.68 16.69c1.28-1.05 2.61-2.04 3.91-3.07M280.46 714.9l-14.83 14.83c1.15 1.19 2.25 2.42 3.43 3.6l14.83-14.83c-1.17-1.18-2.28-2.41-3.43-3.6M532.16 199.54l2.12-21.39c-1.64-.17-3.29-.31-4.95-.46l-2.12 21.42c1.65.14 3.31.26 4.95.43M500 941.41c-.83 0-1.64-.06-2.47-.06v9.76c.83 0 1.64.06 2.47.06.84 0 1.66-.06 2.5-.06v-9.76c-.84 0-1.66.06-2.5.06M535.36 939.89l.84 9.73c1.65-.13 3.31-.22 4.96-.37l-.84-9.72c-1.64.15-3.3.23-4.96.36M453.92 938.99l-.97 9.72c1.65.17 3.3.32 4.95.47l.96-9.71c-1.65-.15-3.3-.31-4.94-.48M34.23 536.33l-7.9.67c.12 1.66.22 3.31.36 4.96l7.9-.68c-.14-1.64-.24-3.3-.36-4.95M578.68 934.32l1.79 9.6c1.63-.3 3.28-.54 4.9-.85l-1.79-9.6c-1.62.31-3.27.55-4.9.85M561.58 204.08l4.23-21.1c-1.63-.33-3.26-.63-4.89-.93l-4.23 21.14c1.62.31 3.27.55 4.89.89M621.3 924.45l2.74 9.39c1.59-.45 3.2-.85 4.79-1.32l-2.74-9.39c-1.58.47-3.2.87-4.79 1.32M247.94 862.09l-5.56 8.11c1.35.95 2.69 1.92 4.06 2.86l5.56-8.11c-1.37-.93-2.71-1.91-4.06-2.86M284.93 885.38l-4.72 8.6c1.45.81 2.87 1.66 4.33 2.46l4.72-8.61c-1.46-.79-2.88-1.64-4.33-2.45M447.28 202.48l-3.95-21.17c-1.63.28-3.27.54-4.89.85l3.95 21.2c1.62-.31 3.26-.59 4.89-.88M418.25 209.04l-6.03-20.72c-1.6.44-3.21.85-4.79 1.32l6.04 20.76c1.58-.47 3.18-.92 4.78-1.36M476.76 198.8l-1.84-21.42c-1.65.13-3.31.22-4.95.37l1.84 21.43c1.64-.15 3.3-.25 4.95-.38M324.03 904.83l-3.85 9.01c1.52.67 3.02 1.38 4.54 2.02l3.85-9.01c-1.52-.65-3.02-1.35-4.54-2.02M662.65 910.4l3.65 9.08c1.54-.61 3.11-1.16 4.64-1.79l-3.65-9.08c-1.53.63-3.09 1.18-4.64 1.79M368.37 921.42l-2.85 9.36c1.58.49 3.15 1.01 4.74 1.48l2.86-9.35c-1.59-.47-3.16-1-4.75-1.49M500 197.83c.84 0 1.66.06 2.5.06V176.4c-.84 0-1.66-.06-2.5-.06-.83 0-1.64.05-2.47.06v21.49c.83 0 1.64-.06 2.47-.06M400.08 243.42l-8.67-21.58c-1.54.6-3.09 1.2-4.62 1.83l8.67 21.58c1.53-.63 3.08-1.23 4.62-1.83M652.72 885.67l4.47 11.12c1.54-.61 3.11-1.15 4.64-1.78l-4.47-11.12c-1.53.63-3.1 1.17-4.64 1.78M548.36 36.04l.82-8.31c-1.64-.16-3.29-.31-4.94-.46l-.83 8.31c1.65.15 3.3.29 4.95.46M613.86 898.89l3.35 11.49c1.59-.45 3.2-.85 4.79-1.32l-3.35-11.5c-1.59.48-3.2.87-4.79 1.33M593.85 42.96l1.63-8.18c-1.62-.33-3.25-.64-4.88-.95l-1.63 8.18c1.62.31 3.25.62 4.88.95M349.18 116.7l-4.74-11.79c-1.54.6-3.1 1.16-4.64 1.78l4.74 11.79c1.53-.62 3.09-1.18 4.64-1.78M500 33.54c.84 0 1.66.05 2.5.06v-8.35c-.84 0-1.66-.06-2.5-.06-.83 0-1.64.06-2.47.06v8.35c.83-.01 1.64-.06 2.47-.06M693.14 867.08l5.64 10.59c1.46-.77 2.91-1.58 4.36-2.38l-5.64-10.59c-1.45.79-2.9 1.6-4.36 2.38M728.399 846.08l6.661 10c1.38-.92 2.72-1.89 4.09-2.82l-6.67-10.01c-1.36.94-2.71 1.92-4.081 2.83M533.09 913.39l1.02 11.9c1.65-.13 3.31-.21 4.96-.36l-1.02-11.91c-1.65.15-3.31.24-4.96.37M274.15 155.41l-7.02-10.55c-1.39.91-2.79 1.79-4.17 2.72l7.03 10.53c1.37-.92 2.78-1.79 4.16-2.7M456.54 912.51l-1.18 11.9c1.65.17 3.3.32 4.95.47l1.18-11.89c-1.65-.15-3.3-.31-4.95-.48M573.8 908.15l2.2 11.76c1.63-.29 3.27-.54 4.89-.85l-2.19-11.75c-1.62.31-3.27.55-4.9.84M500 914.8c-.83 0-1.64-.05-2.47-.06v11.96c.83 0 1.64.06 2.47.06.84 0 1.66-.06 2.5-.07v-11.95c-.84.01-1.66.06-2.5.06M417.16 40.95l-1.53-8.2c-1.63.29-3.27.54-4.89.85l1.53 8.2c1.62-.31 3.26-.56 4.89-.85M309.15 134.88l-5.96-11.21c-1.47.77-2.96 1.5-4.42 2.28l5.96 11.2c1.46-.79 2.95-1.51 4.42-2.27M761.42 821.66l7.62 9.3c1.28-1.05 2.52-2.16 3.79-3.22l-7.64-9.32c-1.26 1.07-2.49 2.19-3.77 3.24M462.72 35.13l-.71-8.31c-1.66.13-3.31.21-4.96.36l.71 8.31c1.65-.14 3.31-.23 4.96-.36M638.37 54.31l2.43-7.97c-1.58-.48-3.17-.96-4.76-1.44l-2.43 7.98c1.59.47 3.17.95 4.76 1.43M327.77 284.8L313 266.78c-1.3 1.03-2.63 2.02-3.91 3.08l14.77 18.02c1.28-1.06 2.61-2.05 3.91-3.08M307.35 302.67l-16.51-16.51c-1.19 1.16-2.42 2.26-3.6 3.43l16.51 16.51c1.17-1.17 2.41-2.28 3.6-3.43M16.11 399.42l-5.74-1.15c-.33 1.62-.7 3.23-1.02 4.86l5.73 1.15c.32-1.63.7-3.24 1.03-4.86M291.12 319.72l-17.9-15.07c-1.09 1.25-2.18 2.49-3.25 3.76l17.89 15.07c1.07-1.27 2.17-2.51 3.26-3.76M8.61 447.67l-5.79-.57c-.18 1.65-.37 3.29-.53 4.95l5.77.57c.16-1.66.37-3.3.55-4.95M349.84 269l-12.9-19.37c-1.4.9-2.81 1.76-4.19 2.68l12.91 19.37c1.37-.93 2.79-1.79 4.18-2.68M5.77 500.39c0-1.35.09-2.68.1-4.02H.09C.08 497.58 0 498.78 0 500c0 .45.03.89.03 1.34h5.76c0-.32-.02-.63-.02-.95M373.3 255.44l-10.92-20.53c-1.47.76-2.97 1.48-4.42 2.27l10.92 20.53c1.46-.79 2.95-1.51 4.42-2.27M840.69 735.46l10 6.85c.94-1.36 1.94-2.69 2.86-4.06l-9.99-6.85c-.93 1.37-1.93 2.7-2.87 4.06M882.19 659.28c-.63 1.53-1.34 3.03-1.99 4.56l11.21 4.78c.65-1.53 1.38-3.02 2.01-4.55l-11.23-4.79M387.62 103.81l-3.55-12.21c-1.6.45-3.21.85-4.8 1.32l3.56 12.21c1.59-.46 3.2-.87 4.79-1.32M815.81 767.98l9.24 7.78c1.07-1.26 2.19-2.49 3.25-3.76l-9.25-7.78c-1.05 1.27-2.17 2.5-3.24 3.76M792.21 793.77c-.13.13-.27.26-.41.39l8.53 8.52c.19-.2.41-.38.6-.58.98-.98 1.89-2 2.86-2.99l-8.54-8.53c-1.03 1.05-1.99 2.15-3.04 3.19M415.9 906.23l-2.35 11.73c1.63.33 3.25.67 4.88.99l2.35-11.73c-1.63-.32-3.25-.66-4.88-.99M140.08 298.38l-10.98-6.04c-.82 1.44-1.66 2.87-2.46 4.33l10.99 6.03c.8-1.45 1.63-2.89 2.45-4.32M862.26 700.6l10.65 5.85c.8-1.45 1.67-2.86 2.45-4.32l-10.65-5.85c-.78 1.46-1.65 2.87-2.45 4.32M685.08 71.61l3.26-7.65c-1.52-.66-3.01-1.37-4.54-2.01l-3.27 7.64c1.53.64 3.02 1.36 4.55 2.02M35.52 450.34l-7.97-.79c-.17 1.65-.38 3.29-.54 4.94l7.95.79c.16-1.65.38-3.29.56-4.94M101.77 612.18l-11.75 3.42c.45 1.59.86 3.2 1.32 4.79l11.75-3.42c-.46-1.59-.88-3.19-1.32-4.79M161.89 263.99l-10.37-7.11c-.95 1.36-1.92 2.7-2.86 4.06l10.36 7.11c.94-1.36 1.91-2.71 2.87-4.06M169.61 170.39c.91-.92 1.88-1.76 2.79-2.66l-5.82-5.83c-.85.85-1.74 1.63-2.59 2.48-.33.33-.63.67-.96 1l5.81 5.82c.27-.27.51-.55.77-.81M92.86 572.24l-12.06 2.25c.28 1.63.54 3.27.85 4.9l12.06-2.25c-.3-1.63-.57-3.26-.85-4.9M186.91 231.98l-9.63-8.11c-1.08 1.26-2.18 2.5-3.25 3.76l9.63 8.12c1.07-1.27 2.17-2.51 3.25-3.77M206.69 137.09l-5.24-6.39c-1.29 1.05-2.58 2.08-3.86 3.14l5.23 6.37c1.28-1.05 2.58-2.07 3.87-3.12M121.82 334.72l-11.5-4.91c-.67 1.52-1.37 3.02-2.02 4.55l11.5 4.91c.65-1.53 1.35-3.03 2.02-4.55M114.61 651l-11.32 4.55c.6 1.54 1.17 3.1 1.79 4.63l11.32-4.55c-.62-1.53-1.19-3.09-1.79-4.63M106.18 375.99l-11.93-3.64c-.5 1.58-1.07 3.13-1.55 4.72l11.92 3.64c.48-1.59 1.06-3.14 1.56-4.72M95.79 415.37l-12.18-2.44c-.34 1.62-.75 3.23-1.07 4.85l12.17 2.44c.32-1.63.74-3.23 1.08-4.85M116.99 233.2l-6.75-4.62c-.95 1.35-1.93 2.69-2.86 4.06l6.74 4.62c.94-1.36 1.92-2.7 2.87-4.06M132.83 691.43l-10.74 5.71c.76 1.47 1.46 2.98 2.24 4.44l10.74-5.71c-.78-1.47-1.48-2.97-2.24-4.44M92.41 272.2l-7.14-3.93c-.81 1.45-1.66 2.88-2.46 4.33l7.15 3.92c.8-1.45 1.64-2.88 2.45-4.32M87.95 531.72l-12.26 1.05c.12 1.65.23 3.31.36 4.95l12.26-1.05c-.13-1.65-.24-3.3-.36-4.95M145.23 196.89l-6.28-5.29c-1.08 1.26-2.18 2.5-3.25 3.77l6.28 5.28c1.07-1.27 2.17-2.51 3.25-3.76M86.88 496.37H74.53c-.02 1.6-.12 3.19-.12 4.79 0 .06.01.12.01.18h12.34c0-1.67.1-3.31.12-4.97M89.34 455.67l-12.32-1.22c-.18 1.65-.42 3.28-.58 4.94l12.3 1.22c.16-1.65.42-3.29.6-4.94M263.02 840.08l-6.8 9.92c1.36.95 2.7 1.93 4.07 2.86l6.8-9.91c-1.37-.94-2.71-1.91-4.07-2.87M54.29 360.14l-7.73-2.36c-.5 1.59-1.06 3.15-1.54 4.73l7.72 2.36c.48-1.59 1.05-3.14 1.55-4.73M772.77 912.68l3.02 4.53c1.38-.92 2.739-1.87 4.11-2.8l-3.03-4.54c-1.37.94-2.721 1.89-4.1 2.81M297.77 862.01l-5.78 10.52c1.44.81 2.87 1.66 4.32 2.45l5.78-10.52c-1.45-.79-2.88-1.64-4.32-2.45M241.31 179.33l-8.02-9.78c-1.29 1.04-2.6 2.05-3.88 3.11l8.01 9.77c1.28-1.06 2.59-2.06 3.89-3.1M328.77 65.91l-3.1-7.72c-1.54.6-3.1 1.16-4.64 1.78l3.11 7.73c1.53-.62 3.09-1.18 4.63-1.79M376.15 895.94l-3.49 11.46c1.58.49 3.15 1.01 4.74 1.49l3.5-11.45c-1.59-.48-3.16-1-4.75-1.5M334.49 880.32l-4.71 11.03c1.52.66 3.02 1.37 4.55 2.02l4.7-11.03c-1.52-.64-3.02-1.35-4.54-2.02M372.32 51.24l-2.33-8c-1.59.45-3.2.85-4.79 1.32l2.33 8c1.59-.46 3.19-.87 4.79-1.32M42.67 404.73l-7.89-1.58c-.33 1.63-.71 3.24-1.03 4.86l7.87 1.58c.32-1.63.71-3.23 1.05-4.86M207.79 209.34c1.04-1.04 2.14-2.01 3.19-3.04l-8.92-8.92c-.99.96-2.02 1.87-2.99 2.85-.2.2-.39.41-.58.61l8.91 8.91c.13-.13.26-.27.39-.41M177.55 759.97l-9.35 7.67c1.04 1.29 2.04 2.61 3.1 3.89l9.34-7.66c-1.06-1.29-2.05-2.61-3.09-3.9M243.84 109.92l-4.59-6.9c-1.39.91-2.78 1.81-4.15 2.73l4.59 6.89c1.37-.92 2.77-1.81 4.15-2.72M153.46 726.78l-10.09 6.73c.9 1.39 1.76 2.8 2.68 4.18l10.09-6.72c-.93-1.38-1.77-2.8-2.68-4.19M71.86 313.4l-7.47-3.19c-.67 1.52-1.37 3.02-2.02 4.55l7.47 3.18c.65-1.52 1.35-3.03 2.02-4.54M207.79 793.77c-1.04-1.04-2-2.13-3.03-3.18l-8.53 8.54c.96.98 1.86 2 2.84 2.97.2.2.42.39.62.6l8.52-8.53c-.13-.14-.28-.26-.42-.4M230.69 814.88l-7.75 9.2c1.25 1.09 2.49 2.19 3.76 3.25l7.76-9.21c-1.27-1.06-2.51-2.16-3.77-3.24M283.45 86.58l-3.9-7.33c-1.47.77-2.95 1.5-4.41 2.29l3.9 7.33c1.46-.79 2.94-1.52 4.41-2.29M693.61 738.94l13.3 16.22c1.27-1.05 2.5-2.18 3.76-3.25l-13.28-16.21c-1.27 1.08-2.5 2.19-3.78 3.24M733.89 699.01l16.05 13.51c1.07-1.26 2.17-2.51 3.209-3.79l-16.099-13.56c-1.05 1.29-2.1 2.57-3.16 3.84M352.81 972.37l-1.57 5.17c1.58.49 3.15 1 4.74 1.48l1.58-5.16c-1.59-.48-3.16-1-4.75-1.49M400.22 984.54l-1.06 5.29c1.63.33 3.25.66 4.88.97l1.05-5.28c-1.62-.31-3.25-.64-4.87-.98M467.03 806.57l-2.04 20.62c1.65.17 3.3.34 4.95.49l2.04-20.64c-1.65-.15-3.3-.29-4.95-.47M752.25 674.81l17.34 11.9c.94-1.37 1.9-2.72 2.82-4.1l-17.42-11.94c-.91 1.38-1.81 2.77-2.74 4.14M448.67 991.95l-.53 5.36c1.64.17 3.29.32 4.95.47l.53-5.35c-1.65-.15-3.3-.3-4.95-.48M376.4 782.14l-8.21 19.23c1.52.67 3.02 1.37 4.54 2.02l8.2-19.2c-1.53-.65-3.02-1.38-4.53-2.05M716.13 718.48l14.83 14.83c1.17-1.17 2.27-2.41 3.42-3.6l-14.82-14.83c-1.16 1.2-2.27 2.42-3.43 3.6M349.19 768.36l-10.08 18.37c1.44.81 2.87 1.65 4.32 2.45l10.07-18.34c-1.45-.8-2.87-1.66-4.31-2.48M792.39 590.74l20.23 6.17c.47-1.58.87-3.2 1.33-4.79l-20.2-6.17c-.45 1.6-.88 3.2-1.36 4.79M799.62 561.38l20.71 4.15c.319-1.62.56-3.27.85-4.9l-20.68-4.14c-.29 1.63-.561 3.27-.88 4.89M259.27 932.12l-2.62 4.77c1.45.81 2.87 1.66 4.32 2.45l2.62-4.76c-1.45-.8-2.88-1.65-4.32-2.46M803.91 531.46l21 2.08c.15-1.65.23-3.31.36-4.96l-20.99-2.08c-.12 1.65-.22 3.31-.37 4.96M303.11 953.85l-2.13 4.98c1.52.66 3.02 1.37 4.54 2.02l2.13-4.98c-1.53-.65-3.02-1.36-4.54-2.02M730.71 937.68l2.55 4.79c1.46-.77 2.92-1.56 4.38-2.35l-2.56-4.79c-1.45.79-2.91 1.58-4.37 2.35M781.319 621.63l19.381 8.27c.65-1.52 1.279-3.06 1.9-4.59L783.14 617c-.62 1.54-1.18 3.1-1.821 4.63M768.13 648.92l18.46 10.13c.8-1.45 1.6-2.9 2.37-4.37l-18.54-10.18c-.771 1.47-1.5 2.96-2.29 4.42M407.3 793.95l-6.08 19.92c1.58.5 3.15 1.03 4.74 1.51l6.09-19.97c-1.59-.48-3.17-.96-4.75-1.46M436.82 801.76l-4.07 20.37c1.62.34 3.24.68 4.86 1l4.09-20.4c-1.63-.32-3.26-.62-4.88-.97M523.99 807.35l1.78 20.64c1.65-.12 3.3-.21 4.95-.36l-1.77-20.66c-1.65.16-3.31.25-4.96.38M588.44 986.64l.99 5.29c1.63-.29 3.27-.53 4.89-.84l-.98-5.3c-1.63.31-3.27.56-4.9.85M805.1 496.37c.04 1.65.12 3.3.12 4.97h21.11c0-1.67-.09-3.32-.12-4.97H805.1M427.2 94.78l-2.33-12.51c-1.63.29-3.28.54-4.9.85l2.33 12.51c1.63-.31 3.27-.56 4.9-.85M642.94 772.74l9.86 18.52c1.46-.77 2.89-1.61 4.34-2.41l-9.83-18.48c-1.45.81-2.911 1.59-4.37 2.37M467.4 89.68L466.31 77c-1.65.13-3.31.22-4.95.37l1.08 12.68c1.65-.15 3.31-.24 4.96-.37M500 808.38c-.83 0-1.64-.06-2.47-.07v20.72c.83 0 1.64.06 2.47.06.84 0 1.66-.06 2.5-.07v-20.71c-.84.01-1.66.07-2.5.07M636.18 975.58l1.51 5.19c1.59-.46 3.2-.86 4.79-1.33l-1.51-5.18c-1.58.47-3.19.87-4.79 1.32M554.28 803.45l3.81 20.42c1.63-.29 3.27-.53 4.9-.85l-3.82-20.45c-1.62.32-3.26.58-4.89.88M32.76 500.78c0-1.48.1-2.94.11-4.41H24.9c-.01 1.34-.09 2.67-.09 4.02 0 .32.02.63.02.95h7.95c0-.19-.02-.38-.02-.56M500 994.62c-.83 0-1.64-.05-2.47-.06v5.38c.83.01 1.64.06 2.47.06.84 0 1.66-.06 2.5-.06v-5.38c-.84.01-1.66.06-2.5.06M612.94 786.63l7.79 19.41c1.54-.61 3.1-1.17 4.63-1.81l-7.8-19.43c-1.53.65-3.08 1.22-4.62 1.83M539.91 992.9l.47 5.36c1.65-.13 3.3-.21 4.95-.36l-.46-5.36c-1.64.15-3.31.23-4.96.36M682.52 959.84l2.01 5.02c1.54-.61 3.11-1.16 4.64-1.79l-2.021-5.02c-1.529.63-3.099 1.18-4.629 1.79M584.06 796.51l5.83 20.02c1.59-.46 3.2-.85 4.79-1.33l-5.84-20.05c-1.58.48-3.19.91-4.78 1.36M669.11 757.1l11.64 17.48c1.38-.92 2.71-1.91 4.07-2.86l-11.62-17.43c-1.36.94-2.71 1.89-4.09 2.81M610 247.51l9.13-21.4c-1.52-.65-3.05-1.28-4.59-1.92l-9.13 21.4c1.54.63 3.07 1.26 4.59 1.92M582.49 237.27l6.8-22.24c-1.58-.49-3.2-.89-4.79-1.36l-6.79 22.25c1.59.46 3.2.86 4.78 1.35M39.83 681.04l-5.23 2.1c.61 1.54 1.17 3.1 1.79 4.63l5.23-2.09c-.62-1.54-1.18-3.1-1.79-4.64M61.77 729.24l-4.94 2.63c.77 1.47 1.5 2.96 2.28 4.42l4.93-2.62c-.79-1.47-1.5-2.96-2.27-4.43M556.28 230.53l4.57-22.82c-1.61-.33-3.26-.58-4.89-.88l-4.57 22.8c1.63.31 3.28.56 4.89.9M634.3 259.46l11.2-20.39c-1.45-.81-2.91-1.59-4.37-2.37l-11.2 20.4c1.47.78 2.92 1.56 4.37 2.36M86.57 771.36l-4.63 3.08c.91 1.38 1.8 2.78 2.73 4.15l4.61-3.07c-.92-1.38-1.8-2.78-2.71-4.16M657.37 273.77l13.17-19.21c-1.37-.94-2.74-1.87-4.12-2.78l-13.17 19.2c1.38.91 2.75 1.85 4.12 2.79M500 224.81c.84 0 1.66.05 2.5.06V201.6c-.84-.01-1.66-.06-2.5-.06-.83 0-1.64.05-2.47.06v23.27c.83-.01 1.64-.06 2.47-.06M24.3 634.73l-5.45 1.58c.45 1.6.86 3.2 1.33 4.79l5.44-1.58c-.46-1.59-.88-3.2-1.32-4.79M13.44 587.05l-5.61 1.04c.3 1.63.55 3.27.85 4.9l5.61-1.05c-.3-1.62-.56-3.26-.85-4.89M479.07 225.67l-1.99-23.18c-1.65.13-3.31.23-4.96.38l1.99 23.18c1.65-.15 3.31-.25 4.96-.38M7.37 538.63l-5.72.49c.12 1.65.22 3.31.36 4.96l5.72-.49c-.14-1.65-.24-3.3-.36-4.96M452.23 228.99l-4.27-22.87c-1.63.29-3.27.57-4.89.88l4.26 22.86c1.63-.31 3.26-.59 4.9-.87M678.91 290.24l15.01-17.84c-1.26-1.07-2.53-2.13-3.82-3.18l-15.01 17.83c1.29 1.05 2.55 2.12 3.82 3.19M299.57 733.07l-13.5 16.03c1.25 1.09 2.5 2.18 3.77 3.24l13.48-16.02c-1.26-1.07-2.5-2.16-3.75-3.25M529.5 226.38l2.3-23.15c-1.64-.18-3.3-.29-4.95-.43l-2.3 23.15c1.65.14 3.31.26 4.95.43M217.76 906.09l-3.08 4.5c1.36.95 2.7 1.93 4.06 2.86l3.08-4.49c-1.36-.94-2.7-1.92-4.06-2.87M730.5 347.75c.08.12.17.23.25.35l19.54-13.02c-.93-1.38-1.91-2.71-2.86-4.07l-19.53 13.02c.86 1.24 1.76 2.46 2.6 3.72M744.86 371.38l20.709-11.02c-.789-1.46-1.63-2.89-2.439-4.33l-20.73 11.03c.82 1.44 1.67 2.86 2.46 4.32M179.11 876.14l-3.52 4.18c1.26 1.08 2.49 2.19 3.76 3.25l3.52-4.18c-1.26-1.07-2.5-2.17-3.76-3.25M425.78 234.93l-6.5-22.34c-1.59.45-3.19.9-4.78 1.37l6.5 22.32c1.59-.47 3.18-.91 4.78-1.35M150.52 849.87c-.84-.85-1.62-1.73-2.45-2.58l-3.89 3.89c.78.78 1.49 1.6 2.27 2.38.4.4.82.76 1.22 1.16l3.88-3.88c-.34-.33-.69-.64-1.03-.97M714.5 326.25l18.12-14.86c-1.05-1.27-2.18-2.49-3.25-3.75l-18.1 14.83c1.07 1.26 2.18 2.49 3.23 3.78M766.61 423.85l22.45-6.54c-.47-1.58-.91-3.18-1.411-4.76l-22.489 6.54c.5 1.58.97 3.17 1.45 4.76M757.49 398.1l21.74-8.73c-.63-1.53-1.23-3.08-1.88-4.6l-21.77 8.74c.66 1.52 1.28 3.06 1.91 4.59M323.47 751.93l-11.85 17.28c1.35.96 2.7 1.93 4.06 2.87l11.84-17.27c-1.36-.94-2.7-1.92-4.05-2.88M696.27 306.12l16.5-16.51c-1.17-1.17-2.4-2.28-3.6-3.43l-16.5 16.5c1.19 1.16 2.42 2.27 3.6 3.44M773.15 450.45l22.95-4.28c-.31-1.63-.59-3.26-.93-4.88l-22.99 4.28c.34 1.62.65 3.25.97 4.88M115.47 810.86l-4.27 3.51c1.04 1.28 2.07 2.58 3.13 3.85l4.26-3.49c-1.05-1.28-2.07-2.58-3.12-3.87"/>
    </g>
</svg>
